<svg width="61" height="59" viewBox="0 0 61 59" fill="none" xmlns="http://www.w3.org/2000/svg">
<g opacity="0.6">
<rect width="92.9906" height="58.1817" rx="29.0909" fill="white" fill-opacity="0.15"/>
<rect x="0.595561" y="0.595561" width="91.7995" height="56.9906" rx="28.4953" stroke="#212C31" stroke-opacity="0.6" stroke-width="1.19112"/>
<path d="M26.7086 36.7416C30.9339 36.7416 34.3592 33.3163 34.3592 29.0909C34.3592 24.8656 30.9339 21.4403 26.7086 21.4403C22.4832 21.4403 19.0579 24.8656 19.0579 29.0909C19.0579 33.3163 22.4832 36.7416 26.7086 36.7416Z" fill="#42BDFF"/>
<path d="M30.8231 27.1855H29.2275H27.6322L27.04 27.738L26.8023 27.9604L26.6558 28.0983L26.5935 28.1575L26.5331 28.2146L26.5065 28.2398L26.4566 28.2882L26.4358 28.3081L26.3969 28.3453L26.3831 28.3594L26.3581 28.3839L26.3516 28.3908L26.2554 28.4911L26.217 33.6135L25.7266 33.1521L25.2363 32.6906V30.3968V28.103L26.2235 27.1751L27.2107 26.2468H31.8311M29.3136 28.1626L29.4306 28.164L29.484 28.1651L29.5875 28.1673L29.6329 28.1684L29.7198 28.1712L29.7559 28.1727L29.8232 28.1756L29.849 28.1774L29.8944 28.1806L29.9078 28.1824L29.9282 28.186V28.1882L29.9186 28.2027L29.9028 28.2207L29.8909 28.2333L29.8644 28.2615L29.8475 28.2788L29.8113 28.3157L29.7898 28.337L29.6963 28.429L29.6402 28.4828L29.5217 28.5958L29.4571 28.6561L28.986 29.097L28.6206 29.1071L28.2553 29.1172L28.2453 30.9099L28.2353 32.7022L27.7691 33.1394L27.643 33.2568L27.5853 33.3091L27.4753 33.4084L27.4299 33.4478L27.3865 33.4857L27.368 33.5016L27.333 33.5308L27.3192 33.5417L27.2942 33.5615L27.2857 33.5673L27.2719 33.5763H27.2696L27.2661 33.564L27.2638 33.5438L27.2626 33.5279L27.2607 33.4925L27.2596 33.4691L27.2573 33.4193L27.2565 33.3889L27.2546 33.3254L27.2534 33.2886L27.2515 33.212L27.2507 33.169L27.2492 33.0802L27.248 33.0315L27.2465 32.9315L27.2457 32.8773L27.2446 32.7665L27.2438 32.7076L27.2423 32.587L27.2419 32.5235L27.2396 32.2599L27.2388 32.1165L27.2373 31.8226L27.2369 31.6663L27.2361 31.3479V28.7872L27.5772 28.4738L27.9184 28.1604H28.9233M24.9694 26.236H25.187L25.2832 26.2363L25.4666 26.237L25.5435 26.2378L25.6174 26.2381L25.6505 26.2385L25.7139 26.2392L25.7408 26.2396L25.7924 26.2403L25.8135 26.2407L25.8527 26.2414L25.8674 26.2421L25.8935 26.2428L25.9012 26.2435L25.9131 26.2446L25.9139 26.245L25.9074 26.2576L25.8931 26.275L25.882 26.2879L25.8562 26.3158L25.8393 26.3334L25.8031 26.3706L25.782 26.3923L25.7366 26.4374L25.7112 26.4627L25.6581 26.5147L25.6293 26.5429L25.5078 26.6598L25.4401 26.7234L24.949 27.1855H22.6753L22.1811 26.7169L21.6865 26.2479L23.7914 26.2385L24.2148 26.2367L24.484 26.236H24.6102L24.8567 26.2356L24.9694 26.236Z" fill="#F3F9FC"/>
<path d="M43.5793 33.9514H42.009V30.8526H39.1126V29.3032H42.009V26.2533H43.5793V29.3032H46.4827V30.8526H43.5793V33.9514ZM50.3701 28.2493H51.5845C52.101 28.2493 52.5197 28.1051 52.8408 27.8166C53.1618 27.5328 53.3223 27.1652 53.3223 26.7139C53.3223 26.2672 53.1734 25.9136 52.8757 25.653C52.5639 25.3832 52.1312 25.2483 51.5775 25.2483C51.0611 25.2483 50.6376 25.3878 50.3073 25.667C49.9862 25.9508 49.8071 26.3277 49.7699 26.7976H48.0949C48.1461 25.8903 48.4927 25.1668 49.1348 24.6271C49.7815 24.0874 50.6237 23.8175 51.6613 23.8175C52.657 23.8175 53.4712 24.0641 54.104 24.5573C54.7368 25.0505 55.0532 25.6879 55.0532 26.4696C55.0532 27.0884 54.8624 27.6119 54.4809 28.0399C54.104 28.4634 53.6015 28.7286 52.9734 28.8356V28.8775C53.7318 28.9333 54.3343 29.1776 54.781 29.6103C55.2323 30.0476 55.458 30.6153 55.458 31.3132C55.458 32.1972 55.0974 32.9161 54.3762 33.4698C53.6597 34.0188 52.7477 34.2933 51.6403 34.2933C50.5423 34.2933 49.6536 34.0165 48.9743 33.4628C48.3043 32.9138 47.946 32.1879 47.8995 31.2853H49.6163C49.6582 31.7506 49.8583 32.1205 50.2166 32.395C50.5841 32.6788 51.0634 32.8207 51.6543 32.8207C52.2359 32.8207 52.7105 32.6742 53.078 32.381C53.4456 32.0879 53.6294 31.7087 53.6294 31.2434C53.6294 30.7363 53.4503 30.3361 53.092 30.043C52.7291 29.7499 52.2359 29.6033 51.6124 29.6033H50.3701V28.2493ZM60.5947 34.2933C59.5571 34.2933 58.6963 34.0095 58.0124 33.4419C57.3284 32.8789 56.9678 32.1507 56.9306 31.2574H58.6196C58.6754 31.7227 58.8894 32.1019 59.2617 32.395C59.6292 32.6881 60.0782 32.8347 60.6086 32.8347C61.2089 32.8347 61.6974 32.6462 62.0743 32.2694C62.4465 31.8925 62.6326 31.4063 62.6326 30.8107C62.6326 30.2058 62.4442 29.7126 62.0673 29.3311C61.6951 28.9449 61.2135 28.7518 60.6226 28.7518C59.7479 28.7518 59.1128 29.0868 58.7173 29.7568H57.0841L57.6076 24.0199H63.7772V25.4925H59.0313L58.7731 28.4378H58.815C59.2663 27.7352 60.0131 27.3839 61.0553 27.3839C62.0185 27.3839 62.8118 27.7026 63.4352 28.3401C64.0587 28.9728 64.3705 29.7801 64.3705 30.7618C64.3705 31.8087 64.0215 32.6579 63.3236 33.3093C62.621 33.9653 61.7114 34.2933 60.5947 34.2933ZM69.3187 34.2933C68.2811 34.2933 67.4204 34.0095 66.7364 33.4419C66.0524 32.8789 65.6919 32.1507 65.6546 31.2574H67.3436C67.3994 31.7227 67.6135 32.1019 67.9857 32.395C68.3533 32.6881 68.8023 32.8347 69.3327 32.8347C69.9329 32.8347 70.4214 32.6462 70.7983 32.2694C71.1706 31.8925 71.3567 31.4063 71.3567 30.8107C71.3567 30.2058 71.1682 29.7126 70.7913 29.3311C70.4191 28.9449 69.9376 28.7518 69.3466 28.7518C68.4719 28.7518 67.8368 29.0868 67.4413 29.7568H65.8082L66.3316 24.0199H72.5013V25.4925H67.7554L67.4971 28.4378H67.539C67.9903 27.7352 68.7371 27.3839 69.7794 27.3839C70.7425 27.3839 71.5358 27.7026 72.1593 28.3401C72.7828 28.9728 73.0945 29.7801 73.0945 30.7618C73.0945 31.8087 72.7455 32.6579 72.0476 33.3093C71.345 33.9653 70.4354 34.2933 69.3187 34.2933Z" fill="#EFF9FF"/>
</g>
</svg>
