<svg width="56" height="44" viewBox="0 0 56 44" fill="none" xmlns="http://www.w3.org/2000/svg">
<g opacity="0.6">
<rect x="-19" width="74.7981" height="43.6926" rx="21.8463" fill="white" fill-opacity="0.15"/>
<rect x="-18.5528" y="0.447248" width="73.9036" height="42.7981" rx="21.3991" stroke="#212C31" stroke-opacity="0.6" stroke-width="0.894496"/>
<path d="M1.05733 27.5917C4.23042 27.5917 6.80272 25.0194 6.80272 21.8463C6.80272 18.6732 4.23042 16.101 1.05733 16.101C-2.11577 16.101 -4.68806 18.6732 -4.68806 21.8463C-4.68806 25.0194 -2.11577 27.5917 1.05733 27.5917Z" fill="#42BDFF"/>
<path d="M4.14744 20.4154H2.94915H1.75116L1.30639 20.8303L1.1279 20.9973L1.01786 21.1009L0.971076 21.1453L0.925732 21.1882L0.905804 21.2072L0.868258 21.2435L0.852663 21.2584L0.823493 21.2863L0.813096 21.2969L0.794322 21.3153L0.789413 21.3205L0.71721 21.3959L0.688329 25.2426L0.320092 24.8961L-0.0481434 24.5496V22.827V21.1044L0.693238 20.4075L1.43462 19.7104H4.90441M3.01385 21.1491L3.10165 21.1502L3.14179 21.151L3.21948 21.1527L3.25356 21.1535L3.31883 21.1556L3.34598 21.1567L3.39652 21.1589L3.41587 21.1602L3.44995 21.1627L3.46006 21.164L3.47537 21.1668V21.1684L3.46815 21.1792L3.45631 21.1928L3.44735 21.2023L3.42743 21.2234L3.41472 21.2364L3.38757 21.2641L3.3714 21.2801L3.30121 21.3492L3.25905 21.3896L3.17009 21.4745L3.12157 21.5198L2.76778 21.8509L2.49341 21.8584L2.21903 21.866L2.21153 23.2123L2.20402 24.5582L1.85398 24.8866L1.75924 24.9747L1.71592 25.014L1.63332 25.0886L1.59924 25.1182L1.56661 25.1466L1.55274 25.1586L1.52646 25.1805L1.51607 25.1886L1.49729 25.2036L1.49094 25.2079L1.48054 25.2147H1.47881L1.47621 25.2055L1.47448 25.1903L1.47361 25.1783L1.47217 25.1518L1.4713 25.1341L1.46957 25.0967L1.46899 25.074L1.46754 25.0262L1.46668 24.9986L1.46523 24.9411L1.46466 24.9088L1.4635 24.8421L1.46263 24.8055L1.46148 24.7304L1.4609 24.6897L1.46004 24.6065L1.45946 24.5623L1.4583 24.4717L1.45801 24.424L1.45628 24.2261L1.4557 24.1184L1.45455 23.8977L1.45426 23.7803L1.45368 23.5412V21.6182L1.70986 21.3829L1.96603 21.1475H2.7207M-0.248579 19.7023H-0.0851114L-0.0129082 19.7026L0.124855 19.7031L0.182617 19.7037L0.23807 19.7039L0.262907 19.7042L0.310562 19.7047L0.330778 19.705L0.36948 19.7056L0.385364 19.7058L0.414823 19.7064L0.425798 19.7069L0.445437 19.7074L0.451213 19.708L0.460167 19.7088L0.460744 19.7091L0.455834 19.7186L0.445148 19.7316L0.436773 19.7413L0.417422 19.7622L0.404714 19.7755L0.377566 19.8034L0.361682 19.8197L0.327601 19.8536L0.30854 19.8726L0.268684 19.9116L0.247023 19.9328L0.155758 20.0206L0.104927 20.0683L-0.263886 20.4154H-1.97135L-2.34247 20.0635L-2.71388 19.7112L-1.13321 19.7042L-0.815229 19.7028L-0.61306 19.7023H-0.51833L-0.333202 19.702L-0.248579 19.7023Z" fill="#F3F9FC"/>
<path d="M13.5101 25.7415H12.3308V23.4144H10.1557V22.2509H12.3308V19.9605H13.5101V22.2509H15.6904V23.4144H13.5101V25.7415ZM18.5207 19.5726H18.4892L16.5343 20.9458V19.6722L18.5102 18.2833H19.8467V25.8463H18.5207V19.5726ZM24.4747 25.9983C23.5522 25.9983 22.8272 25.6454 22.2996 24.9396C21.7754 24.2373 21.5134 23.2764 21.5134 22.0569C21.5134 20.8445 21.7772 19.8888 22.3048 19.19C22.8324 18.4842 23.5557 18.1313 24.4747 18.1313C25.3936 18.1313 26.1151 18.4824 26.6393 19.1848C27.1634 19.8836 27.4254 20.8392 27.4254 22.0517C27.4254 23.2676 27.1651 24.2285 26.6445 24.9343C26.1169 25.6437 25.3936 25.9983 24.4747 25.9983ZM24.4747 24.8924C24.9743 24.8924 25.3639 24.6426 25.6434 24.1429C25.9195 23.6433 26.0575 22.9479 26.0575 22.0569C26.0575 21.1729 25.9177 20.4828 25.6382 19.9867C25.3587 19.487 24.9708 19.2372 24.4747 19.2372C23.9785 19.2372 23.5871 19.487 23.3006 19.9867C23.0176 20.4863 22.8761 21.1747 22.8761 22.0517C22.8761 22.9427 23.0176 23.638 23.3006 24.1377C23.5802 24.6408 23.9715 24.8924 24.4747 24.8924ZM31.0786 25.9983C30.3832 25.9983 29.7892 25.8096 29.2966 25.4323C28.8004 25.0549 28.4981 24.5622 28.3898 23.9542H29.7316C29.8154 24.2408 29.9814 24.4696 30.2295 24.6408C30.4811 24.8155 30.7711 24.9029 31.0995 24.9029C31.6621 24.9029 32.0988 24.6513 32.4098 24.1482C32.7243 23.6415 32.8763 22.934 32.8658 22.0255H32.8448C32.6946 22.3994 32.4395 22.6981 32.0796 22.9217C31.7092 23.1488 31.2812 23.2624 30.7955 23.2624C30.0757 23.2624 29.4782 23.0248 29.003 22.5496C28.5243 22.0744 28.285 21.4787 28.285 20.7624C28.285 19.9971 28.5523 19.3665 29.0869 18.8703C29.618 18.3741 30.2924 18.126 31.11 18.126C32.2666 18.126 33.1051 18.6257 33.6258 19.625C33.9857 20.2505 34.1656 21.0349 34.1656 21.9783C34.1656 23.2397 33.8931 24.225 33.348 24.9343C32.8029 25.6437 32.0464 25.9983 31.0786 25.9983ZM31.1152 22.2037C31.5485 22.2037 31.9102 22.0639 32.2002 21.7844C32.4902 21.5049 32.6352 21.1572 32.6352 20.7414C32.6352 20.3186 32.4902 19.9622 32.2002 19.6722C31.9067 19.3822 31.5485 19.2372 31.1257 19.2372C30.7029 19.2372 30.3465 19.3804 30.0565 19.667C29.763 19.9535 29.6163 20.3046 29.6163 20.7204C29.6163 21.1467 29.7595 21.5014 30.046 21.7844C30.3291 22.0639 30.6855 22.2037 31.1152 22.2037ZM38.0284 25.9983C37.1059 25.9983 36.3809 25.6454 35.8533 24.9396C35.3292 24.2373 35.0671 23.2764 35.0671 22.0569C35.0671 20.8445 35.3309 19.8888 35.8585 19.19C36.3861 18.4842 37.1094 18.1313 38.0284 18.1313C38.9473 18.1313 39.6689 18.4824 40.193 19.1848C40.7171 19.8836 40.9792 20.8392 40.9792 22.0517C40.9792 23.2676 40.7188 24.2285 40.1982 24.9343C39.6706 25.6437 38.9473 25.9983 38.0284 25.9983ZM38.0284 24.8924C38.528 24.8924 38.9176 24.6426 39.1972 24.1429C39.4732 23.6433 39.6112 22.9479 39.6112 22.0569C39.6112 21.1729 39.4714 20.4828 39.1919 19.9867C38.9124 19.487 38.5245 19.2372 38.0284 19.2372C37.5322 19.2372 37.1409 19.487 36.8543 19.9867C36.5713 20.4863 36.4298 21.1747 36.4298 22.0517C36.4298 22.9427 36.5713 23.638 36.8543 24.1377C37.1339 24.6408 37.5252 24.8924 38.0284 24.8924Z" fill="#EFF9FF"/>
</g>
</svg>
