<svg width="78" height="49" viewBox="0 0 78 49" fill="none" xmlns="http://www.w3.org/2000/svg">
<g opacity="0.6">
<rect width="77.8461" height="48.8461" rx="24.423" fill="white" fill-opacity="0.15"/>
<rect x="0.5" y="0.5" width="76.8461" height="47.8461" rx="23.923" stroke="#212C31" stroke-opacity="0.6"/>
<path d="M22.423 30.8461C25.9704 30.8461 28.8461 27.9704 28.8461 24.423C28.8461 20.8757 25.9704 18 22.423 18C18.8757 18 16 20.8757 16 24.423C16 27.9704 18.8757 30.8461 22.423 30.8461Z" fill="#42BDFF"/>
<path d="M25.8772 22.8233H24.5376H23.1983L22.701 23.2871L22.5015 23.4738L22.3785 23.5896L22.3262 23.6393L22.2755 23.6872L22.2532 23.7084L22.2112 23.749L22.1938 23.7657L22.1612 23.7969L22.1496 23.8087L22.1286 23.8294L22.1231 23.8351L22.0424 23.9194L22.0101 28.2198L21.5984 27.8324L21.1867 27.445V25.5193V23.5935L22.0156 22.8145L22.8444 22.0352H26.7234M24.6099 23.6435L24.708 23.6448L24.7529 23.6457L24.8398 23.6475L24.8779 23.6484L24.9508 23.6508L24.9812 23.652L25.0377 23.6545L25.0593 23.656L25.0974 23.6587L25.1087 23.6602L25.1258 23.6632V23.6651L25.1178 23.6772L25.1045 23.6923L25.0945 23.703L25.0722 23.7266L25.058 23.7411L25.0277 23.7721L25.0096 23.79L24.9311 23.8672L24.884 23.9124L24.7846 24.0073L24.7303 24.0579L24.3348 24.428L24.0281 24.4365L23.7213 24.445L23.7129 25.95L23.7045 27.4547L23.3132 27.8218L23.2073 27.9203L23.1589 27.9643L23.0665 28.0477L23.0284 28.0807L22.9919 28.1125L22.9764 28.1259L22.9471 28.1504L22.9354 28.1595L22.9144 28.1762L22.9073 28.181L22.8957 28.1886H22.8938L22.8909 28.1783L22.8889 28.1613L22.888 28.148L22.8864 28.1183L22.8854 28.0986L22.8835 28.0568L22.8828 28.0313L22.8812 27.9779L22.8802 27.947L22.8786 27.8828L22.878 27.8467L22.8767 27.7721L22.8757 27.7312L22.8744 27.6472L22.8738 27.6018L22.8728 27.5087L22.8722 27.4593L22.8709 27.358L22.8705 27.3047L22.8686 27.0834L22.868 26.9631L22.8667 26.7163L22.8663 26.5851L22.8657 26.3177V24.1679L23.1521 23.9048L23.4385 23.6417H24.2822M20.9627 22.0261H21.1454L21.2261 22.0264L21.3801 22.027L21.4447 22.0276L21.5067 22.0279L21.5345 22.0282L21.5877 22.0288L21.6103 22.0291L21.6536 22.0297L21.6714 22.03L21.7043 22.0306L21.7166 22.0312L21.7385 22.0318L21.745 22.0324L21.755 22.0333L21.7556 22.0336L21.7502 22.0442L21.7382 22.0588L21.7288 22.0697L21.7072 22.0931L21.693 22.1079L21.6627 22.1391L21.6449 22.1573L21.6068 22.1952L21.5855 22.2164L21.5409 22.2601L21.5167 22.2837L21.4147 22.3819L21.3579 22.4353L20.9455 22.8233H19.0367L18.6218 22.4298L18.2066 22.0361L19.9737 22.0282L20.3292 22.0267L20.5552 22.0261H20.6611L20.8681 22.0258L20.9627 22.0261Z" fill="#F3F9FC"/>
<path d="M36.3402 28.3059H35.0219V25.7043H32.5902V24.4036H35.0219V21.843H36.3402V24.4036H38.7777V25.7043H36.3402V28.3059ZM43.2309 28.593C42.3598 28.593 41.6371 28.3547 41.0629 27.8782C40.4887 27.4055 40.1859 26.7942 40.1547 26.0442H41.5727C41.6195 26.4348 41.7992 26.7532 42.1117 26.9993C42.4203 27.2454 42.7973 27.3684 43.2426 27.3684C43.7465 27.3684 44.1566 27.2102 44.4731 26.8938C44.7856 26.5774 44.9418 26.1692 44.9418 25.6692C44.9418 25.1614 44.7836 24.7473 44.4672 24.427C44.1547 24.1028 43.7504 23.9407 43.2543 23.9407C42.5199 23.9407 41.9867 24.2219 41.6547 24.7844H40.2836L40.7231 19.968H45.9027V21.2043H41.9184L41.7016 23.677H41.7367C42.1156 23.0872 42.7426 22.7922 43.6176 22.7922C44.4262 22.7922 45.0922 23.0598 45.6156 23.595C46.1391 24.1262 46.4008 24.804 46.4008 25.6282C46.4008 26.5071 46.1078 27.22 45.5219 27.7668C44.932 28.3176 44.1684 28.593 43.2309 28.593ZM49.3656 23.5188H50.3852C50.8188 23.5188 51.1703 23.3977 51.4398 23.1555C51.7094 22.9172 51.8441 22.6086 51.8441 22.2297C51.8441 21.8547 51.7191 21.5579 51.4691 21.3391C51.2074 21.1125 50.8441 20.9993 50.3793 20.9993C49.9457 20.9993 49.5902 21.1165 49.3129 21.3508C49.0434 21.5891 48.893 21.9055 48.8617 22.3H47.4555C47.4984 21.5383 47.7895 20.9309 48.3285 20.4778C48.8715 20.0247 49.5785 19.7981 50.4496 19.7981C51.2856 19.7981 51.9691 20.0051 52.5004 20.4192C53.0316 20.8333 53.2973 21.3684 53.2973 22.0247C53.2973 22.5442 53.1371 22.9836 52.8168 23.343C52.5004 23.6985 52.0785 23.9211 51.5512 24.011V24.0461C52.1879 24.093 52.6938 24.2981 53.0688 24.6614C53.4477 25.0286 53.6371 25.5051 53.6371 26.0911C53.6371 26.8333 53.3344 27.4368 52.7289 27.9016C52.1273 28.3625 51.3617 28.593 50.432 28.593C49.5102 28.593 48.7641 28.3606 48.1938 27.8958C47.6313 27.4348 47.3305 26.8254 47.2914 26.0676H48.7328C48.768 26.4583 48.9359 26.7688 49.2367 26.9993C49.5453 27.2375 49.9477 27.3567 50.4438 27.3567C50.932 27.3567 51.3305 27.2336 51.6391 26.9875C51.9477 26.7415 52.102 26.4231 52.102 26.0325C52.102 25.6067 51.9516 25.2708 51.6508 25.0247C51.3461 24.7786 50.932 24.6555 50.4086 24.6555H49.3656V23.5188ZM57.9848 28.593C56.9535 28.593 56.143 28.1985 55.5531 27.4094C54.9672 26.6243 54.6742 25.55 54.6742 24.1868C54.6742 22.8313 54.9691 21.7629 55.559 20.9817C56.1488 20.1926 56.9574 19.7981 57.9848 19.7981C59.0121 19.7981 59.8188 20.1907 60.4047 20.9758C60.9906 21.7571 61.2836 22.8254 61.2836 24.1809C61.2836 25.5403 60.9926 26.6145 60.4106 27.4036C59.8207 28.1965 59.0121 28.593 57.9848 28.593ZM57.9848 27.3567C58.5434 27.3567 58.9789 27.0774 59.2914 26.5188C59.6 25.9602 59.7543 25.1829 59.7543 24.1868C59.7543 23.1985 59.5981 22.427 59.2856 21.8723C58.9731 21.3137 58.5395 21.0344 57.9848 21.0344C57.4301 21.0344 56.9926 21.3137 56.6723 21.8723C56.3559 22.4309 56.1977 23.2004 56.1977 24.1809C56.1977 25.177 56.3559 25.9543 56.6723 26.5129C56.9848 27.0754 57.4223 27.3567 57.9848 27.3567Z" fill="#EFF9FF"/>
</g>
</svg>
