<svg width="100%" height="421" viewBox="0 0 390 421" fill="none" xmlns="http://www.w3.org/2000/svg">
<g opacity="0.5" filter="url(#filter0_f_25_56)">
<path d="M195.408 320.816C256.385 320.816 305.816 271.385 305.816 210.408C305.816 149.431 256.385 100 195.408 100C134.431 100 85 149.431 85 210.408C85 271.385 134.431 320.816 195.408 320.816Z" fill="url(#paint0_angular_25_56)"/>
</g>
<path d="M195.408 320.816C256.385 320.816 305.816 271.385 305.816 210.408C305.816 149.431 256.385 100 195.408 100C134.431 100 85 149.431 85 210.408C85 271.385 134.431 320.816 195.408 320.816Z" fill="#42BDFF"/>
<path d="M303.816 210.408C303.816 270.28 255.28 318.816 195.408 318.816C135.536 318.816 87 270.28 87 210.408C87 150.536 135.536 102 195.408 102C255.28 102 303.816 150.536 303.816 210.408Z" stroke="url(#paint1_linear_25_56)" stroke-opacity="0.6" stroke-width="4"/>
<path d="M254.797 182.915H231.77H208.748L200.201 190.887L196.771 194.097L194.656 196.087L193.757 196.942L192.886 197.765L192.503 198.13L191.782 198.828L191.482 199.115L190.921 199.651L190.721 199.854L190.361 200.209L190.266 200.308L188.879 201.756L188.324 275.678L181.248 269.019L174.171 262.36V229.257V196.155L188.418 182.764L202.665 169.368H269.343M233.013 197.015L234.7 197.036L235.471 197.051L236.964 197.082L237.619 197.098L238.874 197.14L239.395 197.161L240.367 197.202L240.738 197.228L241.393 197.275L241.588 197.301L241.882 197.353V197.385L241.743 197.593L241.515 197.854L241.343 198.036L240.96 198.442L240.716 198.692L240.195 199.224L239.884 199.531L238.535 200.86L237.725 201.636L236.015 203.267L235.083 204.137L228.284 210.5L223.012 210.645L217.739 210.791L217.595 236.662L217.45 262.527L210.724 268.837L208.903 270.53L208.071 271.286L206.484 272.719L205.829 273.286L205.202 273.834L204.935 274.063L204.43 274.485L204.23 274.641L203.87 274.928L203.747 275.011L203.548 275.141H203.514L203.464 274.964L203.431 274.672L203.414 274.443L203.387 273.933L203.37 273.594L203.337 272.875L203.326 272.437L203.298 271.52L203.281 270.989L203.253 269.884L203.242 269.264L203.22 267.982L203.204 267.279L203.181 265.835L203.17 265.054L203.154 263.454L203.142 262.605L203.12 260.865L203.115 259.947L203.081 256.144L203.07 254.075L203.048 249.834L203.043 247.578L203.031 242.982V206.029L207.954 201.506L212.877 196.983H227.38M170.32 169.211H173.461L174.848 169.216L177.496 169.227L178.606 169.237L179.671 169.243L180.149 169.248L181.064 169.258L181.453 169.263L182.197 169.274L182.502 169.279L183.068 169.289L183.279 169.3L183.656 169.31L183.767 169.321L183.939 169.336L183.95 169.342L183.856 169.524L183.651 169.774L183.49 169.962L183.118 170.363L182.874 170.618L182.352 171.155L182.047 171.467L181.392 172.119L181.026 172.483L180.26 173.234L179.843 173.64L178.09 175.328L177.113 176.245L170.025 182.915H137.213L130.082 176.152L122.944 169.383L153.32 169.248L159.43 169.222L163.315 169.211H165.136L168.693 169.206L170.32 169.211Z" fill="#F3F9FC"/>
<defs>
<filter id="filter0_f_25_56" x="-15" y="0" width="420.816" height="420.816" filterUnits="userSpaceOnUse" color-interpolation-filters="sRGB">
<feFlood flood-opacity="0" result="BackgroundImageFix"/>
<feBlend mode="normal" in="SourceGraphic" in2="BackgroundImageFix" result="shape"/>
<feGaussianBlur stdDeviation="50" result="effect1_foregroundBlur_25_56"/>
</filter>
<radialGradient id="paint0_angular_25_56" cx="0" cy="0" r="1" gradientUnits="userSpaceOnUse" gradientTransform="translate(195.408 210.408) rotate(90) scale(110.408 110.408)">
<stop stop-color="#42BDFF"/>
<stop offset="0.185" stop-color="#ADE2FF"/>
<stop offset="0.355" stop-color="#83D4FF"/>
<stop offset="0.515" stop-color="#42BDFF"/>
<stop offset="0.645" stop-color="#CEEEFF"/>
<stop offset="0.825" stop-color="#C3EAFF"/>
<stop offset="1" stop-color="#42BDFF"/>
</radialGradient>
<linearGradient id="paint1_linear_25_56" x1="195.408" y1="100" x2="195.408" y2="320.816" gradientUnits="userSpaceOnUse">
<stop stop-color="#7AD0FF"/>
<stop offset="1" stop-color="#ACE2FF" stop-opacity="0.5"/>
</linearGradient>
</defs>
</svg>
