<svg width="19" height="19" viewBox="0 0 19 19" fill="none" xmlns="http://www.w3.org/2000/svg">
<path d="M9.76962 18.9692C14.8679 18.9692 19.0008 14.8363 19.0008 9.73803C19.0008 4.63977 14.8679 0.506836 9.76962 0.506836C4.67136 0.506836 0.538429 4.63977 0.538429 9.73803C0.538429 14.8363 4.67136 18.9692 9.76962 18.9692Z" fill="#42BDFF"/>
<path d="M14.7346 7.43893H12.8093H10.8845L10.1699 8.10547L9.88311 8.37384L9.70631 8.54025L9.63113 8.6117L9.55828 8.68053L9.52626 8.71103L9.46594 8.76941L9.44088 8.79337L9.39401 8.83824L9.37731 8.85523L9.34714 8.88486L9.33925 8.89313L9.22324 9.01424L9.17684 15.1948L8.58519 14.6381L7.99354 14.0813V11.3136V8.54592L9.18473 7.42629L10.3759 6.30623H15.9509M12.9133 8.6178L13.0543 8.61954L13.1188 8.62085L13.2437 8.62346L13.2984 8.62477L13.4033 8.62826L13.4469 8.63L13.5281 8.63348L13.5592 8.63566L13.614 8.63958L13.6302 8.64176L13.6548 8.64612V8.64873L13.6432 8.66616L13.6242 8.68794L13.6098 8.70319L13.5778 8.73717L13.5574 8.75808L13.5137 8.80252L13.4878 8.82822L13.375 8.93931L13.3072 9.00422L13.1643 9.14058L13.0864 9.21334L12.5179 9.74527L12.0771 9.75747L11.6362 9.76967L11.6242 11.9327L11.6121 14.0953L11.0497 14.6228L10.8975 14.7644L10.8279 14.8276L10.6952 14.9474L10.6404 14.9949L10.588 15.0406L10.5657 15.0598L10.5235 15.0951L10.5068 15.1081L10.4766 15.1321L10.4664 15.1391L10.4497 15.15H10.4469L10.4427 15.1352L10.44 15.1108L10.4386 15.0916L10.4362 15.0489L10.4348 15.0206L10.4321 14.9605L10.4311 14.9239L10.4288 14.8472L10.4274 14.8028L10.4251 14.7104L10.4242 14.6586L10.4223 14.5514L10.4209 14.4926L10.4191 14.3719L10.4181 14.3065L10.4168 14.1728L10.4158 14.1018L10.414 13.9563L10.4135 13.8796L10.4107 13.5616L10.4098 13.3886L10.4079 13.034L10.4075 12.8454L10.4065 12.4611V9.37148L10.8181 8.99333L11.2297 8.61519H12.4423M7.6715 6.29316H7.93414L8.05015 6.2936L8.2715 6.29447L8.36431 6.29534L8.4534 6.29577L8.49331 6.29621L8.56988 6.29708L8.60236 6.29752L8.66454 6.29839L8.69006 6.29882L8.7374 6.2997L8.75503 6.30057L8.78658 6.30144L8.79586 6.30231L8.81025 6.30362L8.81118 6.30405L8.80329 6.3193L8.78612 6.34021L8.77266 6.35589L8.74157 6.38944L8.72115 6.41079L8.67753 6.45566L8.65201 6.4818L8.59726 6.53625L8.56663 6.56675L8.50259 6.62948L8.46779 6.66346L8.32115 6.80462L8.23948 6.88129L7.6469 7.43893H4.90351L4.30722 6.87345L3.71046 6.30754L6.25015 6.29621L6.76105 6.29403L7.08588 6.29316H7.23809L7.53553 6.29272L7.6715 6.29316Z" fill="#F3F9FC"/>
</svg>
