<svg width="46" height="46" viewBox="0 0 46 46" fill="none" xmlns="http://www.w3.org/2000/svg">
<path d="M22.8995 45.5068C35.3814 45.5068 45.4999 35.3883 45.4999 22.9065C45.4999 10.4246 35.3814 0.306152 22.8995 0.306152C10.4177 0.306152 0.29921 10.4246 0.29921 22.9065C0.29921 35.3883 10.4177 45.5068 22.8995 45.5068Z" fill="#42BDFF"/>
<path d="M35.0563 17.2791H30.3427H25.6302L23.8806 18.911L23.1785 19.568L22.7457 19.9754L22.5616 20.1504L22.3833 20.3189L22.3049 20.3935L22.1572 20.5365L22.0958 20.5951L21.9811 20.705L21.9402 20.7466L21.8663 20.8191L21.847 20.8394L21.563 21.1359L21.4494 36.2676L20.0009 34.9045L18.5524 33.5414V26.7653V19.9893L21.4687 17.2482L24.385 14.506H38.034M30.5972 20.1653L30.9425 20.1695L31.1004 20.1727L31.406 20.1791L31.5401 20.1823L31.7969 20.1909L31.9037 20.1951L32.1025 20.2037L32.1786 20.209L32.3126 20.2186L32.3524 20.2239L32.4126 20.2346V20.241L32.3842 20.2837L32.3376 20.337L32.3024 20.3743L32.224 20.4575L32.174 20.5087L32.0672 20.6175L32.0036 20.6804L31.7276 20.9524L31.5617 21.1113L31.2118 21.4452L31.0209 21.6233L29.6292 22.9256L28.5499 22.9555L27.4706 22.9853L27.4411 28.281L27.4116 33.5755L26.0346 34.8671L25.662 35.2138L25.4916 35.3684L25.1667 35.6618L25.0326 35.778L24.9042 35.89L24.8497 35.9369L24.7463 36.0233L24.7054 36.0553L24.6316 36.114L24.6066 36.131L24.5657 36.1577H24.5589L24.5486 36.1215L24.5418 36.0617L24.5384 36.0148L24.5327 35.9103L24.5293 35.8409L24.5225 35.6937L24.5202 35.6042L24.5145 35.4164L24.5111 35.3076L24.5055 35.0815L24.5032 34.9546L24.4986 34.6922L24.4952 34.5482L24.4907 34.2528L24.4884 34.0928L24.485 33.7654L24.4827 33.5915L24.4782 33.2353L24.4771 33.0475L24.4702 32.2689L24.468 31.8455L24.4634 30.9773L24.4623 30.5155L24.46 29.5747V22.0105L25.4677 21.0847L26.4754 20.1589H29.444M17.7639 14.474H18.407L18.691 14.475L19.2329 14.4772L19.4601 14.4793L19.6782 14.4804L19.7759 14.4814L19.9634 14.4836L20.0429 14.4846L20.1952 14.4868L20.2576 14.4878L20.3735 14.49L20.4167 14.4921L20.4939 14.4942L20.5167 14.4964L20.5519 14.4996L20.5542 14.5006L20.5348 14.538L20.4928 14.5892L20.4599 14.6276L20.3837 14.7097L20.3338 14.7619L20.227 14.8718L20.1645 14.9358L20.0304 15.0691L19.9554 15.1438L19.7987 15.2974L19.7135 15.3806L19.3544 15.7261L19.1545 15.9139L17.7037 17.2791H10.9872L9.52731 15.8947L8.0663 14.5092L14.2841 14.4814L15.5349 14.4761L16.3302 14.474H16.7028L17.4311 14.4729L17.7639 14.474Z" fill="#F3F9FC"/>
</svg>
