<svg width="480" height="416" viewBox="0 0 480 416" fill="none" xmlns="http://www.w3.org/2000/svg">
<path d="M308.464 141.575L223.47 141.575L215.531 155.149L212.355 160.614L210.409 164.003L209.589 165.458L208.79 166.859L208.442 167.48L207.796 168.669L207.525 169.157L207.018 170.071L206.849 170.417L206.531 171.02L206.454 171.189L205.317 173.655L276.958 299.515L237.745 276.84L172.665 164.118L198.925 118.51L321.996 118.51M282.116 165.582L285.251 165.617L289.476 165.697L290.701 165.724L293.057 165.795L294.04 165.83L295.874 165.901L296.586 165.946L297.841 166.025L298.225 166.07L298.819 166.158L298.85 166.212L298.798 166.567L298.635 167.01L298.496 167.321L298.189 168.013L297.984 168.438L297.544 169.343L297.272 169.867L296.089 172.129L295.357 173.451L293.805 176.228L292.939 177.709L286.644 188.541L267.467 189.038L317.791 277.123L311.578 287.867L309.882 290.75L309.089 292.037L307.567 294.476L306.917 295.443L306.297 296.375L306.031 296.765L305.513 297.484L305.298 297.75L304.914 298.238L304.771 298.38L304.53 298.601L304.469 298.601L304.202 298.3L303.854 297.803L303.598 297.413L303.045 296.543L302.681 295.967L301.913 294.742L301.462 293.997L299.956 291.531L298.819 289.65L296.888 286.412L296.166 285.214L293.917 281.426L292.314 278.703L289.707 274.293L288.795 272.732L284.995 266.256L278.731 255.512L271.964 243.846L235.639 180.93L244.92 165.529L271.688 165.529M139.07 118.243L144.868 118.243L152.33 118.27L154.389 118.288L156.361 118.297L158.948 118.323L161.053 118.35L161.622 118.359L162.677 118.376L163.076 118.394L163.783 118.412L163.998 118.43L164.331 118.456L164.357 118.465L164.362 118.776L164.229 119.202L164.116 119.521L163.824 120.204L163.624 120.639L163.189 121.552L162.933 122.085L162.364 123.194L162.047 123.815L161.371 125.092L161.002 125.784L159.424 128.659L158.523 130.22L151.998 141.575L91.4353 141.575L51.7963 118.536L118.981 118.261L126.142 118.243L129.502 118.243L136.063 118.235L139.07 118.243Z" fill="url(#paint0_linear_25_11)"/>
<path d="M307.755 142.804L222.76 142.804L214.821 156.377L211.646 161.842L209.699 165.231L208.88 166.686L208.081 168.088L207.733 168.709L207.087 169.897L206.816 170.385L206.309 171.299L206.14 171.645L205.822 172.248L205.745 172.417L204.608 174.883L276.249 300.743L237.035 278.068L171.956 165.346L198.216 119.738L321.287 119.738M281.407 166.81L284.542 166.846L288.767 166.925L289.992 166.952L292.348 167.023L293.331 167.058L295.165 167.129L295.877 167.174L297.132 167.254L297.516 167.298L298.11 167.387L298.141 167.44L298.089 167.795L297.925 168.238L297.787 168.549L297.48 169.241L297.275 169.667L296.834 170.572L296.563 171.095L295.38 173.357L294.647 174.679L293.095 177.456L292.23 178.937L285.935 189.77L266.758 190.266L317.082 278.352L310.869 289.095L309.173 291.978L308.379 293.265L306.858 295.704L306.208 296.671L305.588 297.603L305.322 297.993L304.804 298.712L304.589 298.978L304.205 299.466L304.062 299.608L303.821 299.83L303.759 299.83L303.493 299.528L303.145 299.031L302.889 298.641L302.336 297.771L301.972 297.195L301.204 295.971L300.753 295.225L299.247 292.759L298.11 290.878L296.179 287.64L295.457 286.443L293.208 282.654L291.605 279.931L288.998 275.522L288.086 273.96L284.286 267.484L278.021 256.741L271.255 245.075L234.93 182.158L244.211 166.757L270.979 166.757M138.361 119.472L144.159 119.472L151.621 119.498L153.68 119.516L155.652 119.525L158.239 119.551L160.344 119.578L160.913 119.587L161.968 119.605L162.367 119.622L163.074 119.64L163.289 119.658L163.622 119.685L163.648 119.693L163.653 120.004L163.52 120.43L163.407 120.749L163.115 121.432L162.915 121.867L162.48 122.781L162.224 123.313L161.655 124.422L161.338 125.043L160.662 126.32L160.293 127.012L158.715 129.887L157.814 131.448L151.288 142.804L90.7262 142.804L51.0872 119.764L118.272 119.489L125.433 119.472L128.793 119.472L135.354 119.463L138.361 119.472Z" fill="url(#paint1_linear_25_11)"/>
<path d="M307.045 144.032L222.051 144.032L214.112 157.605L210.937 163.07L208.99 166.459L208.171 167.914L207.372 169.316L207.023 169.937L206.378 171.126L206.107 171.613L205.6 172.527L205.431 172.873L205.113 173.476L205.036 173.645L203.899 176.111L275.54 301.972L236.326 279.296L171.246 166.574L197.507 120.966L320.578 120.966M280.698 168.038L283.833 168.074L288.058 168.154L289.282 168.18L291.639 168.251L292.622 168.287L294.456 168.358L295.168 168.402L296.422 168.482L296.807 168.526L297.401 168.615L297.431 168.668L297.38 169.023L297.216 169.467L297.078 169.777L296.771 170.469L296.566 170.895L296.125 171.8L295.854 172.323L294.671 174.585L293.938 175.907L292.386 178.684L291.521 180.166L285.226 190.998L266.049 191.495L316.373 279.58L310.16 290.323L308.464 293.207L307.67 294.493L306.149 296.933L305.499 297.9L304.879 298.831L304.612 299.221L304.095 299.94L303.88 300.206L303.496 300.694L303.352 300.836L303.112 301.058L303.05 301.058L302.784 300.756L302.436 300.259L302.18 299.869L301.626 299L301.263 298.423L300.494 297.199L300.044 296.454L298.538 293.987L297.401 292.106L295.47 288.868L294.748 287.671L292.499 283.883L290.896 281.159L288.289 276.75L287.377 275.188L283.577 268.712L277.312 257.969L270.546 246.303L234.221 183.386L243.502 167.985L270.27 167.985M137.651 120.7L143.45 120.7L150.912 120.726L152.971 120.744L154.943 120.753L157.53 120.78L159.635 120.806L160.204 120.815L161.259 120.833L161.658 120.851L162.365 120.868L162.58 120.886L162.913 120.913L162.939 120.922L162.944 121.232L162.811 121.658L162.698 121.977L162.406 122.66L162.206 123.095L161.771 124.009L161.515 124.541L160.946 125.65L160.629 126.271L159.953 127.549L159.584 128.241L158.006 131.115L157.105 132.676L150.579 144.032L90.0171 144.032L50.3781 120.993L117.563 120.718L124.724 120.7L128.084 120.7L134.645 120.691L137.651 120.7Z" fill="url(#paint2_linear_25_11)"/>
<path d="M306.336 145.26L221.342 145.26L213.403 158.834L210.228 164.298L208.281 167.687L207.462 169.142L206.663 170.544L206.314 171.165L205.669 172.354L205.398 172.842L204.89 173.755L204.721 174.101L204.404 174.705L204.327 174.873L203.19 177.34L274.831 303.2L235.617 280.524L170.537 167.803L196.798 122.194L319.869 122.194M279.989 169.266L283.124 169.302L287.349 169.382L288.573 169.408L290.929 169.479L291.913 169.515L293.747 169.586L294.458 169.63L295.713 169.71L296.098 169.754L296.692 169.843L296.722 169.896L296.671 170.251L296.507 170.695L296.369 171.005L296.062 171.697L295.857 172.123L295.416 173.028L295.145 173.551L293.962 175.814L293.229 177.135L291.677 179.912L290.812 181.394L284.517 192.226L265.34 192.723L315.663 280.808L309.45 291.552L307.755 294.435L306.961 295.721L305.44 298.161L304.789 299.128L304.17 300.059L303.903 300.45L303.386 301.168L303.171 301.434L302.787 301.922L302.643 302.064L302.403 302.286L302.341 302.286L302.075 301.984L301.727 301.488L301.47 301.097L300.917 300.228L300.554 299.651L299.785 298.427L299.335 297.682L297.829 295.215L296.692 293.335L294.761 290.097L294.038 288.899L291.79 285.111L290.187 282.387L287.58 277.978L286.668 276.417L282.867 269.94L276.603 259.197L269.837 247.531L233.512 184.614L242.793 169.213L269.561 169.213M136.942 121.928L142.74 121.928L150.203 121.955L152.262 121.972L154.234 121.981L156.821 122.008L158.926 122.034L159.494 122.043L160.55 122.061L160.949 122.079L161.656 122.097L161.871 122.114L162.204 122.141L162.23 122.15L162.235 122.46L162.101 122.886L161.989 123.205L161.697 123.889L161.497 124.323L161.062 125.237L160.806 125.769L160.237 126.878L159.92 127.499L159.243 128.777L158.875 129.469L157.297 132.343L156.396 133.905L149.87 145.26L89.308 145.26L49.669 122.221L116.854 121.946L124.014 121.928L127.374 121.928L133.936 121.919L136.942 121.928Z" fill="url(#paint3_linear_25_11)"/>
<path d="M305.627 146.488L220.633 146.488L212.694 160.062L209.518 165.527L207.572 168.916L206.753 170.37L205.954 171.772L205.605 172.393L204.96 173.582L204.688 174.07L204.181 174.984L204.012 175.33L203.695 175.933L203.618 176.101L202.481 178.568L274.122 304.428L234.908 281.752L169.828 169.031L196.089 123.422L319.159 123.422M279.28 170.495L282.414 170.53L286.64 170.61L287.864 170.637L290.22 170.708L291.204 170.743L293.037 170.814L293.749 170.858L295.004 170.938L295.388 170.983L295.983 171.071L296.013 171.125L295.962 171.479L295.798 171.923L295.66 172.233L295.353 172.925L295.148 173.351L294.707 174.256L294.436 174.78L293.253 177.042L292.52 178.364L290.968 181.14L290.103 182.622L283.808 193.454L264.631 193.951L314.954 282.036L308.741 292.78L307.046 295.663L306.252 296.949L304.731 299.389L304.08 300.356L303.461 301.288L303.194 301.678L302.677 302.396L302.462 302.663L302.078 303.151L301.934 303.292L301.694 303.514L301.632 303.514L301.366 303.213L301.017 302.716L300.761 302.325L300.208 301.456L299.845 300.879L299.076 299.655L298.625 298.91L297.12 296.444L295.983 294.563L294.052 291.325L293.329 290.127L291.081 286.339L289.478 283.615L286.871 279.206L285.959 277.645L282.158 271.169L275.894 260.425L269.128 248.759L232.803 185.842L242.084 170.441L268.851 170.441M136.233 123.156L142.031 123.156L149.494 123.183L151.553 123.201L153.525 123.209L156.112 123.236L158.217 123.263L158.785 123.272L159.84 123.289L160.24 123.307L160.947 123.325L161.162 123.343L161.495 123.369L161.52 123.378L161.526 123.688L161.392 124.114L161.28 124.434L160.988 125.117L160.788 125.552L160.353 126.465L160.097 126.998L159.528 128.107L159.21 128.728L158.534 130.005L158.166 130.697L156.588 133.571L155.687 135.133L149.161 146.488L88.5989 146.488L48.9599 123.449L116.145 123.174L123.305 123.156L126.665 123.156L133.227 123.147L136.233 123.156Z" fill="url(#paint4_linear_25_11)"/>
<path d="M304.918 147.717L219.924 147.717L211.985 161.29L208.809 166.755L206.863 170.144L206.044 171.599L205.244 173L204.896 173.621L204.251 174.81L203.979 175.298L203.472 176.212L203.303 176.558L202.986 177.161L202.909 177.33L201.772 179.796L273.413 305.656L234.199 282.981L169.119 170.259L195.38 124.651L318.45 124.651M278.571 171.723L281.705 171.758L285.931 171.838L287.155 171.865L289.511 171.936L290.495 171.971L292.328 172.042L293.04 172.087L294.295 172.166L294.679 172.211L295.273 172.3L295.304 172.353L295.253 172.708L295.089 173.151L294.951 173.462L294.643 174.154L294.439 174.579L293.998 175.484L293.727 176.008L292.543 178.27L291.811 179.592L290.259 182.369L289.393 183.85L283.099 194.682L263.922 195.179L314.245 283.265L308.032 294.008L306.337 296.891L305.543 298.178L304.022 300.617L303.371 301.584L302.752 302.516L302.485 302.906L301.968 303.625L301.753 303.891L301.369 304.379L301.225 304.521L300.984 304.742L300.923 304.742L300.657 304.441L300.308 303.944L300.052 303.554L299.499 302.684L299.135 302.108L298.367 300.883L297.916 300.138L296.411 297.672L295.273 295.791L293.342 292.553L292.62 291.355L290.372 287.567L288.769 284.844L286.161 280.434L285.25 278.873L281.449 272.397L275.185 261.653L268.419 249.987L232.094 187.071L241.375 171.67L268.142 171.67M135.524 124.384L141.322 124.384L148.785 124.411L150.844 124.429L152.816 124.438L155.403 124.464L157.508 124.491L158.076 124.5L159.131 124.517L159.531 124.535L160.238 124.553L160.453 124.571L160.786 124.597L160.811 124.606L160.816 124.917L160.683 125.343L160.571 125.662L160.279 126.345L160.079 126.78L159.644 127.693L159.387 128.226L158.819 129.335L158.501 129.956L157.825 131.233L157.456 131.925L155.879 134.8L154.977 136.361L148.452 147.717L87.8897 147.717L48.2508 124.677L115.436 124.402L122.596 124.384L125.956 124.384L132.518 124.376L135.524 124.384Z" fill="url(#paint5_linear_25_11)"/>
<path d="M304.209 148.945L219.215 148.945L211.276 162.518L208.1 167.983L206.154 171.372L205.334 172.827L204.535 174.229L204.187 174.85L203.542 176.038L203.27 176.526L202.763 177.44L202.594 177.786L202.277 178.389L202.2 178.558L201.063 181.024L272.704 306.884L233.49 284.209L168.41 171.487L194.67 125.879L317.741 125.879M277.862 172.951L280.996 172.987L285.222 173.066L286.446 173.093L288.802 173.164L289.786 173.199L291.619 173.27L292.331 173.315L293.586 173.395L293.97 173.439L294.564 173.528L294.595 173.581L294.544 173.936L294.38 174.379L294.242 174.69L293.934 175.382L293.729 175.808L293.289 176.713L293.017 177.236L291.834 179.498L291.102 180.82L289.55 183.597L288.684 185.078L282.389 195.911L263.213 196.407L313.536 284.493L307.323 295.236L305.628 298.119L304.834 299.406L303.313 301.845L302.662 302.812L302.042 303.744L301.776 304.134L301.259 304.853L301.044 305.119L300.659 305.607L300.516 305.749L300.275 305.971L300.214 305.971L299.948 305.669L299.599 305.172L299.343 304.782L298.79 303.912L298.426 303.336L297.658 302.112L297.207 301.366L295.701 298.9L294.564 297.019L292.633 293.781L291.911 292.584L289.663 288.795L288.059 286.072L285.452 281.663L284.541 280.101L280.74 273.625L274.476 262.882L267.71 251.216L231.385 188.299L240.666 172.898L267.433 172.898M134.815 125.613L140.613 125.613L148.076 125.639L150.135 125.657L152.107 125.666L154.693 125.692L156.799 125.719L157.367 125.728L158.422 125.746L158.822 125.763L159.529 125.781L159.744 125.799L160.077 125.826L160.102 125.834L160.107 126.145L159.974 126.571L159.861 126.89L159.57 127.573L159.37 128.008L158.934 128.922L158.678 129.454L158.11 130.563L157.792 131.184L157.116 132.461L156.747 133.153L155.17 136.028L154.268 137.589L147.743 148.945L87.1806 148.945L47.5417 125.905L114.727 125.63L121.887 125.613L125.247 125.613L131.808 125.604L134.815 125.613Z" fill="url(#paint6_linear_25_11)"/>
<path d="M303.5 150.173L218.506 150.173L210.567 163.746L207.391 169.211L205.445 172.6L204.625 174.055L203.826 175.457L203.478 176.078L202.833 177.267L202.561 177.754L202.054 178.668L201.885 179.014L201.567 179.618L201.491 179.786L200.354 182.252L271.995 308.113L232.781 285.437L167.701 172.715L193.961 127.107L317.032 127.107M277.152 174.179L280.287 174.215L284.513 174.295L285.737 174.321L288.093 174.392L289.076 174.428L290.91 174.499L291.622 174.543L292.877 174.623L293.261 174.667L293.855 174.756L293.886 174.809L293.835 175.164L293.671 175.608L293.533 175.918L293.225 176.61L293.02 177.036L292.58 177.941L292.308 178.464L291.125 180.726L290.393 182.048L288.841 184.825L287.975 186.307L281.68 197.139L262.504 197.636L312.827 285.721L306.614 296.464L304.919 299.348L304.125 300.634L302.604 303.074L301.953 304.041L301.333 304.972L301.067 305.362L300.55 306.081L300.335 306.347L299.95 306.835L299.807 306.977L299.566 307.199L299.505 307.199L299.238 306.897L298.89 306.4L298.634 306.01L298.081 305.141L297.717 304.564L296.949 303.34L296.498 302.595L294.992 300.128L293.855 298.248L291.924 295.009L291.202 293.812L288.954 290.024L287.35 287.3L284.743 282.891L283.832 281.33L280.031 274.853L273.767 264.11L267.001 252.444L230.676 189.527L239.957 174.126L266.724 174.126M134.106 126.841L139.904 126.841L147.367 126.867L149.426 126.885L151.398 126.894L153.984 126.921L156.089 126.947L156.658 126.956L157.713 126.974L158.113 126.992L158.819 127.009L159.035 127.027L159.368 127.054L159.393 127.063L159.398 127.373L159.265 127.799L159.152 128.118L158.86 128.801L158.661 129.236L158.225 130.15L157.969 130.682L157.401 131.791L157.083 132.412L156.407 133.69L156.038 134.382L154.461 137.256L153.559 138.817L147.034 150.173L86.4715 150.173L46.8326 127.134L114.018 126.859L121.178 126.841L124.538 126.841L131.099 126.832L134.106 126.841Z" fill="url(#paint7_linear_25_11)"/>
<path d="M302.791 151.401L217.797 151.401L209.858 164.975L206.682 170.439L204.736 173.828L203.916 175.283L203.117 176.685L202.769 177.306L202.123 178.495L201.852 178.983L201.345 179.896L201.176 180.242L200.858 180.846L200.782 181.014L199.644 183.481L271.286 309.341L232.072 286.665L166.992 173.944L193.252 128.335L316.323 128.335M276.443 175.407L279.578 175.443L283.804 175.523L285.028 175.549L287.384 175.62L288.367 175.656L290.201 175.727L290.913 175.771L292.168 175.851L292.552 175.895L293.146 175.984L293.177 176.037L293.126 176.392L292.962 176.836L292.823 177.146L292.516 177.838L292.311 178.264L291.871 179.169L291.599 179.692L290.416 181.955L289.684 183.277L288.132 186.053L287.266 187.535L280.971 198.367L261.795 198.864L312.118 286.949L305.905 297.693L304.21 300.576L303.416 301.862L301.894 304.302L301.244 305.269L300.624 306.2L300.358 306.591L299.841 307.309L299.625 307.575L299.241 308.063L299.098 308.205L298.857 308.427L298.796 308.427L298.529 308.125L298.181 307.629L297.925 307.238L297.372 306.369L297.008 305.792L296.24 304.568L295.789 303.823L294.283 301.356L293.146 299.476L291.215 296.238L290.493 295.04L288.244 291.252L286.641 288.528L284.034 284.119L283.122 282.558L279.322 276.082L273.058 265.338L266.292 253.672L229.967 190.755L239.248 175.354L266.015 175.354M133.397 128.069L139.195 128.069L146.658 128.096L148.717 128.113L150.689 128.122L153.275 128.149L155.38 128.175L155.949 128.184L157.004 128.202L157.404 128.22L158.11 128.238L158.325 128.255L158.658 128.282L158.684 128.291L158.689 128.601L158.556 129.027L158.443 129.347L158.151 130.03L157.952 130.464L157.516 131.378L157.26 131.91L156.692 133.019L156.374 133.64L155.698 134.918L155.329 135.61L153.752 138.484L152.85 140.046L146.325 151.401L85.7624 151.401L46.1235 128.362L113.308 128.087L120.469 128.069L123.829 128.069L130.39 128.06L133.397 128.069Z" fill="url(#paint8_linear_25_11)"/>
<path d="M302.082 152.629L217.088 152.629L209.149 166.203L205.973 171.668L204.027 175.057L203.207 176.511L202.408 177.913L202.06 178.534L201.414 179.723L201.143 180.211L200.636 181.125L200.467 181.471L200.149 182.074L200.072 182.242L198.935 184.709L270.576 310.569L231.363 287.893L166.283 175.172L192.543 129.563L315.614 129.563M275.734 176.636L278.869 176.671L283.095 176.751L284.319 176.778L286.675 176.849L287.658 176.884L289.492 176.955L290.204 176.999L291.459 177.079L291.843 177.124L292.437 177.212L292.468 177.266L292.417 177.62L292.253 178.064L292.114 178.374L291.807 179.066L291.602 179.492L291.162 180.397L290.89 180.921L289.707 183.183L288.975 184.505L287.423 187.281L286.557 188.763L280.262 199.595L261.085 200.092L311.409 288.177L305.196 298.921L303.5 301.804L302.707 303.09L301.185 305.53L300.535 306.497L299.915 307.429L299.649 307.819L299.131 308.537L298.916 308.804L298.532 309.292L298.389 309.433L298.148 309.655L298.087 309.655L297.82 309.354L297.472 308.857L297.216 308.467L296.663 307.597L296.299 307.02L295.531 305.796L295.08 305.051L293.574 302.585L292.437 300.704L290.506 297.466L289.784 296.268L287.535 292.48L285.932 289.756L283.325 285.347L282.413 283.786L278.613 277.31L272.349 266.566L265.582 254.9L229.257 191.983L238.538 176.582L265.306 176.582M132.688 129.297L138.486 129.297L145.949 129.324L148.008 129.342L149.98 129.35L152.566 129.377L154.671 129.404L155.24 129.413L156.295 129.43L156.694 129.448L157.401 129.466L157.616 129.484L157.949 129.51L157.975 129.519L157.98 129.83L157.847 130.255L157.734 130.575L157.442 131.258L157.242 131.693L156.807 132.606L156.551 133.139L155.982 134.248L155.665 134.869L154.989 136.146L154.62 136.838L153.042 139.712L152.141 141.274L145.616 152.629L85.0533 152.629L45.4144 129.59L112.599 129.315L119.76 129.297L123.12 129.297L129.681 129.288L132.688 129.297Z" fill="url(#paint9_linear_25_11)"/>
<path d="M301.373 153.858L216.379 153.858L208.439 167.431L205.264 172.896L203.317 176.285L202.498 177.74L201.699 179.141L201.351 179.762L200.705 180.951L200.434 181.439L199.927 182.353L199.758 182.699L199.44 183.302L199.363 183.471L198.226 185.937L269.867 311.797L230.653 289.122L165.574 176.4L191.834 130.792L314.905 130.792M275.025 177.864L278.16 177.899L282.385 177.979L283.61 178.006L285.966 178.077L286.949 178.112L288.783 178.183L289.495 178.228L290.75 178.307L291.134 178.352L291.728 178.441L291.759 178.494L291.707 178.849L291.544 179.292L291.405 179.603L291.098 180.295L290.893 180.721L290.453 181.625L290.181 182.149L288.998 184.411L288.265 185.733L286.713 188.51L285.848 189.991L279.553 200.823L260.376 201.32L310.7 289.406L304.487 300.149L302.791 303.032L301.997 304.319L300.476 306.758L299.826 307.725L299.206 308.657L298.94 309.047L298.422 309.766L298.207 310.032L297.823 310.52L297.68 310.662L297.439 310.884L297.377 310.884L297.111 310.582L296.763 310.085L296.507 309.695L295.954 308.825L295.59 308.249L294.822 307.024L294.371 306.279L292.865 303.813L291.728 301.932L289.797 298.694L289.075 297.496L286.826 293.708L285.223 290.985L282.616 286.576L281.704 285.014L277.904 278.538L271.64 267.794L264.873 256.128L228.548 193.212L237.829 177.811L264.597 177.811M131.979 130.525L137.777 130.525L145.239 130.552L147.298 130.57L149.27 130.579L151.857 130.605L153.962 130.632L154.531 130.641L155.586 130.659L155.985 130.676L156.692 130.694L156.907 130.712L157.24 130.738L157.266 130.747L157.271 131.058L157.138 131.484L157.025 131.803L156.733 132.486L156.533 132.921L156.098 133.835L155.842 134.367L155.273 135.476L154.956 136.097L154.28 137.374L153.911 138.066L152.333 140.941L151.432 142.502L144.906 153.858L84.3442 153.858L44.7053 130.818L111.89 130.543L119.051 130.525L122.411 130.525L128.972 130.517L131.979 130.525Z" fill="url(#paint10_linear_25_11)"/>
<path d="M300.663 155.086L215.669 155.086L207.73 168.659L204.555 174.124L202.608 177.513L201.789 178.968L200.99 180.37L200.642 180.991L199.996 182.179L199.725 182.667L199.218 183.581L199.049 183.927L198.731 184.53L198.654 184.699L197.517 187.165L269.158 313.025L229.944 290.35L164.865 177.628L191.125 132.02L314.196 132.02M274.316 179.092L277.451 179.128L281.676 179.207L282.9 179.234L285.257 179.305L286.24 179.34L288.074 179.411L288.786 179.456L290.041 179.536L290.425 179.58L291.019 179.669L291.05 179.722L290.998 180.077L290.834 180.52L290.696 180.831L290.389 181.523L290.184 181.949L289.743 182.854L289.472 183.377L288.289 185.639L287.556 186.961L286.004 189.738L285.139 191.219L278.844 202.052L259.667 202.548L309.991 290.634L303.778 301.377L302.082 304.26L301.288 305.547L299.767 307.986L299.117 308.953L298.497 309.885L298.231 310.275L297.713 310.994L297.498 311.26L297.114 311.748L296.971 311.89L296.73 312.112L296.668 312.112L296.402 311.81L296.054 311.313L295.798 310.923L295.244 310.054L294.881 309.477L294.112 308.253L293.662 307.507L292.156 305.041L291.019 303.16L289.088 299.922L288.366 298.725L286.117 294.936L284.514 292.213L281.907 287.804L280.995 286.242L277.195 279.766L270.93 269.023L264.164 257.357L227.839 194.44L237.12 179.039L263.888 179.039M131.27 131.754L137.068 131.754L144.53 131.78L146.589 131.798L148.561 131.807L151.148 131.833L153.253 131.86L153.822 131.869L154.877 131.887L155.276 131.904L155.983 131.922L156.198 131.94L156.531 131.967L156.557 131.975L156.562 132.286L156.429 132.712L156.316 133.031L156.024 133.714L155.824 134.149L155.389 135.063L155.133 135.595L154.564 136.704L154.247 137.325L153.571 138.602L153.202 139.294L151.624 142.169L150.723 143.73L144.197 155.086L83.6351 155.086L43.9961 132.046L111.181 131.771L118.342 131.754L121.702 131.754L128.263 131.745L131.27 131.754Z" fill="url(#paint11_linear_25_11)"/>
<path d="M299.954 156.314L214.96 156.314L207.021 169.887L203.846 175.352L201.899 178.741L201.08 180.196L200.281 181.598L199.932 182.219L199.287 183.408L199.016 183.896L198.509 184.809L198.34 185.155L198.022 185.759L197.945 185.927L196.808 188.393L268.449 314.254L229.235 291.578L164.155 178.856L190.416 133.248L313.487 133.248M273.607 180.32L276.742 180.356L280.967 180.436L282.191 180.462L284.548 180.533L285.531 180.569L287.365 180.64L288.077 180.684L289.331 180.764L289.716 180.808L290.31 180.897L290.34 180.95L290.289 181.305L290.125 181.749L289.987 182.059L289.68 182.751L289.475 183.177L289.034 184.082L288.763 184.605L287.58 186.867L286.847 188.189L285.295 190.966L284.43 192.448L278.135 203.28L258.958 203.777L309.282 291.862L303.069 302.605L301.373 305.489L300.579 306.775L299.058 309.215L298.408 310.182L297.788 311.113L297.521 311.503L297.004 312.222L296.789 312.488L296.405 312.976L296.261 313.118L296.021 313.34L295.959 313.34L295.693 313.038L295.345 312.541L295.089 312.151L294.535 311.282L294.172 310.705L293.403 309.481L292.953 308.736L291.447 306.269L290.31 304.389L288.379 301.15L287.657 299.953L285.408 296.165L283.805 293.441L281.198 289.032L280.286 287.471L276.485 280.994L270.221 270.251L263.455 258.585L227.13 195.668L236.411 180.267L263.179 180.267M130.56 132.982L136.358 132.982L143.821 133.008L145.88 133.026L147.852 133.035L150.439 133.062L152.544 133.088L153.112 133.097L154.168 133.115L154.567 133.133L155.274 133.15L155.489 133.168L155.822 133.195L155.848 133.204L155.853 133.514L155.72 133.94L155.607 134.259L155.315 134.942L155.115 135.377L154.68 136.291L154.424 136.823L153.855 137.932L153.538 138.553L152.861 139.831L152.493 140.523L150.915 143.397L150.014 144.958L143.488 156.314L82.926 156.314L43.287 133.275L110.472 133L117.633 132.982L120.993 132.982L127.554 132.973L130.56 132.982Z" fill="url(#paint12_linear_25_11)"/>
<path d="M299.245 157.542L214.251 157.542L206.312 171.116L203.137 176.58L201.19 179.969L200.371 181.424L199.572 182.826L199.223 183.447L198.578 184.636L198.307 185.124L197.799 186.037L197.63 186.383L197.313 186.987L197.236 187.155L196.099 189.622L267.74 315.482L228.526 292.806L163.446 180.085L189.707 134.476L312.778 134.476M272.898 181.548L276.032 181.584L280.258 181.664L281.482 181.69L283.838 181.761L284.822 181.797L286.655 181.868L287.367 181.912L288.622 181.992L289.006 182.036L289.601 182.125L289.631 182.178L289.58 182.533L289.416 182.977L289.278 183.287L288.971 183.979L288.766 184.405L288.325 185.31L288.054 185.833L286.871 188.096L286.138 189.418L284.586 192.194L283.721 193.676L277.426 204.508L258.249 205.005L308.572 293.09L302.359 303.834L300.664 306.717L299.87 308.003L298.349 310.443L297.698 311.41L297.079 312.341L296.812 312.732L296.295 313.45L296.08 313.716L295.696 314.204L295.552 314.346L295.312 314.568L295.25 314.568L294.984 314.266L294.635 313.77L294.379 313.379L293.826 312.51L293.463 311.933L292.694 310.709L292.244 309.964L290.738 307.498L289.601 305.617L287.67 302.379L286.947 301.181L284.699 297.393L283.096 294.669L280.489 290.26L279.577 288.699L275.776 282.223L269.512 271.479L262.746 259.813L226.421 196.896L235.702 181.495L262.47 181.495M129.851 134.21L135.649 134.21L143.112 134.237L145.171 134.254L147.143 134.263L149.73 134.29L151.835 134.317L152.403 134.325L153.458 134.343L153.858 134.361L154.565 134.379L154.78 134.396L155.113 134.423L155.138 134.432L155.144 134.742L155.01 135.168L154.898 135.488L154.606 136.171L154.406 136.605L153.971 137.519L153.715 138.051L153.146 139.16L152.828 139.781L152.152 141.059L151.784 141.751L150.206 144.625L149.305 146.187L142.779 157.542L82.2169 157.542L42.5779 134.503L109.763 134.228L116.923 134.21L120.283 134.21L126.845 134.201L129.851 134.21Z" fill="url(#paint13_linear_25_11)"/>
<mask id="mask0_25_11" style="mask-type:alpha" maskUnits="userSpaceOnUse" x="42" y="118" width="280" height="198">
<path d="M308.463 141.575L223.469 141.575L215.53 155.149L212.355 160.613L210.408 164.002L209.589 165.457L208.79 166.859L208.442 167.48L207.796 168.669L207.525 169.157L207.018 170.07L206.849 170.416L206.531 171.02L206.454 171.188L205.317 173.655L276.958 299.515L237.744 276.839L172.665 164.118L198.925 118.509L321.996 118.509M282.116 165.581L285.251 165.617L289.476 165.697L290.7 165.723L293.057 165.794L294.04 165.83L295.874 165.901L296.586 165.945L297.841 166.025L298.225 166.069L298.819 166.158L298.85 166.211L298.798 166.566L298.634 167.01L298.496 167.32L298.189 168.012L297.984 168.438L297.543 169.343L297.272 169.866L296.089 172.129L295.356 173.451L293.804 176.227L292.939 177.709L286.644 188.541L267.467 189.038L317.791 277.123L311.578 287.867L309.882 290.75L309.088 292.036L307.567 294.476L306.917 295.443L306.297 296.374L306.031 296.765L305.513 297.483L305.298 297.749L304.914 298.237L304.771 298.379L304.53 298.601L304.468 298.601L304.202 298.299L303.854 297.803L303.598 297.412L303.044 296.543L302.681 295.966L301.912 294.742L301.462 293.997L299.956 291.531L298.819 289.65L296.888 286.412L296.166 285.214L293.917 281.426L292.314 278.702L289.707 274.293L288.795 272.732L284.995 266.256L278.73 255.512L271.964 243.846L235.639 180.929L244.92 165.528L271.688 165.528M139.07 118.243L144.868 118.243L152.33 118.27L154.389 118.287L156.361 118.296L158.948 118.323L161.053 118.349L161.622 118.358L162.677 118.376L163.076 118.394L163.783 118.412L163.998 118.429L164.331 118.456L164.357 118.465L164.362 118.775L164.229 119.201L164.116 119.521L163.824 120.204L163.624 120.638L163.189 121.552L162.933 122.084L162.364 123.193L162.047 123.814L161.371 125.092L161.002 125.784L159.424 128.658L158.523 130.22L151.997 141.575L91.4351 141.575L51.7961 118.536L118.981 118.261L126.142 118.243L129.502 118.243L136.063 118.234L139.07 118.243Z" fill="url(#paint14_linear_25_11)"/>
<path d="M307.754 142.803L222.76 142.803L214.821 156.377L211.646 161.842L209.699 165.231L208.88 166.685L208.081 168.087L207.732 168.708L207.087 169.897L206.816 170.385L206.309 171.299L206.14 171.645L205.822 172.248L205.745 172.416L204.608 174.883L276.249 300.743L237.035 278.067L171.955 165.346L198.216 119.737L321.287 119.737M281.407 166.81L284.542 166.845L288.767 166.925L289.991 166.952L292.348 167.023L293.331 167.058L295.165 167.129L295.877 167.173L297.131 167.253L297.516 167.298L298.11 167.386L298.14 167.44L298.089 167.794L297.925 168.238L297.787 168.549L297.48 169.24L297.275 169.666L296.834 170.571L296.563 171.095L295.38 173.357L294.647 174.679L293.095 177.456L292.23 178.937L285.935 189.769L266.758 190.266L317.082 278.351L310.869 289.095L309.173 291.978L308.379 293.264L306.858 295.704L306.208 296.671L305.588 297.603L305.321 297.993L304.804 298.712L304.589 298.978L304.205 299.466L304.061 299.608L303.821 299.829L303.759 299.829L303.493 299.528L303.145 299.031L302.889 298.641L302.335 297.771L301.972 297.194L301.203 295.97L300.753 295.225L299.247 292.759L298.11 290.878L296.179 287.64L295.457 286.442L293.208 282.654L291.605 279.93L288.998 275.521L288.086 273.96L284.285 267.484L278.021 256.74L271.255 245.074L234.93 182.157L244.211 166.756L270.979 166.756M138.36 119.471L144.158 119.471L151.621 119.498L153.68 119.516L155.652 119.524L158.239 119.551L160.344 119.578L160.912 119.587L161.968 119.604L162.367 119.622L163.074 119.64L163.289 119.658L163.622 119.684L163.648 119.693L163.653 120.004L163.52 120.429L163.407 120.749L163.115 121.432L162.915 121.867L162.48 122.78L162.224 123.313L161.655 124.422L161.338 125.043L160.661 126.32L160.293 127.012L158.715 129.886L157.814 131.448L151.288 142.803L90.726 142.803L51.087 119.764L118.272 119.489L125.433 119.471L128.793 119.471L135.354 119.462L138.36 119.471Z" fill="url(#paint15_linear_25_11)"/>
<path d="M307.045 144.032L222.051 144.032L214.112 157.605L210.937 163.07L208.99 166.459L208.171 167.914L207.372 169.315L207.023 169.936L206.378 171.125L206.107 171.613L205.599 172.527L205.43 172.873L205.113 173.476L205.036 173.645L203.899 176.111L275.54 301.971L236.326 279.296L171.246 166.574L197.507 120.966L320.578 120.966M280.698 168.038L283.832 168.073L288.058 168.153L289.282 168.18L291.638 168.251L292.622 168.286L294.455 168.357L295.167 168.402L296.422 168.481L296.806 168.526L297.401 168.615L297.431 168.668L297.38 169.023L297.216 169.466L297.078 169.777L296.771 170.469L296.566 170.895L296.125 171.799L295.854 172.323L294.671 174.585L293.938 175.907L292.386 178.684L291.521 180.165L285.226 190.997L266.049 191.494L316.372 279.58L310.159 290.323L308.464 293.206L307.67 294.493L306.149 296.932L305.498 297.899L304.879 298.831L304.612 299.221L304.095 299.94L303.88 300.206L303.496 300.694L303.352 300.836L303.112 301.058L303.05 301.058L302.784 300.756L302.436 300.259L302.179 299.869L301.626 298.999L301.263 298.423L300.494 297.198L300.044 296.453L298.538 293.987L297.401 292.106L295.47 288.868L294.747 287.67L292.499 283.882L290.896 281.159L288.289 276.75L287.377 275.188L283.576 268.712L277.312 257.969L270.546 246.302L234.221 183.386L243.502 167.985L270.27 167.985M137.651 120.699L143.449 120.699L150.912 120.726L152.971 120.744L154.943 120.753L157.53 120.779L159.635 120.806L160.203 120.815L161.258 120.833L161.658 120.85L162.365 120.868L162.58 120.886L162.913 120.912L162.938 120.921L162.944 121.232L162.81 121.658L162.698 121.977L162.406 122.66L162.206 123.095L161.771 124.009L161.515 124.541L160.946 125.65L160.628 126.271L159.952 127.548L159.584 128.24L158.006 131.115L157.105 132.676L150.579 144.032L90.0169 144.032L50.3779 120.992L117.563 120.717L124.723 120.699L128.083 120.699L134.645 120.691L137.651 120.699Z" fill="url(#paint16_linear_25_11)"/>
<path d="M306.336 145.26L221.342 145.26L213.403 158.833L210.227 164.298L208.281 167.687L207.462 169.142L206.663 170.544L206.314 171.165L205.669 172.353L205.397 172.841L204.89 173.755L204.721 174.101L204.404 174.704L204.327 174.873L203.19 177.339L274.831 303.199L235.617 280.524L170.537 167.802L196.798 122.194L319.868 122.194M279.989 169.266L283.123 169.302L287.349 169.381L288.573 169.408L290.929 169.479L291.913 169.515L293.746 169.585L294.458 169.63L295.713 169.71L296.097 169.754L296.692 169.843L296.722 169.896L296.671 170.251L296.507 170.694L296.369 171.005L296.062 171.697L295.857 172.123L295.416 173.028L295.145 173.551L293.961 175.813L293.229 177.135L291.677 179.912L290.811 181.393L284.517 192.226L265.34 192.722L315.663 280.808L309.45 291.551L307.755 294.434L306.961 295.721L305.44 298.16L304.789 299.127L304.17 300.059L303.903 300.449L303.386 301.168L303.171 301.434L302.787 301.922L302.643 302.064L302.403 302.286L302.341 302.286L302.075 301.984L301.726 301.487L301.47 301.097L300.917 300.228L300.553 299.651L299.785 298.427L299.334 297.681L297.829 295.215L296.691 293.334L294.761 290.096L294.038 288.899L291.79 285.11L290.187 282.387L287.58 277.978L286.668 276.416L282.867 269.94L276.603 259.197L269.837 247.531L233.512 184.614L242.793 169.213L269.56 169.213M136.942 121.928L142.74 121.928L150.203 121.954L152.262 121.972L154.234 121.981L156.821 122.008L158.926 122.034L159.494 122.043L160.549 122.061L160.949 122.078L161.656 122.096L161.871 122.114L162.204 122.141L162.229 122.149L162.235 122.46L162.101 122.886L161.989 123.205L161.697 123.888L161.497 124.323L161.062 125.237L160.805 125.769L160.237 126.878L159.919 127.499L159.243 128.776L158.874 129.468L157.297 132.343L156.395 133.904L149.87 145.26L89.3078 145.26L49.6688 122.22L116.854 121.945L124.014 121.928L127.374 121.928L133.936 121.919L136.942 121.928Z" fill="url(#paint17_linear_25_11)"/>
<path d="M305.627 146.488L220.633 146.488L212.694 160.061L209.518 165.526L207.572 168.915L206.752 170.37L205.953 171.772L205.605 172.393L204.96 173.582L204.688 174.07L204.181 174.983L204.012 175.329L203.695 175.933L203.618 176.101L202.481 178.567L274.122 304.428L234.908 281.752L169.828 169.031L196.088 123.422L319.159 123.422M279.28 170.494L282.414 170.53L286.64 170.61L287.864 170.636L290.22 170.707L291.204 170.743L293.037 170.814L293.749 170.858L295.004 170.938L295.388 170.982L295.982 171.071L296.013 171.124L295.962 171.479L295.798 171.923L295.66 172.233L295.352 172.925L295.148 173.351L294.707 174.256L294.436 174.779L293.252 177.041L292.52 178.363L290.968 181.14L290.102 182.622L283.807 193.454L264.631 193.951L314.954 282.036L308.741 292.779L307.046 295.663L306.252 296.949L304.731 299.389L304.08 300.356L303.46 301.287L303.194 301.678L302.677 302.396L302.462 302.662L302.078 303.15L301.934 303.292L301.693 303.514L301.632 303.514L301.366 303.212L301.017 302.715L300.761 302.325L300.208 301.456L299.844 300.879L299.076 299.655L298.625 298.91L297.119 296.443L295.982 294.563L294.051 291.324L293.329 290.127L291.081 286.339L289.477 283.615L286.87 279.206L285.959 277.645L282.158 271.168L275.894 260.425L269.128 248.759L232.803 185.842L242.084 170.441L268.851 170.441M136.233 123.156L142.031 123.156L149.494 123.182L151.553 123.2L153.525 123.209L156.111 123.236L158.217 123.262L158.785 123.271L159.84 123.289L160.24 123.307L160.947 123.324L161.162 123.342L161.495 123.369L161.52 123.378L161.525 123.688L161.392 124.114L161.28 124.433L160.988 125.116L160.788 125.551L160.352 126.465L160.096 126.997L159.528 128.106L159.21 128.727L158.534 130.005L158.165 130.697L156.588 133.571L155.686 135.132L149.161 146.488L88.5987 146.488L48.9597 123.449L116.145 123.174L123.305 123.156L126.665 123.156L133.226 123.147L136.233 123.156Z" fill="url(#paint18_linear_25_11)"/>
<path d="M304.918 147.716L219.924 147.716L211.985 161.29L208.809 166.754L206.863 170.143L206.043 171.598L205.244 173L204.896 173.621L204.251 174.81L203.979 175.298L203.472 176.212L203.303 176.557L202.986 177.161L202.909 177.329L201.772 179.796L273.413 305.656L234.199 282.98L169.119 170.259L195.379 124.65L318.45 124.65M278.571 171.723L281.705 171.758L285.931 171.838L287.155 171.864L289.511 171.935L290.494 171.971L292.328 172.042L293.04 172.086L294.295 172.166L294.679 172.21L295.273 172.299L295.304 172.352L295.253 172.707L295.089 173.151L294.951 173.461L294.643 174.153L294.438 174.579L293.998 175.484L293.726 176.007L292.543 178.27L291.811 179.592L290.259 182.368L289.393 183.85L283.098 194.682L263.922 195.179L314.245 283.264L308.032 294.008L306.337 296.891L305.543 298.177L304.022 300.617L303.371 301.584L302.751 302.515L302.485 302.906L301.968 303.624L301.753 303.89L301.368 304.378L301.225 304.52L300.984 304.742L300.923 304.742L300.657 304.441L300.308 303.944L300.052 303.553L299.499 302.684L299.135 302.107L298.367 300.883L297.916 300.138L296.41 297.672L295.273 295.791L293.342 292.553L292.62 291.355L290.372 287.567L288.768 284.843L286.161 280.434L285.25 278.873L281.449 272.397L275.185 261.653L268.419 249.987L232.094 187.07L241.375 171.669L268.142 171.669M135.524 124.384L141.322 124.384L148.785 124.411L150.844 124.428L152.816 124.437L155.402 124.464L157.508 124.491L158.076 124.499L159.131 124.517L159.531 124.535L160.238 124.553L160.453 124.57L160.786 124.597L160.811 124.606L160.816 124.916L160.683 125.342L160.57 125.662L160.278 126.345L160.079 126.779L159.643 127.693L159.387 128.225L158.819 129.334L158.501 129.955L157.825 131.233L157.456 131.925L155.879 134.799L154.977 136.361L148.452 147.716L87.8896 147.716L48.2506 124.677L115.436 124.402L122.596 124.384L125.956 124.384L132.517 124.375L135.524 124.384Z" fill="url(#paint19_linear_25_11)"/>
<path d="M304.209 148.944L219.215 148.944L211.276 162.518L208.1 167.983L206.154 171.372L205.334 172.827L204.535 174.228L204.187 174.849L203.542 176.038L203.27 176.526L202.763 177.44L202.594 177.786L202.276 178.389L202.2 178.558L201.063 181.024L272.704 306.884L233.49 284.208L168.41 171.487L194.67 125.878L317.741 125.878M277.861 172.951L280.996 172.986L285.222 173.066L286.446 173.093L288.802 173.164L289.785 173.199L291.619 173.27L292.331 173.314L293.586 173.394L293.97 173.439L294.564 173.527L294.595 173.581L294.544 173.935L294.38 174.379L294.242 174.69L293.934 175.382L293.729 175.807L293.289 176.712L293.017 177.236L291.834 179.498L291.102 180.82L289.55 183.597L288.684 185.078L282.389 195.91L263.213 196.407L313.536 284.492L307.323 295.236L305.628 298.119L304.834 299.405L303.313 301.845L302.662 302.812L302.042 303.744L301.776 304.134L301.259 304.853L301.043 305.119L300.659 305.607L300.516 305.749L300.275 305.97L300.214 305.97L299.947 305.669L299.599 305.172L299.343 304.782L298.79 303.912L298.426 303.335L297.658 302.111L297.207 301.366L295.701 298.9L294.564 297.019L292.633 293.781L291.911 292.583L289.662 288.795L288.059 286.072L285.452 281.662L284.54 280.101L280.74 273.625L274.476 262.881L267.71 251.215L231.385 188.298L240.666 172.897L267.433 172.898M134.815 125.612L140.613 125.612L148.076 125.639L150.135 125.657L152.107 125.666L154.693 125.692L156.798 125.719L157.367 125.728L158.422 125.745L158.822 125.763L159.528 125.781L159.744 125.799L160.076 125.825L160.102 125.834L160.107 126.145L159.974 126.57L159.861 126.89L159.569 127.573L159.37 128.008L158.934 128.921L158.678 129.454L158.11 130.563L157.792 131.184L157.116 132.461L156.747 133.153L155.17 136.027L154.268 137.589L147.743 148.944L87.1805 148.944L47.5415 125.905L114.726 125.63L121.887 125.612L125.247 125.612L131.808 125.603L134.815 125.612Z" fill="url(#paint20_linear_25_11)"/>
<path d="M303.5 150.173L218.506 150.173L210.567 163.746L207.391 169.211L205.445 172.6L204.625 174.055L203.826 175.456L203.478 176.077L202.832 177.266L202.561 177.754L202.054 178.668L201.885 179.014L201.567 179.617L201.49 179.786L200.353 182.252L271.994 308.112L232.781 285.437L167.701 172.715L193.961 127.107L317.032 127.107M277.152 174.179L280.287 174.214L284.513 174.294L285.737 174.321L288.093 174.392L289.076 174.427L290.91 174.498L291.622 174.543L292.877 174.622L293.261 174.667L293.855 174.756L293.886 174.809L293.835 175.164L293.671 175.607L293.532 175.918L293.225 176.61L293.02 177.036L292.58 177.94L292.308 178.464L291.125 180.726L290.393 182.048L288.841 184.825L287.975 186.306L281.68 197.138L262.503 197.635L312.827 285.721L306.614 296.464L304.919 299.347L304.125 300.634L302.603 303.073L301.953 304.04L301.333 304.972L301.067 305.362L300.55 306.081L300.334 306.347L299.95 306.835L299.807 306.977L299.566 307.199L299.505 307.199L299.238 306.897L298.89 306.4L298.634 306.01L298.081 305.14L297.717 304.564L296.949 303.339L296.498 302.594L294.992 300.128L293.855 298.247L291.924 295.009L291.202 293.811L288.953 290.023L287.35 287.3L284.743 282.891L283.831 281.329L280.031 274.853L273.767 264.11L267.001 252.443L230.676 189.527L239.957 174.126L266.724 174.126M134.106 126.84L139.904 126.84L147.367 126.867L149.426 126.885L151.398 126.894L153.984 126.92L156.089 126.947L156.658 126.956L157.713 126.974L158.112 126.991L158.819 127.009L159.034 127.027L159.367 127.053L159.393 127.062L159.398 127.373L159.265 127.799L159.152 128.118L158.86 128.801L158.661 129.236L158.225 130.15L157.969 130.682L157.401 131.791L157.083 132.412L156.407 133.689L156.038 134.381L154.461 137.256L153.559 138.817L147.034 150.173L86.4714 150.173L46.8324 127.133L114.017 126.858L121.178 126.84L124.538 126.84L131.099 126.832L134.106 126.84Z" fill="url(#paint21_linear_25_11)"/>
<path d="M302.791 151.401L217.797 151.401L209.858 164.974L206.682 170.439L204.736 173.828L203.916 175.283L203.117 176.685L202.769 177.306L202.123 178.494L201.852 178.982L201.345 179.896L201.176 180.242L200.858 180.845L200.781 181.014L199.644 183.48L271.285 309.341L232.072 286.665L166.992 173.943L193.252 128.335L316.323 128.335M276.443 175.407L279.578 175.443L283.804 175.522L285.028 175.549L287.384 175.62L288.367 175.656L290.201 175.727L290.913 175.771L292.168 175.851L292.552 175.895L293.146 175.984L293.177 176.037L293.125 176.392L292.962 176.835L292.823 177.146L292.516 177.838L292.311 178.264L291.871 179.169L291.599 179.692L290.416 181.954L289.684 183.276L288.132 186.053L287.266 187.535L280.971 198.367L261.794 198.863L312.118 286.949L305.905 297.692L304.209 300.575L303.416 301.862L301.894 304.301L301.244 305.268L300.624 306.2L300.358 306.59L299.84 307.309L299.625 307.575L299.241 308.063L299.098 308.205L298.857 308.427L298.796 308.427L298.529 308.125L298.181 307.628L297.925 307.238L297.372 306.369L297.008 305.792L296.24 304.568L295.789 303.822L294.283 301.356L293.146 299.475L291.215 296.237L290.493 295.04L288.244 291.251L286.641 288.528L284.034 284.119L283.122 282.557L279.322 276.081L273.058 265.338L266.291 253.672L229.966 190.755L239.247 175.354L266.015 175.354M133.397 128.069L139.195 128.069L146.657 128.095L148.716 128.113L150.688 128.122L153.275 128.149L155.38 128.175L155.949 128.184L157.004 128.202L157.403 128.22L158.11 128.237L158.325 128.255L158.658 128.282L158.684 128.29L158.689 128.601L158.556 129.027L158.443 129.346L158.151 130.029L157.951 130.464L157.516 131.378L157.26 131.91L156.691 133.019L156.374 133.64L155.698 134.918L155.329 135.609L153.751 138.484L152.85 140.045L146.325 151.401L85.7623 151.401L46.1233 128.361L113.308 128.086L120.469 128.069L123.829 128.069L130.39 128.06L133.397 128.069Z" fill="url(#paint22_linear_25_11)"/>
<path d="M302.082 152.629L217.087 152.629L209.148 166.202L205.973 171.667L204.026 175.056L203.207 176.511L202.408 177.913L202.06 178.534L201.414 179.723L201.143 180.211L200.636 181.124L200.467 181.47L200.149 182.074L200.072 182.242L198.935 184.708L270.576 310.569L231.362 287.893L166.283 175.172L192.543 129.563L315.614 129.563M275.734 176.635L278.869 176.671L283.094 176.751L284.319 176.777L286.675 176.848L287.658 176.884L289.492 176.955L290.204 176.999L291.459 177.079L291.843 177.123L292.437 177.212L292.468 177.265L292.416 177.62L292.252 178.064L292.114 178.374L291.807 179.066L291.602 179.492L291.162 180.397L290.89 180.92L289.707 183.183L288.974 184.504L287.422 187.281L286.557 188.763L280.262 199.595L261.085 200.092L311.409 288.177L305.196 298.92L303.5 301.804L302.706 303.09L301.185 305.53L300.535 306.497L299.915 307.428L299.649 307.819L299.131 308.537L298.916 308.803L298.532 309.291L298.389 309.433L298.148 309.655L298.086 309.655L297.82 309.353L297.472 308.857L297.216 308.466L296.663 307.597L296.299 307.02L295.531 305.796L295.08 305.051L293.574 302.584L292.437 300.704L290.506 297.465L289.784 296.268L287.535 292.48L285.932 289.756L283.325 285.347L282.413 283.786L278.613 277.309L272.348 266.566L265.582 254.9L229.257 191.983L238.538 176.582L265.306 176.582M132.688 129.297L138.486 129.297L145.948 129.324L148.007 129.341L149.979 129.35L152.566 129.377L154.671 129.403L155.24 129.412L156.295 129.43L156.694 129.448L157.401 129.465L157.616 129.483L157.949 129.51L157.975 129.519L157.98 129.829L157.847 130.255L157.734 130.574L157.442 131.258L157.242 131.692L156.807 132.606L156.551 133.138L155.982 134.247L155.665 134.868L154.989 136.146L154.62 136.838L153.042 139.712L152.141 141.273L145.615 152.629L85.0532 152.629L45.4142 129.59L112.599 129.315L119.76 129.297L123.12 129.297L129.681 129.288L132.688 129.297Z" fill="url(#paint23_linear_25_11)"/>
<path d="M301.372 153.857L216.378 153.857L208.439 167.431L205.264 172.895L203.317 176.284L202.498 177.739L201.699 179.141L201.351 179.762L200.705 180.951L200.434 181.439L199.927 182.353L199.758 182.699L199.44 183.302L199.363 183.47L198.226 185.937L269.867 311.797L230.653 289.121L165.573 176.4L191.834 130.791L314.905 130.791M275.025 177.864L278.16 177.899L282.385 177.979L283.609 178.005L285.966 178.076L286.949 178.112L288.783 178.183L289.495 178.227L290.749 178.307L291.134 178.351L291.728 178.44L291.759 178.493L291.707 178.848L291.543 179.292L291.405 179.602L291.098 180.294L290.893 180.72L290.452 181.625L290.181 182.148L288.998 184.411L288.265 185.733L286.713 188.509L285.848 189.991L279.553 200.823L260.376 201.32L310.7 289.405L304.487 300.149L302.791 303.032L301.997 304.318L300.476 306.758L299.826 307.725L299.206 308.656L298.939 309.047L298.422 309.765L298.207 310.031L297.823 310.519L297.679 310.661L297.439 310.883L297.377 310.883L297.111 310.582L296.763 310.085L296.507 309.694L295.953 308.825L295.59 308.248L294.821 307.024L294.371 306.279L292.865 303.813L291.728 301.932L289.797 298.694L289.075 297.496L286.826 293.708L285.223 290.984L282.616 286.575L281.704 285.014L277.904 278.538L271.639 267.794L264.873 256.128L228.548 193.211L237.829 177.81L264.597 177.81M131.978 130.525L137.777 130.525L145.239 130.552L147.298 130.569L149.27 130.578L151.857 130.605L153.962 130.632L154.531 130.64L155.586 130.658L155.985 130.676L156.692 130.694L156.907 130.711L157.24 130.738L157.266 130.747L157.271 131.057L157.138 131.483L157.025 131.803L156.733 132.486L156.533 132.92L156.098 133.834L155.842 134.366L155.273 135.475L154.956 136.096L154.28 137.374L153.911 138.066L152.333 140.94L151.432 142.502L144.906 153.857L84.3441 153.857L44.7051 130.818L111.89 130.543L119.051 130.525L122.411 130.525L128.972 130.516L131.978 130.525Z" fill="url(#paint24_linear_25_11)"/>
<path d="M300.663 155.085L215.669 155.085L207.73 168.659L204.555 174.124L202.608 177.513L201.789 178.968L200.99 180.369L200.641 180.99L199.996 182.179L199.725 182.667L199.217 183.581L199.048 183.927L198.731 184.53L198.654 184.699L197.517 187.165L269.158 313.025L229.944 290.35L164.864 177.628L191.125 132.019L314.196 132.019M274.316 179.092L277.451 179.127L281.676 179.207L282.9 179.234L285.256 179.305L286.24 179.34L288.074 179.411L288.785 179.455L290.04 179.535L290.425 179.58L291.019 179.668L291.049 179.722L290.998 180.076L290.834 180.52L290.696 180.831L290.389 181.523L290.184 181.948L289.743 182.853L289.472 183.377L288.289 185.639L287.556 186.961L286.004 189.738L285.139 191.219L278.844 202.051L259.667 202.548L309.99 290.633L303.778 301.377L302.082 304.26L301.288 305.546L299.767 307.986L299.116 308.953L298.497 309.885L298.23 310.275L297.713 310.994L297.498 311.26L297.114 311.748L296.97 311.89L296.73 312.111L296.668 312.111L296.402 311.81L296.054 311.313L295.797 310.923L295.244 310.053L294.881 309.477L294.112 308.252L293.662 307.507L292.156 305.041L291.019 303.16L289.088 299.922L288.365 298.724L286.117 294.936L284.514 292.213L281.907 287.803L280.995 286.242L277.194 279.766L270.93 269.022L264.164 257.356L227.839 194.439L237.12 179.039L263.888 179.039M131.269 131.753L137.067 131.753L144.53 131.78L146.589 131.798L148.561 131.807L151.148 131.833L153.253 131.86L153.821 131.869L154.877 131.886L155.276 131.904L155.983 131.922L156.198 131.94L156.531 131.966L156.557 131.975L156.562 132.286L156.429 132.711L156.316 133.031L156.024 133.714L155.824 134.149L155.389 135.062L155.133 135.595L154.564 136.704L154.247 137.325L153.57 138.602L153.202 139.294L151.624 142.168L150.723 143.73L144.197 155.085L83.635 155.085L43.996 132.046L111.181 131.771L118.341 131.753L121.702 131.753L128.263 131.744L131.269 131.753Z" fill="url(#paint25_linear_25_11)"/>
<path d="M299.954 156.314L214.96 156.314L207.021 169.887L203.845 175.352L201.899 178.741L201.08 180.196L200.281 181.597L199.932 182.218L199.287 183.407L199.015 183.895L198.508 184.809L198.339 185.155L198.022 185.758L197.945 185.927L196.808 188.393L268.449 314.253L229.235 291.578L164.155 178.856L190.416 133.248L313.487 133.248M273.607 180.32L276.741 180.355L280.967 180.435L282.191 180.462L284.547 180.533L285.531 180.568L287.364 180.639L288.076 180.684L289.331 180.764L289.715 180.808L290.31 180.897L290.34 180.95L290.289 181.305L290.125 181.748L289.987 182.059L289.68 182.751L289.475 183.177L289.034 184.081L288.763 184.605L287.58 186.867L286.847 188.189L285.295 190.966L284.43 192.447L278.135 203.279L258.958 203.776L309.281 291.862L303.068 302.605L301.373 305.488L300.579 306.775L299.058 309.214L298.407 310.181L297.788 311.113L297.521 311.503L297.004 312.222L296.789 312.488L296.405 312.976L296.261 313.118L296.021 313.34L295.959 313.34L295.693 313.038L295.344 312.541L295.088 312.151L294.535 311.281L294.172 310.705L293.403 309.48L292.952 308.735L291.447 306.269L290.31 304.388L288.379 301.15L287.656 299.952L285.408 296.164L283.805 293.441L281.198 289.032L280.286 287.47L276.485 280.994L270.221 270.251L263.455 258.585L227.13 195.668L236.411 180.267L263.178 180.267M130.56 132.982L136.358 132.982L143.821 133.008L145.88 133.026L147.852 133.035L150.439 133.061L152.544 133.088L153.112 133.097L154.167 133.115L154.567 133.132L155.274 133.15L155.489 133.168L155.822 133.194L155.847 133.203L155.853 133.514L155.719 133.94L155.607 134.259L155.315 134.942L155.115 135.377L154.68 136.291L154.424 136.823L153.855 137.932L153.537 138.553L152.861 139.83L152.493 140.522L150.915 143.397L150.014 144.958L143.488 156.314L82.9259 156.314L43.2869 133.274L110.472 132.999L117.632 132.982L120.992 132.982L127.554 132.973L130.56 132.982Z" fill="url(#paint26_linear_25_11)"/>
<path d="M299.245 157.542L214.251 157.542L206.312 171.115L203.136 176.58L201.19 179.969L200.371 181.424L199.571 182.826L199.223 183.447L198.578 184.635L198.306 185.123L197.799 186.037L197.63 186.383L197.313 186.986L197.236 187.155L196.099 189.621L267.74 315.482L228.526 292.806L163.446 180.084L189.707 134.476L312.777 134.476M272.898 181.548L276.032 181.584L280.258 181.663L281.482 181.69L283.838 181.761L284.822 181.797L286.655 181.868L287.367 181.912L288.622 181.992L289.006 182.036L289.6 182.125L289.631 182.178L289.58 182.533L289.416 182.976L289.278 183.287L288.97 183.979L288.766 184.405L288.325 185.31L288.054 185.833L286.87 188.095L286.138 189.417L284.586 192.194L283.72 193.676L277.426 204.508L258.249 205.004L308.572 293.09L302.359 303.833L300.664 306.716L299.87 308.003L298.349 310.443L297.698 311.41L297.079 312.341L296.812 312.731L296.295 313.45L296.08 313.716L295.696 314.204L295.552 314.346L295.311 314.568L295.25 314.568L294.984 314.266L294.635 313.769L294.379 313.379L293.826 312.51L293.462 311.933L292.694 310.709L292.243 309.963L290.738 307.497L289.6 305.616L287.669 302.378L286.947 301.181L284.699 297.393L283.096 294.669L280.488 290.26L279.577 288.698L275.776 282.222L269.512 271.479L262.746 259.813L226.421 196.896L235.702 181.495L262.469 181.495M129.851 134.21L135.649 134.21L143.112 134.236L145.171 134.254L147.143 134.263L149.73 134.29L151.835 134.316L152.403 134.325L153.458 134.343L153.858 134.361L154.565 134.378L154.78 134.396L155.113 134.423L155.138 134.432L155.143 134.742L155.01 135.168L154.898 135.487L154.606 136.17L154.406 136.605L153.971 137.519L153.714 138.051L153.146 139.16L152.828 139.781L152.152 141.059L151.783 141.751L150.206 144.625L149.304 146.186L142.779 157.542L82.2168 157.542L42.5778 134.502L109.763 134.227L116.923 134.21L120.283 134.21L126.845 134.201L129.851 134.21Z" fill="url(#paint27_linear_25_11)"/>
</mask>
<g mask="url(#mask0_25_11)">
<g opacity="0.6" filter="url(#filter0_f_25_11)">
<path d="M299.361 157.34L256.859 157.34L214.367 157.34L206.428 170.914L203.252 176.378L201.306 179.767L200.486 181.222L199.687 182.624L199.339 183.245L198.694 184.434L198.422 184.922L197.915 185.835L197.746 186.181L197.429 186.785L197.352 186.953L196.215 189.42L267.856 315.28L248.249 303.942L228.642 292.604L196.102 236.243L163.562 179.883L176.695 157.083L189.823 134.274L312.893 134.274M273.014 181.347L276.148 181.382L277.588 181.409L280.374 181.462L281.598 181.488L283.954 181.559L284.938 181.595L286.771 181.666L287.483 181.71L288.738 181.79L289.122 181.834L289.716 181.923L289.747 181.976L289.696 182.331L289.532 182.775L289.394 183.085L289.086 183.777L288.882 184.203L288.441 185.108L288.17 185.631L286.986 187.894L286.254 189.216L284.702 191.992L283.836 193.474L277.542 204.306L267.953 204.554L258.365 204.803L283.529 248.85L308.688 292.888L302.475 303.632L300.78 306.515L299.986 307.801L298.465 310.241L297.814 311.208L297.195 312.139L296.928 312.53L296.411 313.248L296.196 313.514L295.812 314.002L295.668 314.144L295.427 314.366L295.366 314.366L295.1 314.064L294.751 313.568L294.495 313.177L293.942 312.308L293.578 311.731L292.81 310.507L292.359 309.762L291.407 308.2L290.854 307.296L289.716 305.415L289.086 304.359L287.785 302.177L287.063 300.979L285.604 298.522L284.815 297.191L283.212 294.467L282.356 293.021L280.604 290.058L279.693 288.497L275.892 282.021L273.838 278.499L269.628 271.277L267.4 267.436L262.862 259.611L226.537 196.694L231.177 188.994L235.818 181.293L262.585 181.293M129.967 134.008L135.765 134.008L138.331 134.017L143.228 134.035L145.287 134.052L147.259 134.061L148.145 134.07L149.846 134.088L150.568 134.097L151.951 134.115L152.519 134.123L153.574 134.141L153.974 134.159L154.681 134.177L154.896 134.194L155.229 134.221L155.254 134.23L155.259 134.54L155.126 134.966L155.014 135.286L154.722 135.969L154.522 136.403L154.087 137.317L153.83 137.849L153.262 138.958L152.944 139.579L152.268 140.857L151.899 141.549L150.322 144.423L149.42 145.985L142.895 157.34L82.3327 157.34L62.5209 145.825L42.6938 134.301L98.6258 134.07L109.879 134.026L117.039 134.008L120.399 134.008L126.961 133.999L129.967 134.008Z" fill="url(#paint28_linear_25_11)"/>
</g>
</g>
<path d="M309.173 140.348L266.671 140.348L224.179 140.348L216.24 153.921L213.064 159.386L211.118 162.775L210.298 164.23L209.499 165.631L209.151 166.252L208.505 167.441L208.234 167.929L207.727 168.843L207.558 169.189L207.24 169.792L207.163 169.961L206.026 172.427L277.667 298.287L258.061 286.949L238.454 275.612L205.914 219.251L173.374 162.89L186.507 140.09L199.634 117.282L322.705 117.282M282.825 164.354L285.96 164.389L287.399 164.416L290.186 164.469L291.41 164.496L293.766 164.567L294.749 164.602L296.583 164.673L297.295 164.718L298.55 164.797L298.934 164.842L299.528 164.931L299.559 164.984L299.508 165.339L299.344 165.782L299.205 166.093L298.898 166.785L298.693 167.21L298.253 168.115L297.981 168.639L296.798 170.901L296.066 172.223L294.514 175L293.648 176.481L287.353 187.313L277.765 187.562L268.176 187.81L293.341 231.857L318.5 275.896L312.287 286.639L310.592 289.522L309.798 290.809L308.276 293.248L307.626 294.215L307.006 295.147L306.74 295.537L306.222 296.256L306.007 296.522L305.623 297.01L305.48 297.152L305.239 297.373L305.178 297.373L304.911 297.072L304.563 296.575L304.307 296.185L303.754 295.315L303.39 294.739L302.622 293.514L302.171 292.769L301.218 291.208L300.665 290.303L299.528 288.422L298.898 287.366L297.597 285.184L296.875 283.986L295.415 281.529L294.626 280.198L293.023 277.475L292.168 276.029L290.416 273.065L289.504 271.504L285.704 265.028L283.65 261.506L279.44 254.284L277.212 250.443L272.674 242.618L236.348 179.702L240.989 172.001L245.63 164.301L272.397 164.301M139.779 117.015L145.577 117.015L148.143 117.024L153.04 117.042L155.099 117.06L157.071 117.069L157.957 117.078L159.657 117.095L160.379 117.104L161.762 117.122L162.331 117.131L163.386 117.148L163.785 117.166L164.492 117.184L164.707 117.202L165.04 117.228L165.066 117.237L165.071 117.548L164.938 117.974L164.825 118.293L164.533 118.976L164.333 119.411L163.898 120.324L163.642 120.857L163.073 121.966L162.756 122.587L162.08 123.864L161.711 124.556L160.133 127.431L159.232 128.992L152.707 140.348L92.1444 140.348L72.3326 128.832L52.5054 117.308L108.437 117.078L119.69 117.033L126.851 117.015L130.211 117.015L136.772 117.007L139.779 117.015Z" fill="url(#paint29_linear_25_11)"/>
<defs>
<filter id="filter0_f_25_11" x="32.6938" y="123.999" width="290.2" height="201.281" filterUnits="userSpaceOnUse" color-interpolation-filters="sRGB">
<feFlood flood-opacity="0" result="BackgroundImageFix"/>
<feBlend mode="normal" in="SourceGraphic" in2="BackgroundImageFix" result="shape"/>
<feGaussianBlur stdDeviation="5" result="effect1_foregroundBlur_25_11"/>
</filter>
<linearGradient id="paint0_linear_25_11" x1="253.441" y1="78.9292" x2="154.585" y2="250.152" gradientUnits="userSpaceOnUse">
<stop stop-color="#94C8E4"/>
<stop offset="1" stop-color="#FDFEFF"/>
</linearGradient>
<linearGradient id="paint1_linear_25_11" x1="253.441" y1="78.9292" x2="154.585" y2="250.152" gradientUnits="userSpaceOnUse">
<stop stop-color="#94C8E4"/>
<stop offset="1" stop-color="#FDFEFF"/>
</linearGradient>
<linearGradient id="paint2_linear_25_11" x1="253.441" y1="78.9292" x2="154.585" y2="250.152" gradientUnits="userSpaceOnUse">
<stop stop-color="#94C8E4"/>
<stop offset="1" stop-color="#FDFEFF"/>
</linearGradient>
<linearGradient id="paint3_linear_25_11" x1="253.441" y1="78.9292" x2="154.585" y2="250.152" gradientUnits="userSpaceOnUse">
<stop stop-color="#94C8E4"/>
<stop offset="1" stop-color="#FDFEFF"/>
</linearGradient>
<linearGradient id="paint4_linear_25_11" x1="253.441" y1="78.9292" x2="154.585" y2="250.152" gradientUnits="userSpaceOnUse">
<stop stop-color="#94C8E4"/>
<stop offset="1" stop-color="#FDFEFF"/>
</linearGradient>
<linearGradient id="paint5_linear_25_11" x1="253.441" y1="78.9292" x2="154.585" y2="250.152" gradientUnits="userSpaceOnUse">
<stop stop-color="#94C8E4"/>
<stop offset="1" stop-color="#FDFEFF"/>
</linearGradient>
<linearGradient id="paint6_linear_25_11" x1="253.441" y1="78.9292" x2="154.585" y2="250.152" gradientUnits="userSpaceOnUse">
<stop stop-color="#94C8E4"/>
<stop offset="1" stop-color="#FDFEFF"/>
</linearGradient>
<linearGradient id="paint7_linear_25_11" x1="253.441" y1="78.9292" x2="154.585" y2="250.152" gradientUnits="userSpaceOnUse">
<stop stop-color="#94C8E4"/>
<stop offset="1" stop-color="#FDFEFF"/>
</linearGradient>
<linearGradient id="paint8_linear_25_11" x1="253.441" y1="78.9292" x2="154.585" y2="250.152" gradientUnits="userSpaceOnUse">
<stop stop-color="#94C8E4"/>
<stop offset="1" stop-color="#FDFEFF"/>
</linearGradient>
<linearGradient id="paint9_linear_25_11" x1="253.441" y1="78.9292" x2="154.585" y2="250.152" gradientUnits="userSpaceOnUse">
<stop stop-color="#94C8E4"/>
<stop offset="1" stop-color="#FDFEFF"/>
</linearGradient>
<linearGradient id="paint10_linear_25_11" x1="253.441" y1="78.9292" x2="154.585" y2="250.152" gradientUnits="userSpaceOnUse">
<stop stop-color="#94C8E4"/>
<stop offset="1" stop-color="#FDFEFF"/>
</linearGradient>
<linearGradient id="paint11_linear_25_11" x1="253.441" y1="78.9292" x2="154.585" y2="250.152" gradientUnits="userSpaceOnUse">
<stop stop-color="#94C8E4"/>
<stop offset="1" stop-color="#FDFEFF"/>
</linearGradient>
<linearGradient id="paint12_linear_25_11" x1="253.441" y1="78.9292" x2="154.585" y2="250.152" gradientUnits="userSpaceOnUse">
<stop stop-color="#94C8E4"/>
<stop offset="1" stop-color="#FDFEFF"/>
</linearGradient>
<linearGradient id="paint13_linear_25_11" x1="253.441" y1="78.9292" x2="154.585" y2="250.152" gradientUnits="userSpaceOnUse">
<stop stop-color="#94C8E4"/>
<stop offset="1" stop-color="#FDFEFF"/>
</linearGradient>
<linearGradient id="paint14_linear_25_11" x1="253.441" y1="78.9289" x2="154.585" y2="250.152" gradientUnits="userSpaceOnUse">
<stop stop-color="#94C8E4"/>
<stop offset="1" stop-color="#FDFEFF"/>
</linearGradient>
<linearGradient id="paint15_linear_25_11" x1="253.441" y1="78.9289" x2="154.585" y2="250.152" gradientUnits="userSpaceOnUse">
<stop stop-color="#94C8E4"/>
<stop offset="1" stop-color="#FDFEFF"/>
</linearGradient>
<linearGradient id="paint16_linear_25_11" x1="253.441" y1="78.9289" x2="154.585" y2="250.152" gradientUnits="userSpaceOnUse">
<stop stop-color="#94C8E4"/>
<stop offset="1" stop-color="#FDFEFF"/>
</linearGradient>
<linearGradient id="paint17_linear_25_11" x1="253.441" y1="78.9289" x2="154.585" y2="250.152" gradientUnits="userSpaceOnUse">
<stop stop-color="#94C8E4"/>
<stop offset="1" stop-color="#FDFEFF"/>
</linearGradient>
<linearGradient id="paint18_linear_25_11" x1="253.441" y1="78.9289" x2="154.585" y2="250.152" gradientUnits="userSpaceOnUse">
<stop stop-color="#94C8E4"/>
<stop offset="1" stop-color="#FDFEFF"/>
</linearGradient>
<linearGradient id="paint19_linear_25_11" x1="253.441" y1="78.9289" x2="154.585" y2="250.152" gradientUnits="userSpaceOnUse">
<stop stop-color="#94C8E4"/>
<stop offset="1" stop-color="#FDFEFF"/>
</linearGradient>
<linearGradient id="paint20_linear_25_11" x1="253.441" y1="78.9289" x2="154.585" y2="250.152" gradientUnits="userSpaceOnUse">
<stop stop-color="#94C8E4"/>
<stop offset="1" stop-color="#FDFEFF"/>
</linearGradient>
<linearGradient id="paint21_linear_25_11" x1="253.441" y1="78.9289" x2="154.585" y2="250.152" gradientUnits="userSpaceOnUse">
<stop stop-color="#94C8E4"/>
<stop offset="1" stop-color="#FDFEFF"/>
</linearGradient>
<linearGradient id="paint22_linear_25_11" x1="253.441" y1="78.9289" x2="154.585" y2="250.152" gradientUnits="userSpaceOnUse">
<stop stop-color="#94C8E4"/>
<stop offset="1" stop-color="#FDFEFF"/>
</linearGradient>
<linearGradient id="paint23_linear_25_11" x1="253.441" y1="78.9289" x2="154.585" y2="250.152" gradientUnits="userSpaceOnUse">
<stop stop-color="#94C8E4"/>
<stop offset="1" stop-color="#FDFEFF"/>
</linearGradient>
<linearGradient id="paint24_linear_25_11" x1="253.441" y1="78.9289" x2="154.585" y2="250.152" gradientUnits="userSpaceOnUse">
<stop stop-color="#94C8E4"/>
<stop offset="1" stop-color="#FDFEFF"/>
</linearGradient>
<linearGradient id="paint25_linear_25_11" x1="253.441" y1="78.9289" x2="154.585" y2="250.152" gradientUnits="userSpaceOnUse">
<stop stop-color="#94C8E4"/>
<stop offset="1" stop-color="#FDFEFF"/>
</linearGradient>
<linearGradient id="paint26_linear_25_11" x1="253.441" y1="78.9289" x2="154.585" y2="250.152" gradientUnits="userSpaceOnUse">
<stop stop-color="#94C8E4"/>
<stop offset="1" stop-color="#FDFEFF"/>
</linearGradient>
<linearGradient id="paint27_linear_25_11" x1="253.441" y1="78.9289" x2="154.585" y2="250.152" gradientUnits="userSpaceOnUse">
<stop stop-color="#94C8E4"/>
<stop offset="1" stop-color="#FDFEFF"/>
</linearGradient>
<linearGradient id="paint28_linear_25_11" x1="45.4293" y1="194.197" x2="240.366" y2="402.875" gradientUnits="userSpaceOnUse">
<stop stop-color="#FDFEFF"/>
<stop offset="0.824627" stop-color="#94C8E4"/>
</linearGradient>
<linearGradient id="paint29_linear_25_11" x1="187.439" y1="117.007" x2="187.439" y2="298.287" gradientUnits="userSpaceOnUse">
<stop stop-color="#94C8E4"/>
<stop offset="1" stop-color="#FDFEFF"/>
</linearGradient>
</defs>
</svg>
