<svg width="213" height="354" viewBox="0 0 213 354" fill="none" xmlns="http://www.w3.org/2000/svg">
<path d="M-76.6852 256.5L2.9625 256.5L10.4022 243.78L13.378 238.659L15.202 235.484L15.9699 234.12L16.7187 232.807L17.0451 232.225L17.6499 231.111L17.9042 230.653L18.3794 229.797L18.5378 229.473L18.8354 228.908L18.9074 228.75L19.973 226.438L-47.1617 108.495L-10.4145 129.744L50.5716 235.375L25.9631 278.115L-89.3662 278.115M-51.9951 234.004L-54.9325 233.971L-58.8924 233.896L-60.0395 233.871L-62.2474 233.804L-63.169 233.771L-64.8873 233.704L-65.5545 233.663L-66.7304 233.588L-67.0904 233.547L-67.6472 233.463L-67.676 233.413L-67.628 233.081L-67.4744 232.665L-67.3448 232.374L-67.0568 231.726L-66.8648 231.327L-66.452 230.479L-66.1976 229.988L-65.0889 227.868L-64.4025 226.63L-62.9482 224.028L-62.137 222.639L-56.2381 212.488L-38.2677 212.023L-85.4256 129.478L-79.6034 119.411L-78.0147 116.709L-77.2707 115.503L-75.8452 113.217L-75.2356 112.311L-74.6549 111.438L-74.4053 111.072L-73.9205 110.399L-73.7189 110.15L-73.3589 109.692L-73.2245 109.559L-72.9989 109.351L-72.9413 109.352L-72.6917 109.634L-72.3654 110.1L-72.1254 110.466L-71.607 111.28L-71.2662 111.821L-70.5462 112.968L-70.1239 113.666L-68.7127 115.977L-67.6472 117.74L-65.8376 120.774L-65.1609 121.897L-63.0538 125.446L-61.5514 127.999L-59.1084 132.13L-58.254 133.594L-54.6925 139.662L-48.8224 149.73L-42.4819 160.662L-8.4418 219.621L-17.139 234.054L-42.2227 234.054M82.0534 278.364L76.62 278.364L69.6268 278.34L67.6972 278.323L65.8493 278.315L63.4254 278.29L61.4527 278.265L60.9199 278.256L59.9312 278.24L59.5568 278.223L58.8944 278.207L58.6928 278.19L58.3808 278.165L58.3569 278.157L58.3521 277.866L58.4768 277.467L58.5825 277.167L58.856 276.527L59.0432 276.12L59.4512 275.264L59.6912 274.765L60.224 273.726L60.5215 273.144L61.1551 271.946L61.5007 271.298L62.979 268.604L63.8238 267.141L69.9387 256.5L126.691 256.5L163.837 278.09L100.878 278.348L94.1681 278.364L91.0194 278.364L84.8709 278.373L82.0534 278.364Z" fill="url(#paint0_linear_37_4)"/>
<path d="M-76.0207 255.349L3.627 255.349L11.0667 242.629L14.0425 237.508L15.8665 234.333L16.6344 232.969L17.3832 231.656L17.7096 231.074L18.3143 229.96L18.5687 229.502L19.0439 228.646L19.2023 228.322L19.4999 227.757L19.5719 227.599L20.6375 225.288L-46.4972 107.344L-9.75001 128.594L51.2361 234.225L26.6276 276.964L-88.7017 276.964M-51.3306 232.853L-54.268 232.82L-58.2279 232.745L-59.375 232.72L-61.5829 232.653L-62.5045 232.62L-64.2228 232.554L-64.89 232.512L-66.0659 232.437L-66.4259 232.396L-66.9827 232.312L-67.0115 232.263L-66.9635 231.93L-66.8099 231.514L-66.6803 231.223L-66.3923 230.575L-66.2003 230.176L-65.7875 229.328L-65.5331 228.837L-64.4244 226.717L-63.738 225.479L-62.2837 222.877L-61.4725 221.488L-55.5736 211.338L-37.6032 210.872L-84.7611 128.327L-78.9389 118.26L-77.3502 115.558L-76.6062 114.353L-75.1807 112.066L-74.5711 111.16L-73.9904 110.287L-73.7408 109.921L-73.256 109.248L-73.0544 108.999L-72.6944 108.541L-72.56 108.408L-72.3344 108.201L-72.2768 108.201L-72.0272 108.483L-71.7009 108.949L-71.4609 109.315L-70.9425 110.129L-70.6017 110.67L-69.8817 111.817L-69.4594 112.515L-68.0482 114.826L-66.9827 116.589L-65.1731 119.623L-64.4964 120.746L-62.3893 124.295L-60.8869 126.848L-58.4439 130.979L-57.5895 132.443L-54.028 138.511L-48.1579 148.579L-41.8174 159.511L-7.7773 218.47L-16.4745 232.903L-41.5582 232.903M82.7179 277.214L77.2845 277.214L70.2913 277.189L68.3617 277.172L66.5138 277.164L64.0899 277.139L62.1172 277.114L61.5844 277.105L60.5957 277.089L60.2213 277.072L59.5589 277.056L59.3573 277.039L59.0453 277.014L59.0214 277.006L59.0166 276.715L59.1413 276.316L59.247 276.016L59.5205 275.376L59.7077 274.969L60.1157 274.113L60.3557 273.614L60.8885 272.575L61.186 271.993L61.8196 270.796L62.1652 270.147L63.6435 267.453L64.4883 265.99L70.6032 255.349L127.356 255.349L164.501 276.939L101.543 277.197L94.8326 277.214L91.6839 277.214L85.5354 277.222L82.7179 277.214Z" fill="url(#paint1_linear_37_4)"/>
<path d="M-75.3562 254.198L4.2915 254.198L11.7312 241.479L14.707 236.357L16.531 233.182L17.2989 231.818L18.0477 230.505L18.3741 229.923L18.9789 228.809L19.2332 228.352L19.7084 227.495L19.8668 227.171L20.1644 226.606L20.2364 226.448L21.302 224.137L-45.8327 106.193L-9.08551 127.443L51.9006 233.074L27.2921 275.813L-88.0372 275.813M-50.6661 231.702L-53.6035 231.669L-57.5634 231.594L-58.7105 231.569L-60.9184 231.502L-61.84 231.469L-63.5583 231.403L-64.2255 231.361L-65.4014 231.286L-65.7614 231.245L-66.3182 231.161L-66.347 231.112L-66.299 230.779L-66.1454 230.363L-66.0158 230.072L-65.7278 229.424L-65.5358 229.025L-65.123 228.177L-64.8686 227.686L-63.7599 225.567L-63.0735 224.328L-61.6192 221.726L-60.808 220.337L-54.9091 210.187L-36.9387 209.721L-84.0966 127.177L-78.2744 117.109L-76.6857 114.407L-75.9417 113.202L-74.5162 110.915L-73.9066 110.009L-73.3259 109.136L-73.0763 108.77L-72.5915 108.097L-72.3899 107.848L-72.0299 107.39L-71.8955 107.257L-71.6699 107.05L-71.6123 107.05L-71.3627 107.332L-71.0364 107.798L-70.7964 108.164L-70.278 108.978L-69.9372 109.519L-69.2172 110.666L-68.7949 111.364L-67.3837 113.675L-66.3182 115.438L-64.5086 118.472L-63.8319 119.595L-61.7248 123.144L-60.2224 125.697L-57.7794 129.829L-56.925 131.292L-53.3635 137.361L-47.4934 147.428L-41.1529 158.36L-7.1128 217.32L-15.81 231.752L-40.8937 231.752M83.3824 276.063L77.949 276.063L70.9558 276.038L69.0262 276.021L67.1783 276.013L64.7544 275.988L62.7817 275.963L62.2489 275.954L61.2602 275.938L60.8858 275.921L60.2234 275.905L60.0218 275.888L59.7098 275.863L59.6859 275.855L59.6811 275.564L59.8058 275.165L59.9115 274.865L60.185 274.225L60.3722 273.818L60.7802 272.962L61.0202 272.463L61.553 271.424L61.8505 270.842L62.4841 269.645L62.8297 268.996L64.308 266.303L65.1528 264.839L71.2677 254.198L128.02 254.198L165.166 275.788L102.207 276.046L95.4971 276.063L92.3484 276.063L86.1999 276.071L83.3824 276.063Z" fill="url(#paint2_linear_37_4)"/>
<path d="M-74.6917 253.047L4.956 253.047L12.3957 240.328L15.3715 235.206L17.1955 232.031L17.9634 230.667L18.7122 229.354L19.0386 228.772L19.6434 227.658L19.8977 227.201L20.3729 226.344L20.5313 226.02L20.8289 225.455L20.9009 225.297L21.9665 222.986L-45.1682 105.042L-8.421 126.292L52.5651 231.923L27.9566 274.662L-87.3727 274.662M-50.0016 230.551L-52.939 230.518L-56.8989 230.443L-58.046 230.418L-60.2539 230.351L-61.1755 230.318L-62.8938 230.252L-63.561 230.21L-64.7369 230.135L-65.0969 230.094L-65.6537 230.011L-65.6825 229.961L-65.6345 229.628L-65.4809 229.212L-65.3513 228.921L-65.0633 228.273L-64.8713 227.874L-64.4585 227.026L-64.2041 226.536L-63.0954 224.416L-62.409 223.177L-60.9547 220.575L-60.1435 219.186L-54.2446 209.036L-36.2742 208.57L-83.4321 126.026L-77.6099 115.958L-76.0212 113.256L-75.2772 112.051L-73.8517 109.764L-73.2421 108.858L-72.6614 107.985L-72.4118 107.62L-71.927 106.946L-71.7254 106.697L-71.3654 106.239L-71.231 106.106L-71.0054 105.899L-70.9478 105.899L-70.6982 106.181L-70.3719 106.647L-70.1319 107.013L-69.6135 107.827L-69.2727 108.368L-68.5527 109.515L-68.1304 110.213L-66.7192 112.524L-65.6537 114.287L-63.8441 117.321L-63.1674 118.444L-61.0603 121.994L-59.5579 124.546L-57.1149 128.678L-56.2605 130.141L-52.699 136.21L-46.8289 146.277L-40.4884 157.209L-6.4483 216.169L-15.1455 230.601L-40.2292 230.601M84.0469 274.912L78.6135 274.912L71.6203 274.887L69.6907 274.87L67.8428 274.862L65.4189 274.837L63.4462 274.812L62.9134 274.804L61.9247 274.787L61.5503 274.77L60.8879 274.754L60.6863 274.737L60.3743 274.712L60.3504 274.704L60.3456 274.413L60.4703 274.014L60.576 273.714L60.8495 273.074L61.0367 272.667L61.4447 271.811L61.6847 271.312L62.2175 270.273L62.515 269.691L63.1486 268.494L63.4942 267.845L64.9725 265.152L65.8173 263.688L71.9322 253.047L128.685 253.047L165.83 274.637L102.872 274.895L96.1616 274.912L93.0129 274.912L86.8644 274.92L84.0469 274.912Z" fill="url(#paint3_linear_37_4)"/>
<path d="M-74.0272 251.896L5.6205 251.896L13.0602 239.177L16.036 234.056L17.86 230.88L18.6279 229.516L19.3767 228.203L19.7031 227.621L20.3078 226.507L20.5622 226.05L21.0374 225.193L21.1958 224.869L21.4934 224.304L21.5654 224.146L22.631 221.835L-44.5037 103.891L-7.75651 125.141L53.2296 230.772L28.6211 273.511L-86.7082 273.511M-49.3371 229.4L-52.2745 229.367L-56.2344 229.292L-57.3815 229.267L-59.5894 229.2L-60.511 229.167L-62.2293 229.101L-62.8965 229.059L-64.0724 228.984L-64.4324 228.943L-64.9892 228.86L-65.018 228.81L-64.97 228.477L-64.8164 228.061L-64.6868 227.771L-64.3988 227.122L-64.2068 226.723L-63.794 225.875L-63.5396 225.385L-62.4309 223.265L-61.7445 222.026L-60.2902 219.424L-59.479 218.035L-53.5801 207.885L-35.6097 207.419L-82.7676 124.875L-76.9454 114.807L-75.3567 112.105L-74.6127 110.9L-73.1872 108.613L-72.5776 107.707L-71.9969 106.834L-71.7473 106.469L-71.2625 105.795L-71.0609 105.546L-70.7009 105.089L-70.5665 104.956L-70.3409 104.748L-70.2833 104.748L-70.0337 105.03L-69.7074 105.496L-69.4674 105.862L-68.949 106.676L-68.6082 107.217L-67.8882 108.364L-67.4659 109.062L-66.0547 111.374L-64.9892 113.136L-63.1796 116.17L-62.5029 117.293L-60.3958 120.843L-58.8934 123.395L-56.4504 127.527L-55.596 128.99L-52.0345 135.059L-46.1644 145.126L-39.8239 156.058L-5.7838 215.018L-14.481 229.45L-39.5647 229.45M84.7114 273.761L79.278 273.761L72.2848 273.736L70.3552 273.719L68.5073 273.711L66.0834 273.686L64.1107 273.661L63.5779 273.653L62.5892 273.636L62.2148 273.619L61.5524 273.603L61.3508 273.586L61.0388 273.561L61.0149 273.553L61.0101 273.262L61.1348 272.863L61.2405 272.564L61.514 271.923L61.7012 271.516L62.1092 270.66L62.3492 270.161L62.882 269.122L63.1795 268.54L63.8131 267.343L64.1587 266.694L65.6371 264.001L66.4818 262.537L72.5967 251.896L129.349 251.896L166.495 273.486L103.536 273.744L96.8261 273.761L93.6774 273.761L87.5289 273.769L84.7114 273.761Z" fill="url(#paint4_linear_37_4)"/>
<path d="M-73.3627 250.745L6.285 250.745L13.7247 238.026L16.7005 232.905L18.5245 229.729L19.2924 228.365L20.0412 227.052L20.3676 226.47L20.9724 225.356L21.2267 224.899L21.7019 224.042L21.8603 223.718L22.1579 223.153L22.2299 222.995L23.2955 220.684L-43.8392 102.74L-7.09201 123.99L53.8941 229.621L29.2856 272.36L-86.0437 272.36M-48.6726 228.249L-51.61 228.216L-55.5699 228.141L-56.717 228.116L-58.9249 228.049L-59.8465 228.016L-61.5648 227.95L-62.232 227.908L-63.4079 227.833L-63.7679 227.792L-64.3247 227.709L-64.3535 227.659L-64.3055 227.326L-64.1519 226.911L-64.0223 226.62L-63.7343 225.971L-63.5423 225.572L-63.1295 224.724L-62.8751 224.234L-61.7664 222.114L-61.08 220.875L-59.6257 218.273L-58.8145 216.884L-52.9156 206.734L-34.9452 206.268L-82.1031 123.724L-76.2809 113.656L-74.6922 110.954L-73.9482 109.749L-72.5227 107.463L-71.9131 106.556L-71.3324 105.683L-71.0828 105.318L-70.598 104.644L-70.3964 104.395L-70.0364 103.938L-69.902 103.805L-69.6764 103.597L-69.6188 103.597L-69.3692 103.879L-69.0429 104.345L-68.8029 104.711L-68.2845 105.525L-67.9437 106.066L-67.2237 107.213L-66.8014 107.911L-65.3902 110.223L-64.3247 111.985L-62.5151 115.019L-61.8384 116.142L-59.7313 119.692L-58.2289 122.244L-55.7859 126.376L-54.9315 127.839L-51.37 133.908L-45.4999 143.975L-39.1594 154.908L-5.1193 213.867L-13.8165 228.299L-38.9002 228.299M85.3759 272.61L79.9425 272.61L72.9493 272.585L71.0197 272.568L69.1718 272.56L66.7479 272.535L64.7752 272.51L64.2424 272.502L63.2537 272.485L62.8793 272.468L62.2169 272.452L62.0153 272.435L61.7033 272.41L61.6794 272.402L61.6746 272.111L61.7993 271.712L61.905 271.413L62.1785 270.772L62.3657 270.365L62.7737 269.509L63.0137 269.01L63.5465 267.971L63.844 267.389L64.4776 266.192L64.8232 265.543L66.3015 262.85L67.1463 261.387L73.2612 250.745L130.014 250.745L167.159 272.335L104.201 272.593L97.4906 272.61L94.3419 272.61L88.1934 272.618L85.3759 272.61Z" fill="url(#paint5_linear_37_4)"/>
<path d="M-72.6982 249.594L6.9495 249.594L14.3892 236.875L17.365 231.754L19.189 228.578L19.9569 227.214L20.7057 225.901L21.0321 225.319L21.6369 224.205L21.8912 223.748L22.3664 222.891L22.5248 222.567L22.8224 222.002L22.8944 221.844L23.96 219.533L-43.1747 101.59L-6.4275 122.839L54.5586 228.47L29.9501 271.209L-85.3792 271.209M-48.0081 227.098L-50.9455 227.065L-54.9054 226.99L-56.0525 226.965L-58.2604 226.899L-59.182 226.865L-60.9003 226.799L-61.5675 226.757L-62.7434 226.682L-63.1034 226.641L-63.6602 226.558L-63.689 226.508L-63.641 226.175L-63.4874 225.76L-63.3578 225.469L-63.0698 224.82L-62.8778 224.421L-62.465 223.573L-62.2106 223.083L-61.1019 220.963L-60.4155 219.724L-58.9612 217.122L-58.15 215.734L-52.2511 205.583L-34.2807 205.117L-81.4386 122.573L-75.6164 112.505L-74.0277 109.803L-73.2837 108.598L-71.8582 106.312L-71.2486 105.405L-70.6679 104.532L-70.4183 104.167L-69.9335 103.493L-69.7319 103.244L-69.3719 102.787L-69.2375 102.654L-69.0119 102.446L-68.9543 102.446L-68.7047 102.728L-68.3784 103.194L-68.1384 103.56L-67.62 104.375L-67.2792 104.915L-66.5592 106.062L-66.1369 106.761L-64.7257 109.072L-63.6602 110.834L-61.8506 113.869L-61.1739 114.991L-59.0668 118.541L-57.5644 121.093L-55.1214 125.225L-54.267 126.688L-50.7055 132.757L-44.8354 142.824L-38.4949 153.757L-4.4548 212.716L-13.152 227.148L-38.2357 227.148M86.0404 271.459L80.607 271.459L73.6138 271.434L71.6842 271.417L69.8363 271.409L67.4124 271.384L65.4397 271.359L64.9069 271.351L63.9182 271.334L63.5438 271.317L62.8814 271.301L62.6798 271.284L62.3678 271.259L62.3439 271.251L62.3391 270.96L62.4638 270.561L62.5695 270.262L62.843 269.621L63.0302 269.214L63.4382 268.358L63.6782 267.859L64.211 266.82L64.5085 266.238L65.1421 265.041L65.4877 264.392L66.966 261.699L67.8108 260.236L73.9257 249.594L130.678 249.594L167.824 271.184L104.865 271.442L98.1551 271.459L95.0064 271.459L88.8579 271.467L86.0404 271.459Z" fill="url(#paint6_linear_37_4)"/>
<path d="M-72.0337 248.443L7.614 248.443L15.0537 235.724L18.0295 230.603L19.8535 227.427L20.6214 226.064L21.3702 224.75L21.6966 224.168L22.3013 223.054L22.5557 222.597L23.0309 221.741L23.1893 221.416L23.4869 220.851L23.5589 220.693L24.6245 218.382L-42.5102 100.439L-5.76301 121.688L55.2231 227.319L30.6146 270.058L-84.7147 270.058M-47.3436 225.947L-50.281 225.914L-54.2409 225.839L-55.388 225.814L-57.5959 225.748L-58.5175 225.714L-60.2358 225.648L-60.903 225.606L-62.0789 225.531L-62.4389 225.49L-62.9957 225.407L-63.0245 225.357L-62.9765 225.024L-62.8229 224.609L-62.6933 224.318L-62.4053 223.669L-62.2133 223.27L-61.8005 222.422L-61.5461 221.932L-60.4374 219.812L-59.751 218.573L-58.2967 215.971L-57.4855 214.583L-51.5866 204.432L-33.6162 203.966L-80.7741 121.422L-74.9519 111.354L-73.3632 108.652L-72.6192 107.447L-71.1937 105.161L-70.5841 104.254L-70.0034 103.382L-69.7538 103.016L-69.269 102.342L-69.0674 102.093L-68.7074 101.636L-68.573 101.503L-68.3474 101.295L-68.2898 101.295L-68.0402 101.578L-67.7139 102.043L-67.4739 102.409L-66.9555 103.224L-66.6147 103.764L-65.8947 104.911L-65.4724 105.61L-64.0612 107.921L-62.9957 109.683L-61.1861 112.718L-60.5094 113.84L-58.4023 117.39L-56.8999 119.942L-54.4569 124.074L-53.6025 125.537L-50.041 131.606L-44.1709 141.673L-37.8304 152.606L-3.7903 211.565L-12.4875 225.997L-37.5712 225.997M86.7049 270.308L81.2715 270.308L74.2783 270.283L72.3487 270.266L70.5008 270.258L68.0769 270.233L66.1042 270.208L65.5714 270.2L64.5827 270.183L64.2083 270.166L63.5459 270.15L63.3443 270.133L63.0323 270.108L63.0084 270.1L63.0036 269.809L63.1283 269.41L63.234 269.111L63.5075 268.471L63.6947 268.063L64.1027 267.207L64.3427 266.708L64.8755 265.669L65.173 265.087L65.8066 263.89L66.1522 263.241L67.6305 260.548L68.4753 259.085L74.5902 248.443L131.343 248.443L168.488 270.033L105.53 270.291L98.8196 270.308L95.6709 270.308L89.5224 270.316L86.7049 270.308Z" fill="url(#paint7_linear_37_4)"/>
<path d="M-71.3692 247.292L8.2785 247.292L15.7182 234.573L18.694 229.452L20.518 226.276L21.2859 224.913L22.0347 223.599L22.3611 223.017L22.9659 221.903L23.2202 221.446L23.6954 220.59L23.8538 220.265L24.1514 219.7L24.2234 219.542L25.289 217.231L-41.8457 99.2876L-5.09851 120.537L55.8876 226.168L31.2791 268.907L-84.0502 268.907M-46.6791 224.796L-49.6165 224.763L-53.5764 224.688L-54.7235 224.663L-56.9314 224.597L-57.853 224.563L-59.5713 224.497L-60.2385 224.455L-61.4144 224.381L-61.7744 224.339L-62.3312 224.256L-62.36 224.206L-62.312 223.873L-62.1584 223.458L-62.0288 223.167L-61.7408 222.518L-61.5488 222.119L-61.136 221.271L-60.8816 220.781L-59.7729 218.661L-59.0865 217.422L-57.6322 214.82L-56.821 213.432L-50.9221 203.281L-32.9517 202.815L-80.1096 120.271L-74.2874 110.203L-72.6987 107.501L-71.9547 106.296L-70.5292 104.01L-69.9196 103.104L-69.3389 102.231L-69.0893 101.865L-68.6045 101.191L-68.4029 100.942L-68.0429 100.485L-67.9085 100.352L-67.6829 100.144L-67.6253 100.144L-67.3757 100.427L-67.0494 100.892L-66.8094 101.258L-66.291 102.073L-65.9502 102.613L-65.2302 103.76L-64.8079 104.459L-63.3967 106.77L-62.3312 108.532L-60.5216 111.567L-59.8449 112.689L-57.7378 116.239L-56.2354 118.791L-53.7924 122.923L-52.938 124.386L-49.3765 130.455L-43.5064 140.522L-37.1659 151.455L-3.1258 210.414L-11.823 224.846L-36.9067 224.846M87.3694 269.157L81.936 269.157L74.9428 269.132L73.0132 269.115L71.1653 269.107L68.7414 269.082L66.7687 269.057L66.2359 269.049L65.2472 269.032L64.8728 269.016L64.2104 268.999L64.0088 268.982L63.6968 268.957L63.6729 268.949L63.6681 268.658L63.7928 268.259L63.8984 267.96L64.172 267.32L64.3592 266.912L64.7672 266.056L65.0072 265.557L65.54 264.518L65.8375 263.936L66.4711 262.739L66.8167 262.09L68.295 259.397L69.1398 257.934L75.2547 247.292L132.007 247.292L169.153 268.883L106.194 269.14L99.4841 269.157L96.3354 269.157L90.1869 269.165L87.3694 269.157Z" fill="url(#paint8_linear_37_4)"/>
<path d="M-70.7047 246.141L8.943 246.141L16.3827 233.422L19.3585 228.301L21.1825 225.125L21.9504 223.762L22.6992 222.448L23.0256 221.866L23.6304 220.752L23.8847 220.295L24.3599 219.439L24.5183 219.114L24.8159 218.549L24.8879 218.391L25.9535 216.08L-41.1812 98.1367L-4.434 119.386L56.5521 225.017L31.9436 267.757L-83.3857 267.757M-46.0146 223.645L-48.952 223.612L-52.9119 223.537L-54.059 223.512L-56.2669 223.446L-57.1885 223.412L-58.9068 223.346L-59.574 223.304L-60.7499 223.23L-61.1099 223.188L-61.6667 223.105L-61.6955 223.055L-61.6475 222.722L-61.4939 222.307L-61.3643 222.016L-61.0763 221.367L-60.8843 220.968L-60.4715 220.12L-60.2171 219.63L-59.1084 217.51L-58.422 216.271L-56.9677 213.669L-56.1565 212.281L-50.2576 202.13L-32.2872 201.664L-79.4451 119.12L-73.6229 109.052L-72.0342 106.35L-71.2902 105.145L-69.8647 102.859L-69.2551 101.953L-68.6744 101.08L-68.4248 100.714L-67.94 100.04L-67.7384 99.7911L-67.3784 99.3338L-67.244 99.2008L-67.0184 98.993L-66.9608 98.993L-66.7112 99.2756L-66.3849 99.7412L-66.1449 100.107L-65.6265 100.922L-65.2857 101.462L-64.5657 102.609L-64.1434 103.308L-62.7322 105.619L-61.6667 107.381L-59.8571 110.416L-59.1804 111.538L-57.0733 115.088L-55.5709 117.64L-53.1279 121.772L-52.2735 123.235L-48.712 129.304L-42.8419 139.372L-36.5014 150.304L-2.4613 209.263L-11.1585 223.695L-36.2422 223.695M88.0339 268.006L82.6005 268.006L75.6073 267.981L73.6777 267.964L71.8298 267.956L69.4059 267.931L67.4332 267.906L66.9004 267.898L65.9117 267.881L65.5373 267.865L64.8749 267.848L64.6733 267.831L64.3613 267.806L64.3374 267.798L64.3326 267.507L64.4573 267.108L64.563 266.809L64.8365 266.169L65.0237 265.761L65.4317 264.905L65.6717 264.406L66.2045 263.367L66.502 262.785L67.1356 261.588L67.4812 260.939L68.9595 258.246L69.8043 256.783L75.9192 246.141L132.672 246.142L169.817 267.732L106.859 267.989L100.149 268.006L96.9999 268.006L90.8514 268.014L88.0339 268.006Z" fill="url(#paint9_linear_37_4)"/>
<path d="M-70.0402 244.991L9.6075 244.991L17.0472 232.271L20.023 227.15L21.847 223.974L22.6149 222.611L23.3637 221.297L23.6901 220.715L24.2948 219.601L24.5492 219.144L25.0244 218.288L25.1828 217.963L25.4804 217.398L25.5524 217.24L26.618 214.929L-40.5167 96.9857L-3.76951 118.235L57.2166 223.866L32.6081 266.606L-82.7212 266.606M-45.3501 222.494L-48.2875 222.461L-52.2474 222.386L-53.3945 222.361L-55.6024 222.295L-56.524 222.261L-58.2423 222.195L-58.9095 222.153L-60.0854 222.079L-60.4454 222.037L-61.0022 221.954L-61.031 221.904L-60.983 221.571L-60.8294 221.156L-60.6998 220.865L-60.4118 220.216L-60.2198 219.817L-59.807 218.969L-59.5526 218.479L-58.4439 216.359L-57.7575 215.12L-56.3032 212.518L-55.492 211.13L-49.5931 200.979L-31.6227 200.513L-78.7806 117.969L-72.9584 107.901L-71.3697 105.199L-70.6257 103.994L-69.2002 101.708L-68.5906 100.802L-68.0099 99.9287L-67.7603 99.5629L-67.2755 98.8895L-67.0739 98.6401L-66.7139 98.1829L-66.5795 98.0499L-66.3539 97.842L-66.2963 97.842L-66.0467 98.1247L-65.7204 98.5902L-65.4804 98.956L-64.962 99.7708L-64.6212 100.311L-63.9012 101.458L-63.4789 102.157L-62.0677 104.468L-61.0022 106.23L-59.1926 109.265L-58.5159 110.387L-56.4088 113.937L-54.9064 116.489L-52.4634 120.621L-51.609 122.084L-48.0475 128.153L-42.1774 138.221L-35.8369 149.153L-1.7968 208.112L-10.494 222.544L-35.5777 222.544M88.6984 266.855L83.265 266.855L76.2718 266.83L74.3422 266.813L72.4943 266.805L70.0704 266.78L68.0977 266.755L67.5649 266.747L66.5762 266.73L66.2018 266.714L65.5394 266.697L65.3378 266.68L65.0258 266.655L65.0019 266.647L64.9971 266.356L65.1218 265.957L65.2274 265.658L65.501 265.018L65.6882 264.61L66.0962 263.754L66.3362 263.255L66.869 262.216L67.1665 261.634L67.8001 260.437L68.1457 259.789L69.624 257.095L70.4688 255.632L76.5837 244.991L133.336 244.991L170.482 266.581L107.523 266.838L100.813 266.855L97.6644 266.855L91.5159 266.863L88.6984 266.855Z" fill="url(#paint10_linear_37_4)"/>
<path d="M-69.3757 243.84L10.272 243.84L17.7117 231.12L20.6875 225.999L22.5115 222.823L23.2794 221.46L24.0282 220.146L24.3546 219.564L24.9594 218.45L25.2137 217.993L25.6889 217.137L25.8473 216.812L26.1449 216.247L26.2169 216.089L27.2825 213.778L-39.8522 95.8348L-3.10501 117.084L57.8811 222.715L33.2726 265.455L-82.0567 265.455M-44.6856 221.343L-47.623 221.31L-51.5829 221.235L-52.73 221.21L-54.9379 221.144L-55.8595 221.111L-57.5778 221.044L-58.245 221.002L-59.4209 220.928L-59.7809 220.886L-60.3377 220.803L-60.3665 220.753L-60.3185 220.421L-60.1649 220.005L-60.0353 219.714L-59.7473 219.065L-59.5553 218.666L-59.1425 217.818L-58.8881 217.328L-57.7794 215.208L-57.093 213.969L-55.6387 211.367L-54.8275 209.979L-48.9286 199.828L-30.9582 199.363L-78.1161 116.818L-72.2939 106.75L-70.7052 104.049L-69.9612 102.843L-68.5357 100.557L-67.9261 99.6507L-67.3454 98.7778L-67.0958 98.412L-66.611 97.7386L-66.4094 97.4892L-66.0494 97.0319L-65.915 96.8989L-65.6894 96.6911L-65.6318 96.6911L-65.3822 96.9737L-65.0559 97.4393L-64.8159 97.8051L-64.2975 98.6198L-63.9567 99.1602L-63.2367 100.307L-62.8144 101.006L-61.4032 103.317L-60.3377 105.079L-58.5281 108.114L-57.8514 109.236L-55.7443 112.786L-54.2419 115.338L-51.7989 119.47L-50.9445 120.933L-47.383 127.002L-41.5129 137.07L-35.1724 148.002L-1.1323 206.961L-9.82953 221.393L-34.9132 221.393M89.3629 265.704L83.9295 265.704L76.9363 265.679L75.0067 265.662L73.1588 265.654L70.7349 265.629L68.7622 265.604L68.2294 265.596L67.2407 265.579L66.8663 265.563L66.2039 265.546L66.0023 265.529L65.6903 265.505L65.6664 265.496L65.6616 265.205L65.7863 264.806L65.8919 264.507L66.1655 263.867L66.3527 263.459L66.7607 262.603L67.0007 262.104L67.5335 261.065L67.831 260.483L68.4646 259.286L68.8102 258.638L70.2885 255.944L71.1333 254.481L77.2482 243.84L134.001 243.84L171.146 265.43L108.188 265.687L101.478 265.704L98.3289 265.704L92.1804 265.712L89.3629 265.704Z" fill="url(#paint11_linear_37_4)"/>
<path d="M-68.7112 242.689L10.9365 242.689L18.3762 229.969L21.352 224.848L23.176 221.672L23.9439 220.309L24.6927 218.995L25.0191 218.413L25.6239 217.299L25.8782 216.842L26.3534 215.986L26.5118 215.662L26.8094 215.096L26.8814 214.938L27.947 212.627L-39.1877 94.6838L-2.4405 115.933L58.5456 221.564L33.9371 264.304L-81.3922 264.304M-44.0211 220.192L-46.9585 220.159L-50.9184 220.084L-52.0655 220.059L-54.2734 219.993L-55.195 219.96L-56.9133 219.893L-57.5805 219.852L-58.7564 219.777L-59.1164 219.735L-59.6732 219.652L-59.702 219.602L-59.654 219.27L-59.5004 218.854L-59.3708 218.563L-59.0828 217.914L-58.8908 217.515L-58.478 216.667L-58.2236 216.177L-57.1149 214.057L-56.4285 212.818L-54.9742 210.216L-54.163 208.828L-48.2641 198.677L-30.2937 198.212L-77.4516 115.667L-71.6294 105.599L-70.0407 102.898L-69.2967 101.692L-67.8712 99.4059L-67.2616 98.4997L-66.6809 97.6268L-66.4313 97.261L-65.9465 96.5876L-65.7449 96.3382L-65.3849 95.881L-65.2505 95.748L-65.0249 95.5401L-64.9673 95.5401L-64.7177 95.8228L-64.3914 96.2883L-64.1514 96.6541L-63.633 97.4689L-63.2922 98.0092L-62.5722 99.1565L-62.1499 99.8548L-60.7387 102.166L-59.6732 103.928L-57.8636 106.963L-57.1869 108.085L-55.0798 111.635L-53.5774 114.187L-51.1344 118.319L-50.28 119.782L-46.7185 125.851L-40.8484 135.919L-34.5079 146.851L-0.467799 205.81L-9.16503 220.242L-34.2487 220.242M90.0274 264.553L84.594 264.553L77.6008 264.528L75.6712 264.512L73.8233 264.503L71.3994 264.478L69.4267 264.453L68.8939 264.445L67.9052 264.428L67.5308 264.412L66.8684 264.395L66.6668 264.379L66.3548 264.354L66.3309 264.345L66.3261 264.054L66.4508 263.655L66.5564 263.356L66.83 262.716L67.0172 262.308L67.4252 261.452L67.6652 260.953L68.198 259.914L68.4955 259.332L69.1291 258.135L69.4747 257.487L70.953 254.793L71.7978 253.33L77.9127 242.689L134.665 242.689L171.811 264.279L108.852 264.536L102.142 264.553L98.9934 264.553L92.8449 264.561L90.0274 264.553Z" fill="url(#paint12_linear_37_4)"/>
<path d="M-68.0467 241.538L11.601 241.538L19.0407 228.818L22.0165 223.697L23.8405 220.521L24.6084 219.158L25.3572 217.844L25.6836 217.262L26.2883 216.148L26.5427 215.691L27.0179 214.835L27.1763 214.511L27.4739 213.945L27.5459 213.787L28.6115 211.476L-38.5232 93.5329L-1.77601 114.782L59.2101 220.413L34.6016 263.153L-80.7277 263.153M-43.3566 219.041L-46.294 219.008L-50.2539 218.933L-51.401 218.908L-53.6089 218.842L-54.5305 218.809L-56.2488 218.742L-56.916 218.701L-58.0919 218.626L-58.4519 218.584L-59.0087 218.501L-59.0375 218.451L-58.9895 218.119L-58.8359 217.703L-58.7063 217.412L-58.4183 216.764L-58.2263 216.364L-57.8135 215.517L-57.5591 215.026L-56.4504 212.906L-55.764 211.667L-54.3097 209.065L-53.4985 207.677L-47.5996 197.526L-29.6292 197.061L-76.7871 114.516L-70.9649 104.448L-69.3762 101.747L-68.6322 100.541L-67.2067 98.255L-66.5971 97.3488L-66.0164 96.4759L-65.7668 96.1101L-65.282 95.4367L-65.0804 95.1873L-64.7204 94.73L-64.586 94.597L-64.3604 94.3892L-64.3028 94.3892L-64.0532 94.6718L-63.7269 95.1374L-63.4869 95.5032L-62.9685 96.3179L-62.6277 96.8583L-61.9077 98.0056L-61.4854 98.7039L-60.0742 101.015L-59.0087 102.777L-57.1991 105.812L-56.5224 106.934L-54.4153 110.484L-52.9129 113.036L-50.4699 117.168L-49.6155 118.631L-46.054 124.7L-40.1839 134.768L-33.8434 145.7L0.196702 204.659L-8.50053 219.091L-33.5842 219.091M90.6919 263.402L85.2585 263.402L78.2653 263.377L76.3357 263.361L74.4878 263.352L72.0639 263.327L70.0912 263.302L69.5584 263.294L68.5697 263.277L68.1953 263.261L67.5329 263.244L67.3313 263.228L67.0193 263.203L66.9954 263.194L66.9906 262.903L67.1153 262.504L67.2209 262.205L67.4945 261.565L67.6817 261.158L68.0897 260.301L68.3297 259.802L68.8625 258.763L69.16 258.181L69.7936 256.984L70.1392 256.336L71.6175 253.642L72.4623 252.179L78.5772 241.538L135.33 241.538L172.475 263.128L109.517 263.386L102.807 263.402L99.6579 263.402L93.5094 263.41L90.6919 263.402Z" fill="url(#paint13_linear_37_4)"/>
<mask id="mask0_37_4" style="mask-type:alpha" maskUnits="userSpaceOnUse" x="-90" y="93" width="263" height="186">
<path d="M-76.6852 256.5L2.9625 256.5L10.4022 243.78L13.378 238.659L15.202 235.484L15.9699 234.12L16.7187 232.807L17.0451 232.225L17.6499 231.111L17.9042 230.653L18.3794 229.797L18.5378 229.473L18.8354 228.908L18.9074 228.75L19.973 226.438L-47.1617 108.495L-10.4145 129.744L50.5716 235.375L25.9631 278.115L-89.3662 278.115M-51.9951 234.004L-54.9325 233.971L-58.8924 233.896L-60.0395 233.871L-62.2474 233.804L-63.169 233.771L-64.8873 233.704L-65.5545 233.663L-66.7304 233.588L-67.0904 233.547L-67.6472 233.463L-67.676 233.413L-67.628 233.081L-67.4744 232.665L-67.3448 232.374L-67.0568 231.726L-66.8648 231.327L-66.452 230.479L-66.1976 229.988L-65.0889 227.868L-64.4025 226.63L-62.9482 224.028L-62.137 222.639L-56.2381 212.488L-38.2677 212.023L-85.4256 129.478L-79.6034 119.411L-78.0147 116.709L-77.2707 115.503L-75.8452 113.217L-75.2356 112.311L-74.6549 111.438L-74.4053 111.072L-73.9205 110.399L-73.7189 110.15L-73.3589 109.692L-73.2245 109.559L-72.9989 109.351L-72.9413 109.352L-72.6917 109.634L-72.3654 110.1L-72.1254 110.466L-71.607 111.28L-71.2662 111.821L-70.5462 112.968L-70.1239 113.666L-68.7127 115.977L-67.6472 117.74L-65.8376 120.774L-65.1609 121.897L-63.0538 125.446L-61.5514 127.999L-59.1084 132.13L-58.254 133.594L-54.6925 139.662L-48.8224 149.73L-42.4819 160.662L-8.4418 219.621L-17.139 234.054L-42.2227 234.054M82.0534 278.364L76.62 278.364L69.6268 278.34L67.6972 278.323L65.8493 278.315L63.4254 278.29L61.4527 278.265L60.9199 278.256L59.9312 278.24L59.5568 278.223L58.8944 278.207L58.6928 278.19L58.3808 278.165L58.3569 278.157L58.3521 277.866L58.4768 277.467L58.5825 277.167L58.856 276.527L59.0432 276.12L59.4512 275.264L59.6912 274.765L60.224 273.726L60.5215 273.144L61.1551 271.946L61.5007 271.298L62.979 268.604L63.8238 267.141L69.9387 256.5L126.691 256.5L163.837 278.09L100.878 278.348L94.1681 278.364L91.0194 278.364L84.8709 278.373L82.0534 278.364Z" fill="url(#paint14_linear_37_4)"/>
<path d="M-76.0207 255.349L3.627 255.349L11.0667 242.629L14.0425 237.508L15.8665 234.333L16.6344 232.969L17.3832 231.656L17.7096 231.074L18.3143 229.96L18.5687 229.502L19.0439 228.646L19.2023 228.322L19.4999 227.757L19.5719 227.599L20.6375 225.288L-46.4972 107.344L-9.75001 128.594L51.2361 234.225L26.6276 276.964L-88.7017 276.964M-51.3306 232.853L-54.268 232.82L-58.2279 232.745L-59.375 232.72L-61.5829 232.653L-62.5045 232.62L-64.2228 232.554L-64.89 232.512L-66.0659 232.437L-66.4259 232.396L-66.9827 232.312L-67.0115 232.263L-66.9635 231.93L-66.8099 231.514L-66.6803 231.223L-66.3923 230.575L-66.2003 230.176L-65.7875 229.328L-65.5331 228.837L-64.4244 226.717L-63.738 225.479L-62.2837 222.877L-61.4725 221.488L-55.5736 211.338L-37.6032 210.872L-84.7611 128.327L-78.9389 118.26L-77.3502 115.558L-76.6062 114.353L-75.1807 112.066L-74.5711 111.16L-73.9904 110.287L-73.7408 109.921L-73.256 109.248L-73.0544 108.999L-72.6944 108.541L-72.56 108.408L-72.3344 108.201L-72.2768 108.201L-72.0272 108.483L-71.7009 108.949L-71.4609 109.315L-70.9425 110.129L-70.6017 110.67L-69.8817 111.817L-69.4594 112.515L-68.0482 114.826L-66.9827 116.589L-65.1731 119.623L-64.4964 120.746L-62.3893 124.295L-60.8869 126.848L-58.4439 130.979L-57.5895 132.443L-54.028 138.511L-48.1579 148.579L-41.8174 159.511L-7.7773 218.47L-16.4745 232.903L-41.5582 232.903M82.7179 277.214L77.2845 277.214L70.2913 277.189L68.3617 277.172L66.5138 277.164L64.0899 277.139L62.1172 277.114L61.5844 277.105L60.5957 277.089L60.2213 277.072L59.5589 277.056L59.3573 277.039L59.0453 277.014L59.0214 277.006L59.0166 276.715L59.1413 276.316L59.247 276.016L59.5205 275.376L59.7077 274.969L60.1157 274.113L60.3557 273.614L60.8885 272.575L61.186 271.993L61.8196 270.796L62.1652 270.147L63.6435 267.453L64.4883 265.99L70.6032 255.349L127.356 255.349L164.501 276.939L101.543 277.197L94.8326 277.214L91.6839 277.214L85.5354 277.222L82.7179 277.214Z" fill="url(#paint15_linear_37_4)"/>
<path d="M-75.3562 254.198L4.2915 254.198L11.7312 241.479L14.707 236.357L16.531 233.182L17.2989 231.818L18.0477 230.505L18.3741 229.923L18.9789 228.809L19.2332 228.352L19.7084 227.495L19.8668 227.171L20.1644 226.606L20.2364 226.448L21.302 224.137L-45.8327 106.193L-9.08551 127.443L51.9006 233.074L27.2921 275.813L-88.0372 275.813M-50.6661 231.702L-53.6035 231.669L-57.5634 231.594L-58.7105 231.569L-60.9184 231.502L-61.84 231.469L-63.5583 231.403L-64.2255 231.361L-65.4014 231.286L-65.7614 231.245L-66.3182 231.161L-66.347 231.112L-66.299 230.779L-66.1454 230.363L-66.0158 230.072L-65.7278 229.424L-65.5358 229.025L-65.123 228.177L-64.8686 227.686L-63.7599 225.567L-63.0735 224.328L-61.6192 221.726L-60.808 220.337L-54.9091 210.187L-36.9387 209.721L-84.0966 127.177L-78.2744 117.109L-76.6857 114.407L-75.9417 113.202L-74.5162 110.915L-73.9066 110.009L-73.3259 109.136L-73.0763 108.77L-72.5915 108.097L-72.3899 107.848L-72.0299 107.39L-71.8955 107.257L-71.6699 107.05L-71.6123 107.05L-71.3627 107.332L-71.0364 107.798L-70.7964 108.164L-70.278 108.978L-69.9372 109.519L-69.2172 110.666L-68.7949 111.364L-67.3837 113.675L-66.3182 115.438L-64.5086 118.472L-63.8319 119.595L-61.7248 123.144L-60.2224 125.697L-57.7794 129.829L-56.925 131.292L-53.3635 137.361L-47.4934 147.428L-41.1529 158.36L-7.1128 217.32L-15.81 231.752L-40.8937 231.752M83.3824 276.063L77.949 276.063L70.9558 276.038L69.0262 276.021L67.1783 276.013L64.7544 275.988L62.7817 275.963L62.2489 275.954L61.2602 275.938L60.8858 275.921L60.2234 275.905L60.0218 275.888L59.7098 275.863L59.6859 275.855L59.6811 275.564L59.8058 275.165L59.9115 274.865L60.185 274.225L60.3722 273.818L60.7802 272.962L61.0202 272.463L61.553 271.424L61.8505 270.842L62.4841 269.645L62.8297 268.996L64.308 266.303L65.1528 264.839L71.2677 254.198L128.02 254.198L165.166 275.788L102.207 276.046L95.4971 276.063L92.3484 276.063L86.1999 276.071L83.3824 276.063Z" fill="url(#paint16_linear_37_4)"/>
<path d="M-74.6917 253.047L4.956 253.047L12.3957 240.328L15.3715 235.206L17.1955 232.031L17.9634 230.667L18.7122 229.354L19.0386 228.772L19.6434 227.658L19.8977 227.201L20.3729 226.344L20.5313 226.02L20.8289 225.455L20.9009 225.297L21.9665 222.986L-45.1682 105.042L-8.421 126.292L52.5651 231.923L27.9566 274.662L-87.3727 274.662M-50.0016 230.551L-52.939 230.518L-56.8989 230.443L-58.046 230.418L-60.2539 230.351L-61.1755 230.318L-62.8938 230.252L-63.561 230.21L-64.7369 230.135L-65.0969 230.094L-65.6537 230.011L-65.6825 229.961L-65.6345 229.628L-65.4809 229.212L-65.3513 228.921L-65.0633 228.273L-64.8713 227.874L-64.4585 227.026L-64.2041 226.536L-63.0954 224.416L-62.409 223.177L-60.9547 220.575L-60.1435 219.186L-54.2446 209.036L-36.2742 208.57L-83.4321 126.026L-77.6099 115.958L-76.0212 113.256L-75.2772 112.051L-73.8517 109.764L-73.2421 108.858L-72.6614 107.985L-72.4118 107.62L-71.927 106.946L-71.7254 106.697L-71.3654 106.239L-71.231 106.106L-71.0054 105.899L-70.9478 105.899L-70.6982 106.181L-70.3719 106.647L-70.1319 107.013L-69.6135 107.827L-69.2727 108.368L-68.5527 109.515L-68.1304 110.213L-66.7192 112.524L-65.6537 114.287L-63.8441 117.321L-63.1674 118.444L-61.0603 121.994L-59.5579 124.546L-57.1149 128.678L-56.2605 130.141L-52.699 136.21L-46.8289 146.277L-40.4884 157.209L-6.4483 216.169L-15.1455 230.601L-40.2292 230.601M84.0469 274.912L78.6135 274.912L71.6203 274.887L69.6907 274.87L67.8428 274.862L65.4189 274.837L63.4462 274.812L62.9134 274.804L61.9247 274.787L61.5503 274.77L60.8879 274.754L60.6863 274.737L60.3743 274.712L60.3504 274.704L60.3456 274.413L60.4703 274.014L60.576 273.714L60.8495 273.074L61.0367 272.667L61.4447 271.811L61.6847 271.312L62.2175 270.273L62.515 269.691L63.1486 268.494L63.4942 267.845L64.9725 265.152L65.8173 263.688L71.9322 253.047L128.685 253.047L165.83 274.637L102.872 274.895L96.1616 274.912L93.0129 274.912L86.8644 274.92L84.0469 274.912Z" fill="url(#paint17_linear_37_4)"/>
<path d="M-74.0272 251.896L5.6205 251.896L13.0602 239.177L16.036 234.056L17.86 230.88L18.6279 229.516L19.3767 228.203L19.7031 227.621L20.3078 226.507L20.5622 226.05L21.0374 225.193L21.1958 224.869L21.4934 224.304L21.5654 224.146L22.631 221.835L-44.5037 103.891L-7.75651 125.141L53.2296 230.772L28.6211 273.511L-86.7082 273.511M-49.3371 229.4L-52.2745 229.367L-56.2344 229.292L-57.3815 229.267L-59.5894 229.2L-60.511 229.167L-62.2293 229.101L-62.8965 229.059L-64.0724 228.984L-64.4324 228.943L-64.9892 228.86L-65.018 228.81L-64.97 228.477L-64.8164 228.061L-64.6868 227.771L-64.3988 227.122L-64.2068 226.723L-63.794 225.875L-63.5396 225.385L-62.4309 223.265L-61.7445 222.026L-60.2902 219.424L-59.479 218.035L-53.5801 207.885L-35.6097 207.419L-82.7676 124.875L-76.9454 114.807L-75.3567 112.105L-74.6127 110.9L-73.1872 108.613L-72.5776 107.707L-71.9969 106.834L-71.7473 106.469L-71.2625 105.795L-71.0609 105.546L-70.7009 105.089L-70.5665 104.956L-70.3409 104.748L-70.2833 104.748L-70.0337 105.03L-69.7074 105.496L-69.4674 105.862L-68.949 106.676L-68.6082 107.217L-67.8882 108.364L-67.4659 109.062L-66.0547 111.374L-64.9892 113.136L-63.1796 116.17L-62.5029 117.293L-60.3958 120.843L-58.8934 123.395L-56.4504 127.527L-55.596 128.99L-52.0345 135.059L-46.1644 145.126L-39.8239 156.058L-5.7838 215.018L-14.481 229.45L-39.5647 229.45M84.7114 273.761L79.278 273.761L72.2848 273.736L70.3552 273.719L68.5073 273.711L66.0834 273.686L64.1107 273.661L63.5779 273.653L62.5892 273.636L62.2148 273.619L61.5524 273.603L61.3508 273.586L61.0388 273.561L61.0149 273.553L61.0101 273.262L61.1348 272.863L61.2405 272.564L61.514 271.923L61.7012 271.516L62.1092 270.66L62.3492 270.161L62.882 269.122L63.1795 268.54L63.8131 267.343L64.1587 266.694L65.6371 264.001L66.4818 262.537L72.5967 251.896L129.349 251.896L166.495 273.486L103.536 273.744L96.8261 273.761L93.6774 273.761L87.5289 273.769L84.7114 273.761Z" fill="url(#paint18_linear_37_4)"/>
<path d="M-73.3627 250.745L6.285 250.745L13.7247 238.026L16.7005 232.905L18.5245 229.729L19.2924 228.365L20.0412 227.052L20.3676 226.47L20.9724 225.356L21.2267 224.899L21.7019 224.042L21.8603 223.718L22.1579 223.153L22.2299 222.995L23.2955 220.684L-43.8392 102.74L-7.09201 123.99L53.8941 229.621L29.2856 272.36L-86.0437 272.36M-48.6726 228.249L-51.61 228.216L-55.5699 228.141L-56.717 228.116L-58.9249 228.049L-59.8465 228.016L-61.5648 227.95L-62.232 227.908L-63.4079 227.833L-63.7679 227.792L-64.3247 227.709L-64.3535 227.659L-64.3055 227.326L-64.1519 226.911L-64.0223 226.62L-63.7343 225.971L-63.5423 225.572L-63.1295 224.724L-62.8751 224.234L-61.7664 222.114L-61.08 220.875L-59.6257 218.273L-58.8145 216.884L-52.9156 206.734L-34.9452 206.268L-82.1031 123.724L-76.2809 113.656L-74.6922 110.954L-73.9482 109.749L-72.5227 107.463L-71.9131 106.556L-71.3324 105.683L-71.0828 105.318L-70.598 104.644L-70.3964 104.395L-70.0364 103.938L-69.902 103.805L-69.6764 103.597L-69.6188 103.597L-69.3692 103.879L-69.0429 104.345L-68.8029 104.711L-68.2845 105.525L-67.9437 106.066L-67.2237 107.213L-66.8014 107.911L-65.3902 110.223L-64.3247 111.985L-62.5151 115.019L-61.8384 116.142L-59.7313 119.692L-58.2289 122.244L-55.7859 126.376L-54.9315 127.839L-51.37 133.908L-45.4999 143.975L-39.1594 154.908L-5.1193 213.867L-13.8165 228.299L-38.9002 228.299M85.3759 272.61L79.9425 272.61L72.9493 272.585L71.0197 272.568L69.1718 272.56L66.7479 272.535L64.7752 272.51L64.2424 272.502L63.2537 272.485L62.8793 272.468L62.2169 272.452L62.0153 272.435L61.7033 272.41L61.6794 272.402L61.6746 272.111L61.7993 271.712L61.905 271.413L62.1785 270.772L62.3657 270.365L62.7737 269.509L63.0137 269.01L63.5465 267.971L63.844 267.389L64.4776 266.192L64.8232 265.543L66.3015 262.85L67.1463 261.387L73.2612 250.745L130.014 250.745L167.159 272.335L104.201 272.593L97.4906 272.61L94.3419 272.61L88.1934 272.618L85.3759 272.61Z" fill="url(#paint19_linear_37_4)"/>
<path d="M-72.6982 249.594L6.9495 249.594L14.3892 236.875L17.365 231.754L19.189 228.578L19.9569 227.214L20.7057 225.901L21.0321 225.319L21.6369 224.205L21.8912 223.748L22.3664 222.891L22.5248 222.567L22.8224 222.002L22.8944 221.844L23.96 219.533L-43.1747 101.59L-6.4275 122.839L54.5586 228.47L29.9501 271.209L-85.3792 271.209M-48.0081 227.098L-50.9455 227.065L-54.9054 226.99L-56.0525 226.965L-58.2604 226.899L-59.182 226.865L-60.9003 226.799L-61.5675 226.757L-62.7434 226.682L-63.1034 226.641L-63.6602 226.558L-63.689 226.508L-63.641 226.175L-63.4874 225.76L-63.3578 225.469L-63.0698 224.82L-62.8778 224.421L-62.465 223.573L-62.2106 223.083L-61.1019 220.963L-60.4155 219.724L-58.9612 217.122L-58.15 215.734L-52.2511 205.583L-34.2807 205.117L-81.4386 122.573L-75.6164 112.505L-74.0277 109.803L-73.2837 108.598L-71.8582 106.312L-71.2486 105.405L-70.6679 104.532L-70.4183 104.167L-69.9335 103.493L-69.7319 103.244L-69.3719 102.787L-69.2375 102.654L-69.0119 102.446L-68.9543 102.446L-68.7047 102.728L-68.3784 103.194L-68.1384 103.56L-67.62 104.375L-67.2792 104.915L-66.5592 106.062L-66.1369 106.761L-64.7257 109.072L-63.6602 110.834L-61.8506 113.869L-61.1739 114.991L-59.0668 118.541L-57.5644 121.093L-55.1214 125.225L-54.267 126.688L-50.7055 132.757L-44.8354 142.824L-38.4949 153.757L-4.4548 212.716L-13.152 227.148L-38.2357 227.148M86.0404 271.459L80.607 271.459L73.6138 271.434L71.6842 271.417L69.8363 271.409L67.4124 271.384L65.4397 271.359L64.9069 271.351L63.9182 271.334L63.5438 271.317L62.8814 271.301L62.6798 271.284L62.3678 271.259L62.3439 271.251L62.3391 270.96L62.4638 270.561L62.5695 270.262L62.843 269.621L63.0302 269.214L63.4382 268.358L63.6782 267.859L64.211 266.82L64.5085 266.238L65.1421 265.041L65.4877 264.392L66.966 261.699L67.8108 260.236L73.9257 249.594L130.678 249.594L167.824 271.184L104.865 271.442L98.1551 271.459L95.0064 271.459L88.8579 271.467L86.0404 271.459Z" fill="url(#paint20_linear_37_4)"/>
<path d="M-72.0337 248.443L7.614 248.443L15.0537 235.724L18.0295 230.603L19.8535 227.427L20.6214 226.064L21.3702 224.75L21.6966 224.168L22.3013 223.054L22.5557 222.597L23.0309 221.741L23.1893 221.416L23.4869 220.851L23.5589 220.693L24.6245 218.382L-42.5102 100.439L-5.76301 121.688L55.2231 227.319L30.6146 270.058L-84.7147 270.058M-47.3436 225.947L-50.281 225.914L-54.2409 225.839L-55.388 225.814L-57.5959 225.748L-58.5175 225.714L-60.2358 225.648L-60.903 225.606L-62.0789 225.531L-62.4389 225.49L-62.9957 225.407L-63.0245 225.357L-62.9765 225.024L-62.8229 224.609L-62.6933 224.318L-62.4053 223.669L-62.2133 223.27L-61.8005 222.422L-61.5461 221.932L-60.4374 219.812L-59.751 218.573L-58.2967 215.971L-57.4855 214.583L-51.5866 204.432L-33.6162 203.966L-80.7741 121.422L-74.9519 111.354L-73.3632 108.652L-72.6192 107.447L-71.1937 105.161L-70.5841 104.254L-70.0034 103.382L-69.7538 103.016L-69.269 102.342L-69.0674 102.093L-68.7074 101.636L-68.573 101.503L-68.3474 101.295L-68.2898 101.295L-68.0402 101.578L-67.7139 102.043L-67.4739 102.409L-66.9555 103.224L-66.6147 103.764L-65.8947 104.911L-65.4724 105.61L-64.0612 107.921L-62.9957 109.683L-61.1861 112.718L-60.5094 113.84L-58.4023 117.39L-56.8999 119.942L-54.4569 124.074L-53.6025 125.537L-50.041 131.606L-44.1709 141.673L-37.8304 152.606L-3.7903 211.565L-12.4875 225.997L-37.5712 225.997M86.7049 270.308L81.2715 270.308L74.2783 270.283L72.3487 270.266L70.5008 270.258L68.0769 270.233L66.1042 270.208L65.5714 270.2L64.5827 270.183L64.2083 270.166L63.5459 270.15L63.3443 270.133L63.0323 270.108L63.0084 270.1L63.0036 269.809L63.1283 269.41L63.234 269.111L63.5075 268.471L63.6947 268.063L64.1027 267.207L64.3427 266.708L64.8755 265.669L65.173 265.087L65.8066 263.89L66.1522 263.241L67.6305 260.548L68.4753 259.085L74.5902 248.443L131.343 248.443L168.488 270.033L105.53 270.291L98.8196 270.308L95.6709 270.308L89.5224 270.316L86.7049 270.308Z" fill="url(#paint21_linear_37_4)"/>
<path d="M-71.3692 247.292L8.2785 247.292L15.7182 234.573L18.694 229.452L20.518 226.276L21.2859 224.913L22.0347 223.599L22.3611 223.017L22.9659 221.903L23.2202 221.446L23.6954 220.59L23.8538 220.265L24.1514 219.7L24.2234 219.542L25.289 217.231L-41.8457 99.2876L-5.09851 120.537L55.8876 226.168L31.2791 268.907L-84.0502 268.907M-46.6791 224.796L-49.6165 224.763L-53.5764 224.688L-54.7235 224.663L-56.9314 224.597L-57.853 224.563L-59.5713 224.497L-60.2385 224.455L-61.4144 224.381L-61.7744 224.339L-62.3312 224.256L-62.36 224.206L-62.312 223.873L-62.1584 223.458L-62.0288 223.167L-61.7408 222.518L-61.5488 222.119L-61.136 221.271L-60.8816 220.781L-59.7729 218.661L-59.0865 217.422L-57.6322 214.82L-56.821 213.432L-50.9221 203.281L-32.9517 202.815L-80.1096 120.271L-74.2874 110.203L-72.6987 107.501L-71.9547 106.296L-70.5292 104.01L-69.9196 103.104L-69.3389 102.231L-69.0893 101.865L-68.6045 101.191L-68.4029 100.942L-68.0429 100.485L-67.9085 100.352L-67.6829 100.144L-67.6253 100.144L-67.3757 100.427L-67.0494 100.892L-66.8094 101.258L-66.291 102.073L-65.9502 102.613L-65.2302 103.76L-64.8079 104.459L-63.3967 106.77L-62.3312 108.532L-60.5216 111.567L-59.8449 112.689L-57.7378 116.239L-56.2354 118.791L-53.7924 122.923L-52.938 124.386L-49.3765 130.455L-43.5064 140.522L-37.1659 151.455L-3.1258 210.414L-11.823 224.846L-36.9067 224.846M87.3694 269.157L81.936 269.157L74.9428 269.132L73.0132 269.115L71.1653 269.107L68.7414 269.082L66.7687 269.057L66.2359 269.049L65.2472 269.032L64.8728 269.016L64.2104 268.999L64.0088 268.982L63.6968 268.957L63.6729 268.949L63.6681 268.658L63.7928 268.259L63.8984 267.96L64.172 267.32L64.3592 266.912L64.7672 266.056L65.0072 265.557L65.54 264.518L65.8375 263.936L66.4711 262.739L66.8167 262.09L68.295 259.397L69.1398 257.934L75.2547 247.292L132.007 247.292L169.153 268.883L106.194 269.14L99.4841 269.157L96.3354 269.157L90.1869 269.165L87.3694 269.157Z" fill="url(#paint22_linear_37_4)"/>
<path d="M-70.7047 246.141L8.943 246.141L16.3827 233.422L19.3585 228.301L21.1825 225.125L21.9504 223.762L22.6992 222.448L23.0256 221.866L23.6304 220.752L23.8847 220.295L24.3599 219.439L24.5183 219.114L24.8159 218.549L24.8879 218.391L25.9535 216.08L-41.1812 98.1367L-4.434 119.386L56.5521 225.017L31.9436 267.757L-83.3857 267.757M-46.0146 223.645L-48.952 223.612L-52.9119 223.537L-54.059 223.512L-56.2669 223.446L-57.1885 223.412L-58.9068 223.346L-59.574 223.304L-60.7499 223.23L-61.1099 223.188L-61.6667 223.105L-61.6955 223.055L-61.6475 222.722L-61.4939 222.307L-61.3643 222.016L-61.0763 221.367L-60.8843 220.968L-60.4715 220.12L-60.2171 219.63L-59.1084 217.51L-58.422 216.271L-56.9677 213.669L-56.1565 212.281L-50.2576 202.13L-32.2872 201.664L-79.4451 119.12L-73.6229 109.052L-72.0342 106.35L-71.2902 105.145L-69.8647 102.859L-69.2551 101.953L-68.6744 101.08L-68.4248 100.714L-67.94 100.04L-67.7384 99.7911L-67.3784 99.3338L-67.244 99.2008L-67.0184 98.993L-66.9608 98.993L-66.7112 99.2756L-66.3849 99.7412L-66.1449 100.107L-65.6265 100.922L-65.2857 101.462L-64.5657 102.609L-64.1434 103.308L-62.7322 105.619L-61.6667 107.381L-59.8571 110.416L-59.1804 111.538L-57.0733 115.088L-55.5709 117.64L-53.1279 121.772L-52.2735 123.235L-48.712 129.304L-42.8419 139.372L-36.5014 150.304L-2.4613 209.263L-11.1585 223.695L-36.2422 223.695M88.0339 268.006L82.6005 268.006L75.6073 267.981L73.6777 267.964L71.8298 267.956L69.4059 267.931L67.4332 267.906L66.9004 267.898L65.9117 267.881L65.5373 267.865L64.8749 267.848L64.6733 267.831L64.3613 267.806L64.3374 267.798L64.3326 267.507L64.4573 267.108L64.563 266.809L64.8365 266.169L65.0237 265.761L65.4317 264.905L65.6717 264.406L66.2045 263.367L66.502 262.785L67.1356 261.588L67.4812 260.939L68.9595 258.246L69.8043 256.783L75.9192 246.141L132.672 246.142L169.817 267.732L106.859 267.989L100.149 268.006L96.9999 268.006L90.8514 268.014L88.0339 268.006Z" fill="url(#paint23_linear_37_4)"/>
<path d="M-70.0402 244.991L9.6075 244.991L17.0472 232.271L20.023 227.15L21.847 223.974L22.6149 222.611L23.3637 221.297L23.6901 220.715L24.2948 219.601L24.5492 219.144L25.0244 218.288L25.1828 217.963L25.4804 217.398L25.5524 217.24L26.618 214.929L-40.5167 96.9857L-3.76951 118.235L57.2166 223.866L32.6081 266.606L-82.7212 266.606M-45.3501 222.494L-48.2875 222.461L-52.2474 222.386L-53.3945 222.361L-55.6024 222.295L-56.524 222.261L-58.2423 222.195L-58.9095 222.153L-60.0854 222.079L-60.4454 222.037L-61.0022 221.954L-61.031 221.904L-60.983 221.571L-60.8294 221.156L-60.6998 220.865L-60.4118 220.216L-60.2198 219.817L-59.807 218.969L-59.5526 218.479L-58.4439 216.359L-57.7575 215.12L-56.3032 212.518L-55.492 211.13L-49.5931 200.979L-31.6227 200.513L-78.7806 117.969L-72.9584 107.901L-71.3697 105.199L-70.6257 103.994L-69.2002 101.708L-68.5906 100.802L-68.0099 99.9287L-67.7603 99.5629L-67.2755 98.8895L-67.0739 98.6401L-66.7139 98.1829L-66.5795 98.0499L-66.3539 97.842L-66.2963 97.842L-66.0467 98.1247L-65.7204 98.5902L-65.4804 98.956L-64.962 99.7708L-64.6212 100.311L-63.9012 101.458L-63.4789 102.157L-62.0677 104.468L-61.0022 106.23L-59.1926 109.265L-58.5159 110.387L-56.4088 113.937L-54.9064 116.489L-52.4634 120.621L-51.609 122.084L-48.0475 128.153L-42.1774 138.221L-35.8369 149.153L-1.7968 208.112L-10.494 222.544L-35.5777 222.544M88.6984 266.855L83.265 266.855L76.2718 266.83L74.3422 266.813L72.4943 266.805L70.0704 266.78L68.0977 266.755L67.5649 266.747L66.5762 266.73L66.2018 266.714L65.5394 266.697L65.3378 266.68L65.0258 266.655L65.0019 266.647L64.9971 266.356L65.1218 265.957L65.2274 265.658L65.501 265.018L65.6882 264.61L66.0962 263.754L66.3362 263.255L66.869 262.216L67.1665 261.634L67.8001 260.437L68.1457 259.789L69.624 257.095L70.4688 255.632L76.5837 244.991L133.336 244.991L170.482 266.581L107.523 266.838L100.813 266.855L97.6644 266.855L91.5159 266.863L88.6984 266.855Z" fill="url(#paint24_linear_37_4)"/>
<path d="M-69.3757 243.84L10.272 243.84L17.7117 231.12L20.6875 225.999L22.5115 222.823L23.2794 221.46L24.0282 220.146L24.3546 219.564L24.9594 218.45L25.2137 217.993L25.6889 217.137L25.8473 216.812L26.1449 216.247L26.2169 216.089L27.2825 213.778L-39.8522 95.8348L-3.10501 117.084L57.8811 222.715L33.2726 265.455L-82.0567 265.455M-44.6856 221.343L-47.623 221.31L-51.5829 221.235L-52.73 221.21L-54.9379 221.144L-55.8595 221.111L-57.5778 221.044L-58.245 221.002L-59.4209 220.928L-59.7809 220.886L-60.3377 220.803L-60.3665 220.753L-60.3185 220.421L-60.1649 220.005L-60.0353 219.714L-59.7473 219.065L-59.5553 218.666L-59.1425 217.818L-58.8881 217.328L-57.7794 215.208L-57.093 213.969L-55.6387 211.367L-54.8275 209.979L-48.9286 199.828L-30.9582 199.363L-78.1161 116.818L-72.2939 106.75L-70.7052 104.049L-69.9612 102.843L-68.5357 100.557L-67.9261 99.6507L-67.3454 98.7778L-67.0958 98.412L-66.611 97.7386L-66.4094 97.4892L-66.0494 97.0319L-65.915 96.8989L-65.6894 96.6911L-65.6318 96.6911L-65.3822 96.9737L-65.0559 97.4393L-64.8159 97.8051L-64.2975 98.6198L-63.9567 99.1602L-63.2367 100.307L-62.8144 101.006L-61.4032 103.317L-60.3377 105.079L-58.5281 108.114L-57.8514 109.236L-55.7443 112.786L-54.2419 115.338L-51.7989 119.47L-50.9445 120.933L-47.383 127.002L-41.5129 137.07L-35.1724 148.002L-1.1323 206.961L-9.82953 221.393L-34.9132 221.393M89.3629 265.704L83.9295 265.704L76.9363 265.679L75.0067 265.662L73.1588 265.654L70.7349 265.629L68.7622 265.604L68.2294 265.596L67.2407 265.579L66.8663 265.563L66.2039 265.546L66.0023 265.529L65.6903 265.505L65.6664 265.496L65.6616 265.205L65.7863 264.806L65.8919 264.507L66.1655 263.867L66.3527 263.459L66.7607 262.603L67.0007 262.104L67.5335 261.065L67.831 260.483L68.4646 259.286L68.8102 258.638L70.2885 255.944L71.1333 254.481L77.2482 243.84L134.001 243.84L171.146 265.43L108.188 265.687L101.478 265.704L98.3289 265.704L92.1804 265.712L89.3629 265.704Z" fill="url(#paint25_linear_37_4)"/>
<path d="M-68.7112 242.689L10.9365 242.689L18.3762 229.969L21.352 224.848L23.176 221.672L23.9439 220.309L24.6927 218.995L25.0191 218.413L25.6239 217.299L25.8782 216.842L26.3534 215.986L26.5118 215.662L26.8094 215.096L26.8814 214.938L27.947 212.627L-39.1877 94.6838L-2.4405 115.933L58.5456 221.564L33.9371 264.304L-81.3922 264.304M-44.0211 220.192L-46.9585 220.159L-50.9184 220.084L-52.0655 220.059L-54.2734 219.993L-55.195 219.96L-56.9133 219.893L-57.5805 219.852L-58.7564 219.777L-59.1164 219.735L-59.6732 219.652L-59.702 219.602L-59.654 219.27L-59.5004 218.854L-59.3708 218.563L-59.0828 217.914L-58.8908 217.515L-58.478 216.667L-58.2236 216.177L-57.1149 214.057L-56.4285 212.818L-54.9742 210.216L-54.163 208.828L-48.2641 198.677L-30.2937 198.212L-77.4516 115.667L-71.6294 105.599L-70.0407 102.898L-69.2967 101.692L-67.8712 99.4059L-67.2616 98.4997L-66.6809 97.6268L-66.4313 97.261L-65.9465 96.5876L-65.7449 96.3382L-65.3849 95.881L-65.2505 95.748L-65.0249 95.5401L-64.9673 95.5401L-64.7177 95.8228L-64.3914 96.2883L-64.1514 96.6541L-63.633 97.4689L-63.2922 98.0092L-62.5722 99.1565L-62.1499 99.8548L-60.7387 102.166L-59.6732 103.928L-57.8636 106.963L-57.1869 108.085L-55.0798 111.635L-53.5774 114.187L-51.1344 118.319L-50.28 119.782L-46.7185 125.851L-40.8484 135.919L-34.5079 146.851L-0.467799 205.81L-9.16503 220.242L-34.2487 220.242M90.0274 264.553L84.594 264.553L77.6008 264.528L75.6712 264.512L73.8233 264.503L71.3994 264.478L69.4267 264.453L68.8939 264.445L67.9052 264.428L67.5308 264.412L66.8684 264.395L66.6668 264.379L66.3548 264.354L66.3309 264.345L66.3261 264.054L66.4508 263.655L66.5564 263.356L66.83 262.716L67.0172 262.308L67.4252 261.452L67.6652 260.953L68.198 259.914L68.4955 259.332L69.1291 258.135L69.4747 257.487L70.953 254.793L71.7978 253.33L77.9127 242.689L134.665 242.689L171.811 264.279L108.852 264.536L102.142 264.553L98.9934 264.553L92.8449 264.561L90.0274 264.553Z" fill="url(#paint26_linear_37_4)"/>
<path d="M-68.0467 241.538L11.601 241.538L19.0407 228.818L22.0165 223.697L23.8405 220.521L24.6084 219.158L25.3572 217.844L25.6836 217.262L26.2883 216.148L26.5427 215.691L27.0179 214.835L27.1763 214.511L27.4739 213.945L27.5459 213.787L28.6115 211.476L-38.5232 93.5329L-1.77601 114.782L59.2101 220.413L34.6016 263.153L-80.7277 263.153M-43.3566 219.041L-46.294 219.008L-50.2539 218.933L-51.401 218.908L-53.6089 218.842L-54.5305 218.809L-56.2488 218.742L-56.916 218.701L-58.0919 218.626L-58.4519 218.584L-59.0087 218.501L-59.0375 218.451L-58.9895 218.119L-58.8359 217.703L-58.7063 217.412L-58.4183 216.764L-58.2263 216.364L-57.8135 215.517L-57.5591 215.026L-56.4504 212.906L-55.764 211.667L-54.3097 209.065L-53.4985 207.677L-47.5996 197.526L-29.6292 197.061L-76.7871 114.516L-70.9649 104.448L-69.3762 101.747L-68.6322 100.541L-67.2067 98.255L-66.5971 97.3488L-66.0164 96.4759L-65.7668 96.1101L-65.282 95.4367L-65.0804 95.1873L-64.7204 94.73L-64.586 94.597L-64.3604 94.3892L-64.3028 94.3892L-64.0532 94.6718L-63.7269 95.1374L-63.4869 95.5032L-62.9685 96.3179L-62.6277 96.8583L-61.9077 98.0056L-61.4854 98.7039L-60.0742 101.015L-59.0087 102.777L-57.1991 105.812L-56.5224 106.934L-54.4153 110.484L-52.9129 113.036L-50.4699 117.168L-49.6155 118.631L-46.054 124.7L-40.1839 134.768L-33.8434 145.7L0.196702 204.659L-8.50053 219.091L-33.5842 219.091M90.6919 263.402L85.2585 263.402L78.2653 263.377L76.3357 263.361L74.4878 263.352L72.0639 263.327L70.0912 263.302L69.5584 263.294L68.5697 263.277L68.1953 263.261L67.5329 263.244L67.3313 263.228L67.0193 263.203L66.9954 263.194L66.9906 262.903L67.1153 262.504L67.2209 262.205L67.4945 261.565L67.6817 261.158L68.0897 260.301L68.3297 259.802L68.8625 258.763L69.16 258.181L69.7936 256.984L70.1392 256.336L71.6175 253.642L72.4623 252.179L78.5772 241.538L135.33 241.538L172.475 263.128L109.517 263.386L102.807 263.402L99.6579 263.402L93.5094 263.41L90.6919 263.402Z" fill="url(#paint27_linear_37_4)"/>
</mask>
<g mask="url(#mask0_37_4)">
<g opacity="0.6" filter="url(#filter0_f_37_4)">
<path d="M-68.156 241.727L-28.3274 241.727L11.4916 241.727L18.9313 229.007L21.9072 223.886L23.7311 220.71L24.4991 219.347L25.2478 218.033L25.5742 217.452L26.179 216.337L26.4334 215.88L26.9086 215.024L27.0669 214.7L27.3645 214.134L27.4365 213.976L28.5021 211.665L-38.6325 93.722L-20.259 104.347L-1.88538 114.971L28.6077 167.787L59.1007 220.602L46.7941 241.968L34.4922 263.342L-80.8371 263.342M-43.4659 219.231L-46.4034 219.197L-47.7521 219.172L-50.3632 219.123L-51.5104 219.098L-53.7183 219.031L-54.6399 218.998L-56.3582 218.931L-57.0253 218.89L-58.2013 218.815L-58.5613 218.773L-59.118 218.69L-59.1468 218.64L-59.0988 218.308L-58.9452 217.892L-58.8157 217.601L-58.5277 216.953L-58.3357 216.554L-57.9229 215.706L-57.6685 215.215L-56.5598 213.095L-55.8734 211.857L-54.419 209.254L-53.6079 207.866L-47.709 197.715L-38.7237 197.483L-29.7385 197.25L-53.3199 155.973L-76.8965 114.705L-71.0743 104.638L-69.4856 101.936L-68.7416 100.73L-67.3161 98.4441L-66.7065 97.5379L-66.1257 96.665L-65.8761 96.2992L-65.3914 95.6258L-65.1898 95.3764L-64.8298 94.9192L-64.6954 94.7862L-64.4698 94.5783L-64.4122 94.5783L-64.1626 94.861L-63.8362 95.3265L-63.5962 95.6923L-63.0779 96.5071L-62.7371 97.0474L-62.0171 98.1947L-61.5947 98.893L-60.702 100.356L-60.1836 101.204L-59.118 102.967L-58.5277 103.956L-57.3085 106.001L-56.6318 107.123L-55.2638 109.426L-54.5246 110.673L-53.0223 113.225L-52.2207 114.581L-50.5792 117.357L-49.7248 118.82L-46.1634 124.889L-44.2387 128.19L-40.2933 134.957L-38.2054 138.557L-33.9528 145.889L0.0873357 204.848L-4.26127 212.064L-8.60988 219.28L-33.6936 219.28M90.5825 263.591L85.1492 263.591L82.7445 263.583L78.1559 263.566L76.2264 263.55L74.3784 263.541L73.5481 263.533L71.9545 263.516L71.2778 263.508L69.9818 263.492L69.4491 263.483L68.4603 263.467L68.0859 263.45L67.4236 263.433L67.222 263.417L66.91 263.392L66.886 263.383L66.8812 263.092L67.006 262.693L67.1116 262.394L67.3852 261.754L67.5723 261.347L67.9803 260.49L68.2203 259.992L68.7531 258.952L69.0507 258.37L69.6843 257.173L70.0298 256.525L71.5082 253.831L72.3529 252.368L78.4679 241.727L135.221 241.727L153.786 252.518L172.366 263.317L119.952 263.533L109.407 263.575L102.697 263.591L99.5485 263.591L93.4 263.6L90.5825 263.591Z" fill="url(#paint28_linear_37_4)"/>
</g>
</g>
<path d="M-77.3497 257.651L-37.5211 257.651L2.29795 257.651L9.73763 244.932L12.7135 239.81L14.5374 236.635L15.3054 235.271L16.0542 233.958L16.3805 233.376L16.9853 232.262L17.2397 231.805L17.7149 230.948L17.8733 230.624L18.1709 230.059L18.2429 229.901L19.3084 227.59L-47.8262 109.646L-29.4526 120.271L-11.079 130.896L19.414 183.711L49.907 236.527L37.6004 257.892L25.2985 279.266L-90.0308 279.266M-52.6596 235.155L-55.5971 235.122L-56.9458 235.097L-59.5569 235.047L-60.7041 235.022L-62.912 234.955L-63.8335 234.922L-65.5518 234.856L-66.219 234.814L-67.395 234.739L-67.7549 234.698L-68.3117 234.615L-68.3405 234.565L-68.2925 234.232L-68.1389 233.816L-68.0093 233.525L-67.7213 232.877L-67.5293 232.478L-67.1166 231.63L-66.8622 231.139L-65.7534 229.02L-65.0671 227.781L-63.6127 225.179L-62.8016 223.79L-56.9026 213.64L-47.9174 213.407L-38.9322 213.174L-62.5136 171.898L-86.0901 130.63L-80.268 120.562L-78.6793 117.86L-77.9353 116.655L-76.5097 114.368L-75.9002 113.462L-75.3194 112.589L-75.0698 112.224L-74.585 111.55L-74.3834 111.301L-74.0235 110.844L-73.8891 110.71L-73.6635 110.503L-73.6059 110.503L-73.3563 110.785L-73.0299 111.251L-72.7899 111.617L-72.2715 112.431L-71.9307 112.972L-71.2108 114.119L-70.7884 114.817L-69.8956 116.281L-69.3773 117.128L-68.3117 118.891L-67.7213 119.88L-66.5022 121.925L-65.8254 123.048L-64.4575 125.351L-63.7183 126.598L-62.216 129.15L-61.4144 130.505L-59.7729 133.282L-58.9185 134.745L-55.3571 140.814L-53.4324 144.114L-49.4869 150.881L-47.3991 154.481L-43.1464 161.813L-9.10633 220.773L-13.4549 227.989L-17.8035 235.205L-42.8872 235.205M81.3889 279.516L75.9555 279.516L73.5508 279.507L68.9622 279.491L67.0327 279.474L65.1848 279.466L64.3544 279.457L62.7609 279.441L62.0841 279.432L60.7882 279.416L60.2554 279.408L59.2666 279.391L58.8922 279.374L58.2299 279.358L58.0283 279.341L57.7163 279.316L57.6923 279.308L57.6875 279.017L57.8123 278.618L57.9179 278.318L58.1915 277.678L58.3787 277.271L58.7867 276.415L59.0266 275.916L59.5594 274.877L59.857 274.295L60.4906 273.098L60.8362 272.449L62.3145 269.756L63.1593 268.292L69.2742 257.651L126.027 257.651L144.592 268.442L163.172 279.241L110.759 279.457L100.214 279.499L93.5035 279.516L90.3549 279.516L84.2063 279.524L81.3889 279.516Z" fill="url(#paint29_linear_37_4)"/>
<defs>
<filter id="filter0_f_37_4" x="-90.8371" y="83.7219" width="273.203" height="189.878" filterUnits="userSpaceOnUse" color-interpolation-filters="sRGB">
<feFlood flood-opacity="0" result="BackgroundImageFix"/>
<feBlend mode="normal" in="SourceGraphic" in2="BackgroundImageFix" result="shape"/>
<feGaussianBlur stdDeviation="5" result="effect1_foregroundBlur_37_4"/>
</filter>
<linearGradient id="paint0_linear_37_4" x1="-25.1234" y1="315.206" x2="67.5137" y2="154.753" gradientUnits="userSpaceOnUse">
<stop stop-color="#94C8E4"/>
<stop offset="1" stop-color="#FDFEFF"/>
</linearGradient>
<linearGradient id="paint1_linear_37_4" x1="-25.1234" y1="315.206" x2="67.5137" y2="154.753" gradientUnits="userSpaceOnUse">
<stop stop-color="#94C8E4"/>
<stop offset="1" stop-color="#FDFEFF"/>
</linearGradient>
<linearGradient id="paint2_linear_37_4" x1="-25.1234" y1="315.206" x2="67.5137" y2="154.753" gradientUnits="userSpaceOnUse">
<stop stop-color="#94C8E4"/>
<stop offset="1" stop-color="#FDFEFF"/>
</linearGradient>
<linearGradient id="paint3_linear_37_4" x1="-25.1234" y1="315.206" x2="67.5137" y2="154.753" gradientUnits="userSpaceOnUse">
<stop stop-color="#94C8E4"/>
<stop offset="1" stop-color="#FDFEFF"/>
</linearGradient>
<linearGradient id="paint4_linear_37_4" x1="-25.1234" y1="315.206" x2="67.5137" y2="154.753" gradientUnits="userSpaceOnUse">
<stop stop-color="#94C8E4"/>
<stop offset="1" stop-color="#FDFEFF"/>
</linearGradient>
<linearGradient id="paint5_linear_37_4" x1="-25.1234" y1="315.206" x2="67.5137" y2="154.753" gradientUnits="userSpaceOnUse">
<stop stop-color="#94C8E4"/>
<stop offset="1" stop-color="#FDFEFF"/>
</linearGradient>
<linearGradient id="paint6_linear_37_4" x1="-25.1234" y1="315.206" x2="67.5137" y2="154.753" gradientUnits="userSpaceOnUse">
<stop stop-color="#94C8E4"/>
<stop offset="1" stop-color="#FDFEFF"/>
</linearGradient>
<linearGradient id="paint7_linear_37_4" x1="-25.1234" y1="315.206" x2="67.5137" y2="154.753" gradientUnits="userSpaceOnUse">
<stop stop-color="#94C8E4"/>
<stop offset="1" stop-color="#FDFEFF"/>
</linearGradient>
<linearGradient id="paint8_linear_37_4" x1="-25.1234" y1="315.206" x2="67.5137" y2="154.753" gradientUnits="userSpaceOnUse">
<stop stop-color="#94C8E4"/>
<stop offset="1" stop-color="#FDFEFF"/>
</linearGradient>
<linearGradient id="paint9_linear_37_4" x1="-25.1234" y1="315.206" x2="67.5137" y2="154.753" gradientUnits="userSpaceOnUse">
<stop stop-color="#94C8E4"/>
<stop offset="1" stop-color="#FDFEFF"/>
</linearGradient>
<linearGradient id="paint10_linear_37_4" x1="-25.1234" y1="315.206" x2="67.5137" y2="154.753" gradientUnits="userSpaceOnUse">
<stop stop-color="#94C8E4"/>
<stop offset="1" stop-color="#FDFEFF"/>
</linearGradient>
<linearGradient id="paint11_linear_37_4" x1="-25.1234" y1="315.206" x2="67.5137" y2="154.753" gradientUnits="userSpaceOnUse">
<stop stop-color="#94C8E4"/>
<stop offset="1" stop-color="#FDFEFF"/>
</linearGradient>
<linearGradient id="paint12_linear_37_4" x1="-25.1234" y1="315.206" x2="67.5137" y2="154.753" gradientUnits="userSpaceOnUse">
<stop stop-color="#94C8E4"/>
<stop offset="1" stop-color="#FDFEFF"/>
</linearGradient>
<linearGradient id="paint13_linear_37_4" x1="-25.1234" y1="315.206" x2="67.5137" y2="154.753" gradientUnits="userSpaceOnUse">
<stop stop-color="#94C8E4"/>
<stop offset="1" stop-color="#FDFEFF"/>
</linearGradient>
<linearGradient id="paint14_linear_37_4" x1="-25.1234" y1="315.206" x2="67.5137" y2="154.753" gradientUnits="userSpaceOnUse">
<stop stop-color="#94C8E4"/>
<stop offset="1" stop-color="#FDFEFF"/>
</linearGradient>
<linearGradient id="paint15_linear_37_4" x1="-25.1234" y1="315.206" x2="67.5137" y2="154.753" gradientUnits="userSpaceOnUse">
<stop stop-color="#94C8E4"/>
<stop offset="1" stop-color="#FDFEFF"/>
</linearGradient>
<linearGradient id="paint16_linear_37_4" x1="-25.1234" y1="315.206" x2="67.5137" y2="154.753" gradientUnits="userSpaceOnUse">
<stop stop-color="#94C8E4"/>
<stop offset="1" stop-color="#FDFEFF"/>
</linearGradient>
<linearGradient id="paint17_linear_37_4" x1="-25.1234" y1="315.206" x2="67.5137" y2="154.753" gradientUnits="userSpaceOnUse">
<stop stop-color="#94C8E4"/>
<stop offset="1" stop-color="#FDFEFF"/>
</linearGradient>
<linearGradient id="paint18_linear_37_4" x1="-25.1234" y1="315.206" x2="67.5137" y2="154.753" gradientUnits="userSpaceOnUse">
<stop stop-color="#94C8E4"/>
<stop offset="1" stop-color="#FDFEFF"/>
</linearGradient>
<linearGradient id="paint19_linear_37_4" x1="-25.1234" y1="315.206" x2="67.5137" y2="154.753" gradientUnits="userSpaceOnUse">
<stop stop-color="#94C8E4"/>
<stop offset="1" stop-color="#FDFEFF"/>
</linearGradient>
<linearGradient id="paint20_linear_37_4" x1="-25.1234" y1="315.206" x2="67.5137" y2="154.753" gradientUnits="userSpaceOnUse">
<stop stop-color="#94C8E4"/>
<stop offset="1" stop-color="#FDFEFF"/>
</linearGradient>
<linearGradient id="paint21_linear_37_4" x1="-25.1234" y1="315.206" x2="67.5137" y2="154.753" gradientUnits="userSpaceOnUse">
<stop stop-color="#94C8E4"/>
<stop offset="1" stop-color="#FDFEFF"/>
</linearGradient>
<linearGradient id="paint22_linear_37_4" x1="-25.1234" y1="315.206" x2="67.5137" y2="154.753" gradientUnits="userSpaceOnUse">
<stop stop-color="#94C8E4"/>
<stop offset="1" stop-color="#FDFEFF"/>
</linearGradient>
<linearGradient id="paint23_linear_37_4" x1="-25.1234" y1="315.206" x2="67.5137" y2="154.753" gradientUnits="userSpaceOnUse">
<stop stop-color="#94C8E4"/>
<stop offset="1" stop-color="#FDFEFF"/>
</linearGradient>
<linearGradient id="paint24_linear_37_4" x1="-25.1234" y1="315.206" x2="67.5137" y2="154.753" gradientUnits="userSpaceOnUse">
<stop stop-color="#94C8E4"/>
<stop offset="1" stop-color="#FDFEFF"/>
</linearGradient>
<linearGradient id="paint25_linear_37_4" x1="-25.1234" y1="315.206" x2="67.5137" y2="154.753" gradientUnits="userSpaceOnUse">
<stop stop-color="#94C8E4"/>
<stop offset="1" stop-color="#FDFEFF"/>
</linearGradient>
<linearGradient id="paint26_linear_37_4" x1="-25.1234" y1="315.206" x2="67.5137" y2="154.753" gradientUnits="userSpaceOnUse">
<stop stop-color="#94C8E4"/>
<stop offset="1" stop-color="#FDFEFF"/>
</linearGradient>
<linearGradient id="paint27_linear_37_4" x1="-25.1234" y1="315.206" x2="67.5137" y2="154.753" gradientUnits="userSpaceOnUse">
<stop stop-color="#94C8E4"/>
<stop offset="1" stop-color="#FDFEFF"/>
</linearGradient>
<linearGradient id="paint28_linear_37_4" x1="169.803" y1="207.188" x2="-12.8715" y2="11.6368" gradientUnits="userSpaceOnUse">
<stop stop-color="#FDFEFF"/>
<stop offset="0.824627" stop-color="#94C8E4"/>
</linearGradient>
<linearGradient id="paint29_linear_37_4" x1="36.7268" y1="279.524" x2="36.7268" y2="109.646" gradientUnits="userSpaceOnUse">
<stop stop-color="#94C8E4"/>
<stop offset="1" stop-color="#FDFEFF"/>
</linearGradient>
</defs>
</svg>
