<svg width="17" height="18" viewBox="0 0 17 18" fill="none" xmlns="http://www.w3.org/2000/svg">
<path d="M8.42345 0.896606C6.76191 0.896606 5.13767 1.38931 3.75615 2.31242C2.37462 3.23552 1.29785 4.54757 0.662008 6.08264C0.026162 7.61771 -0.140204 9.30685 0.183947 10.9365C0.508099 12.5661 1.30821 14.063 2.4831 15.2379C3.65799 16.4128 5.15489 17.2129 6.78451 17.537C8.41413 17.8612 10.1033 17.6948 11.6383 17.059C13.1734 16.4231 14.4855 15.3464 15.4086 13.9648C16.3317 12.5833 16.8244 10.9591 16.8244 9.29753C16.8223 7.0701 15.9366 4.9345 14.3615 3.35947C12.7865 1.78444 10.6509 0.898676 8.42345 0.896606ZM11.8463 13.7832C11.7703 13.7942 11.6928 13.7899 11.6185 13.7706C11.5441 13.7514 11.4743 13.7174 11.4132 13.6709C11.3521 13.6243 11.3009 13.566 11.2625 13.4995C11.2242 13.4329 11.1995 13.3593 11.1899 13.2831C11.105 12.7117 10.8297 12.1857 10.4084 11.7905C9.86802 11.2905 9.15964 11.0116 8.42345 11.009C7.76514 10.9888 7.12186 11.2082 6.61308 11.6264C6.10429 12.0446 5.76458 12.6333 5.65701 13.2831C5.63797 13.4246 5.56791 13.5543 5.45999 13.6479C5.35207 13.7414 5.21371 13.7923 5.0709 13.7911H4.99275C4.84242 13.7642 4.70848 13.6798 4.61945 13.5558C4.53041 13.4317 4.49331 13.2778 4.51604 13.1268C4.61454 12.4743 4.88305 11.8593 5.29458 11.3435C5.70612 10.8277 6.24619 10.4293 6.86049 10.1884C6.32916 9.84514 5.92316 9.33916 5.70317 8.74607C5.48318 8.15298 5.461 7.50462 5.63995 6.89789C5.8189 6.29115 6.18937 5.7586 6.696 5.37982C7.20263 5.00103 7.81823 4.79635 8.4508 4.79635C9.08338 4.79635 9.69897 5.00103 10.2056 5.37982C10.7122 5.7586 11.0827 6.29115 11.2617 6.89789C11.4406 7.50462 11.4184 8.15298 11.1984 8.74607C10.9784 9.33916 10.5724 9.84514 10.0411 10.1884C10.4803 10.3764 10.8825 10.641 11.229 10.9699C11.8286 11.5443 12.2168 12.3043 12.3309 13.1268C12.3512 13.2777 12.312 13.4306 12.2216 13.5532C12.1311 13.6757 11.9966 13.7582 11.8463 13.7832Z" fill="white"/>
<path d="M8.42343 9.49286C9.39453 9.49286 10.1818 8.70563 10.1818 7.73453C10.1818 6.76343 9.39453 5.9762 8.42343 5.9762C7.45233 5.9762 6.6651 6.76343 6.6651 7.73453C6.6651 8.70563 7.45233 9.49286 8.42343 9.49286Z" fill="white"/>
</svg>
