<svg width="20" height="20" viewBox="0 0 20 20" fill="none" xmlns="http://www.w3.org/2000/svg">
<path opacity="0.12" d="M17.5 7.5C17.5 10.2614 15.2614 12.5 12.5 12.5C12.2719 12.5 12.0474 12.4847 11.8275 12.4552C11.4657 12.4065 11.2848 12.3822 11.1703 12.3986C11.0511 12.4156 10.9869 12.4373 10.8818 12.4961C10.7808 12.5525 10.6814 12.6519 10.4826 12.8507L6.22386 17.1095C6.07973 17.2536 6.00767 17.3257 5.92357 17.3772C5.84901 17.4229 5.76772 17.4566 5.68269 17.477C5.58679 17.5 5.48487 17.5 5.28105 17.5H3.83333C3.36662 17.5 3.13327 17.5 2.95501 17.4092C2.79821 17.3293 2.67072 17.2018 2.59083 17.045C2.5 16.8667 2.5 16.6334 2.5 16.1667V14.719C2.5 14.5151 2.5 14.4132 2.52303 14.3173C2.54344 14.2323 2.57711 14.151 2.6228 14.0764C2.67433 13.9923 2.7464 13.9203 2.89052 13.7761L7.14928 9.51739C7.34809 9.31857 7.4475 9.21917 7.50391 9.11825C7.56267 9.01312 7.58438 8.94888 7.60143 8.82966C7.6178 8.71521 7.59348 8.53432 7.54484 8.17253C7.51527 7.95256 7.5 7.72807 7.5 7.5C7.5 4.73858 9.73858 2.5 12.5 2.5C15.2614 2.5 17.5 4.73858 17.5 7.5Z" fill="white" fill-opacity="0.4"/>
<path fill-rule="evenodd" clip-rule="evenodd" d="M6.66666 7.49984C6.66666 4.27818 9.27833 1.6665 12.5 1.6665C15.7217 1.6665 18.3333 4.27818 18.3333 7.49984C18.3333 10.7215 15.7217 13.3332 12.5 13.3332C12.2347 13.3332 11.9731 13.3154 11.7164 13.2809C11.5289 13.2557 11.4116 13.2401 11.3261 13.2318C11.3108 13.2303 11.2983 13.2293 11.2882 13.2285C11.2857 13.2308 11.283 13.2333 11.28 13.236C11.2354 13.2766 11.1768 13.3349 11.0719 13.4398L6.81311 17.6986C6.80335 17.7083 6.79334 17.7184 6.78309 17.7287C6.67148 17.8409 6.53094 17.9822 6.35898 18.0876C6.20986 18.179 6.04729 18.2463 5.87723 18.2871C5.68112 18.3342 5.48184 18.3337 5.32358 18.3332C5.30905 18.3332 5.29486 18.3332 5.28105 18.3332L3.80673 18.3332C3.59642 18.3332 3.3916 18.3332 3.21814 18.319C3.02764 18.3035 2.80287 18.2668 2.57668 18.1515C2.26308 17.9917 2.00811 17.7368 1.84832 17.4232C1.73307 17.197 1.69635 16.9722 1.68078 16.7817C1.66661 16.6082 1.66664 16.4034 1.66666 16.1931L1.66666 14.7188C1.66666 14.705 1.66663 14.6908 1.66659 14.6763C1.66616 14.518 1.66563 14.3187 1.71271 14.1226C1.75354 13.9525 1.82088 13.79 1.91226 13.6409C2.01764 13.4689 2.15893 13.3284 2.27114 13.2167C2.28144 13.2065 2.2915 13.1965 2.30127 13.1867L6.56002 8.92797C6.66495 8.82304 6.72328 8.76441 6.76387 8.71983C6.76658 8.71687 6.76904 8.71413 6.77129 8.71162C6.77055 8.70154 6.76951 8.68902 6.76803 8.67377C6.75978 8.58824 6.74414 8.4709 6.71894 8.2834C6.68443 8.02673 6.66666 7.76514 6.66666 7.49984ZM12.5 3.33317C10.1988 3.33317 8.33333 5.19865 8.33333 7.49984C8.33333 7.69066 8.3461 7.87807 8.37074 8.06133L8.37274 8.07617C8.39535 8.24437 8.41536 8.39315 8.42699 8.5136C8.43817 8.62939 8.44942 8.78632 8.42636 8.94749C8.39481 9.16809 8.34004 9.33016 8.23132 9.52467C8.11556 9.73176 7.93271 9.91345 7.78237 10.0628C7.7674 10.0777 7.75276 10.0923 7.73853 10.1065L3.47978 14.3652C3.40258 14.4424 3.3642 14.4811 3.33749 14.5104C3.33679 14.5111 3.33612 14.5119 3.33548 14.5126C3.33543 14.5135 3.33539 14.5145 3.33534 14.5156C3.33353 14.5551 3.33333 14.6096 3.33333 14.7188V16.1665C3.33333 16.4136 3.33398 16.5488 3.34192 16.646C3.34223 16.6498 3.34255 16.6535 3.34287 16.657C3.34633 16.6573 3.34999 16.6576 3.35386 16.6579C3.45101 16.6659 3.58622 16.6665 3.83333 16.6665H5.28105C5.39021 16.6665 5.4447 16.6663 5.48427 16.6645C5.48531 16.6644 5.48631 16.6644 5.48726 16.6644C5.48797 16.6637 5.48871 16.663 5.48948 16.6623C5.51874 16.6356 5.55741 16.5972 5.6346 16.5201L9.89335 12.2613C9.90758 12.2471 9.92213 12.2324 9.93701 12.2175C10.0864 12.0671 10.2681 11.8843 10.4752 11.7685C10.6697 11.6598 10.8318 11.605 11.0523 11.5735C11.2135 11.5504 11.3704 11.5617 11.4862 11.5728C11.6067 11.5845 11.7555 11.6045 11.9237 11.6271L11.9385 11.6291C12.1218 11.6537 12.3092 11.6665 12.5 11.6665C14.8012 11.6665 16.6667 9.80102 16.6667 7.49984C16.6667 5.19865 14.8012 3.33317 12.5 3.33317ZM11.6667 7.49984C11.6667 7.0396 12.0398 6.6665 12.5 6.6665H12.5083C12.9686 6.6665 13.3417 7.0396 13.3417 7.49984C13.3417 7.96007 12.9686 8.33317 12.5083 8.33317H12.5C12.0398 8.33317 11.6667 7.96007 11.6667 7.49984Z" fill="white" fill-opacity="0.4"/>
</svg>
