<svg width="20" height="20" viewBox="0 0 20 20" fill="none" xmlns="http://www.w3.org/2000/svg">
<g clip-path="url(#clip0_543_1143)">
<path d="M3.86719 4.75892V14.8462L5.11478 13.7203V5.90001L12.9959 16.7175L15.7498 15.5765V5.71744L14.5021 6.87374V14.5115L6.51452 3.5874L3.86719 4.75892Z" fill="white" fill-opacity="0.4"/>
<path d="M6.07324 15.1812V8.97363L7.22954 10.495V15.1812L4.94736 17.3416L3.59326 17.5393L6.07324 15.1812Z" fill="white" fill-opacity="0.4"/>
<path d="M12.3872 10.0081L13.5587 11.4991L13.5435 5.53504L16.6625 2.70513L16.0691 2.21826L12.3872 5.53504V10.0081Z" fill="white" fill-opacity="0.4"/>
<path d="M9.9986 0.0566406C10.2357 0.0566406 10.4708 0.0649444 10.7037 0.0812772L9.41427 1.38889C4.92479 1.68929 1.37623 5.42612 1.37623 9.99177C1.37623 11.4536 1.74003 12.8305 2.38203 14.0368L1.40172 14.975C0.550762 13.5101 0.0634766 11.8079 0.0634766 9.99177C0.0634766 4.50474 4.51157 0.0566406 9.9986 0.0566406Z" fill="white" fill-opacity="0.4"/>
<path d="M11.8954 1.57898C11.6284 1.51905 11.3568 1.47151 11.0811 1.43697L12.2005 0.301758C12.4638 0.361341 12.7232 0.431384 12.9782 0.511427L11.8954 1.57898Z" fill="white" fill-opacity="0.4"/>
<path d="M9.99873 19.9272C15.4857 19.9272 19.9338 15.4791 19.9338 9.99211C19.9338 8.40913 19.5636 6.91264 18.905 5.58447L17.8883 6.50822C18.3594 7.57358 18.6211 8.75228 18.6211 9.99211C18.6211 14.5813 15.0358 18.3331 10.5134 18.5993L9.24756 19.8992C9.49552 19.9177 9.746 19.9272 9.99873 19.9272Z" fill="white" fill-opacity="0.4"/>
<path d="M6.95635 19.4527L7.99956 18.3814C6.70168 18.0734 5.5174 17.4718 4.52064 16.6509L3.56641 17.5641C4.54994 18.4004 5.69848 19.0485 6.95635 19.4527Z" fill="white" fill-opacity="0.4"/>
<path d="M13.8085 0.813477L12.7798 1.82786C13.8804 2.20268 14.881 2.79383 15.7309 3.55062L16.7072 2.66358C15.8623 1.88968 14.8831 1.25998 13.8085 0.813477Z" fill="white" fill-opacity="0.4"/>
</g>
<defs>
<clipPath id="clip0_543_1143">
<rect width="20" height="20" fill="white"/>
</clipPath>
</defs>
</svg>
