<svg width="105" height="82" viewBox="0 0 105 82" fill="none" xmlns="http://www.w3.org/2000/svg">
<path d="M94.4408 10.459H77.9474H61.4579L55.336 16.5412L52.8792 18.9899L51.3647 20.5085L50.7207 21.1604L50.0965 21.7885L49.8222 22.0668L49.3055 22.5995L49.0908 22.8181L48.6893 23.2276L48.5462 23.3826L48.2878 23.6529L48.2202 23.7285L47.2264 24.8336L46.8288 81.231L41.7604 76.1505L36.6919 71.0701V45.8152V20.5602L46.8964 10.3437L57.101 0.123234H104.86M78.8378 21.2161L80.0463 21.232L80.5989 21.2439L81.6682 21.2678L82.1373 21.2797L83.0357 21.3115L83.4094 21.3274L84.1051 21.3592L84.3714 21.3791L84.8405 21.4149L84.9797 21.4347L85.1903 21.4745V21.4983L85.091 21.6573L84.928 21.8561L84.8047 21.9952L84.5304 22.3053L84.3555 22.4961L83.9819 22.9016L83.7592 23.1362L82.7933 24.1499L82.2129 24.7422L80.9885 25.9864L80.3206 26.6503L75.4509 31.5041L71.6744 31.6154L67.8979 31.7267L67.7945 51.464L67.6911 71.1973L62.8731 76.0114L61.5692 77.3034L60.9729 77.8798L59.836 78.973L59.3669 79.4063L58.9177 79.8237L58.7269 79.9986L58.3651 80.3206L58.222 80.4399L57.9636 80.6585L57.8762 80.7221L57.7331 80.8215H57.7092L57.6734 80.6863L57.6496 80.4637L57.6376 80.2888L57.6178 79.8992L57.6058 79.6408L57.582 79.0923L57.574 78.7583L57.5542 78.0587L57.5422 77.6532L57.5224 76.8104L57.5144 76.3374L57.4985 75.3595L57.4866 74.8228L57.4707 73.7216L57.4627 73.1254L57.4508 71.9049L57.4429 71.257L57.427 69.9292L57.423 69.2296L57.3991 66.3276L57.3912 64.7494L57.3753 61.5135L57.3713 59.7923L57.3634 56.286V28.0933L60.8894 24.6428L64.4155 21.1922H74.8029M33.933 0.00397613H36.183L37.1769 0.00795075L39.0731 0.0159015L39.8681 0.0238523L40.6314 0.0278269L40.9733 0.031803L41.6292 0.0397538L41.9074 0.0437284L42.4401 0.0516791L42.6588 0.0556553L43.0643 0.0636045L43.2153 0.0715552L43.4856 0.079506L43.5651 0.0874567L43.6884 0.0993821L43.6963 0.103358L43.6287 0.242493L43.4817 0.433306L43.3664 0.576417L43.1 0.882514L42.9251 1.0773L42.5514 1.48676L42.3328 1.72527L41.8637 2.22218L41.6014 2.50045L41.0528 3.07289L40.7546 3.38297L39.4984 4.67096L38.7988 5.37061L33.7223 10.459H10.2205L5.11222 5.29905L0 0.13516L21.7567 0.031803L26.1335 0.0119269L28.9162 0.00397613H30.2201L32.7683 0L33.933 0.00397613Z" fill="url(#paint0_linear_25_28)"/>
<defs>
<linearGradient id="paint0_linear_25_28" x1="52.43" y1="0" x2="52.43" y2="81.231" gradientUnits="userSpaceOnUse">
<stop stop-color="#94C8E4"/>
<stop offset="1" stop-color="#FDFEFF"/>
</linearGradient>
</defs>
</svg>
