<svg width="23" height="22" viewBox="0 0 23 22" fill="none" xmlns="http://www.w3.org/2000/svg">
<rect x="0.346527" width="22" height="22" rx="4.71429" fill="#42BDFF"/>
<path d="M8.20367 8.48571C8.2364 7.60272 8.52871 6.88435 9.08058 6.33061C9.63713 5.77687 10.4065 5.5 11.3886 5.5C12.3053 5.5 13.0512 5.7619 13.6265 6.28571C14.2018 6.80454 14.4894 7.46803 14.4894 8.27619C14.4894 9.35873 13.9983 10.2143 13.0162 10.8429C12.5672 11.1272 12.2609 11.3916 12.0972 11.6361C11.9335 11.8755 11.8516 12.1898 11.8516 12.5789V13.0354H10.3995L10.3924 12.4367C10.3737 11.9179 10.4719 11.4764 10.6871 11.1122C10.9069 10.7481 11.26 10.4088 11.7464 10.0946C12.1767 9.82018 12.476 9.55578 12.6444 9.30136C12.8127 9.04694 12.8969 8.72766 12.8969 8.34354C12.8969 7.91451 12.7519 7.56281 12.462 7.28844C12.172 7.01406 11.7885 6.87687 11.3114 6.87687C10.8297 6.87687 10.4415 7.02154 10.1469 7.31088C9.85226 7.60023 9.68857 7.99184 9.65584 8.48571H8.20367ZM11.1361 16.5C10.8788 16.5 10.6614 16.4077 10.4836 16.2231C10.3059 16.0385 10.2171 15.8091 10.2171 15.5347C10.2171 15.2603 10.3059 15.0308 10.4836 14.8463C10.6614 14.6617 10.8788 14.5694 11.1361 14.5694C11.398 14.5694 11.6178 14.6617 11.7955 14.8463C11.9732 15.0308 12.0621 15.2603 12.0621 15.5347C12.0621 15.8091 11.9732 16.0385 11.7955 16.2231C11.6178 16.4077 11.398 16.5 11.1361 16.5Z" fill="white"/>
</svg>
