<svg width="17" height="16" viewBox="0 0 17 16" fill="none" xmlns="http://www.w3.org/2000/svg">
<path d="M13.5166 1.09588C13.3548 1.10398 13.2022 1.17404 13.0906 1.29155C12.9789 1.40905 12.9168 1.565 12.917 1.72707L13.018 4.25186C13.018 4.41926 13.0845 4.57981 13.2029 4.69818C13.3212 4.81656 13.4818 4.88306 13.6492 4.88306C13.8294 4.88115 14.0016 4.80862 14.1289 4.68107C14.1859 4.62032 14.2303 4.54888 14.2595 4.47088C14.2888 4.39288 14.3023 4.30986 14.2993 4.22661L14.1983 1.70183C14.1983 1.53442 14.1318 1.37387 14.0134 1.2555C13.8951 1.13713 13.7345 1.07063 13.5671 1.07063L13.5166 1.09588Z" fill="white"/>
<path d="M13.5473 1.25397C13.4223 1.26051 13.3048 1.31566 13.2199 1.40765C13.135 1.49963 13.0894 1.62117 13.0928 1.74631L13.1938 4.27109C13.1945 4.33357 13.208 4.39523 13.2336 4.45224C13.2591 4.50926 13.2961 4.56039 13.3423 4.60244C13.3885 4.6445 13.4429 4.67658 13.5021 4.69667C13.5612 4.71677 13.6239 4.72445 13.6862 4.71924C13.8106 4.71431 13.9281 4.66052 14.0132 4.56954C14.0983 4.47857 14.144 4.35773 14.1406 4.23322L14.0396 1.70843C14.0372 1.64625 14.0225 1.58516 13.9964 1.52865C13.9704 1.47214 13.9334 1.42133 13.8877 1.37912C13.842 1.33691 13.7884 1.30413 13.73 1.28266C13.6715 1.26118 13.6095 1.25143 13.5473 1.25397Z" fill="white"/>
<path d="M8.53633 1.01366C8.30018 1.01369 8.0642 1.02633 7.82939 1.05153C6.92208 1.14457 6.04199 1.41546 5.23939 1.84873C4.4368 2.28199 3.72744 2.86915 3.15183 3.57664C2.57622 4.28414 2.14564 5.09811 1.8847 5.97206C1.62376 6.84601 1.53757 7.76281 1.63104 8.67007C1.64674 8.82631 1.72012 8.97108 1.83683 9.07613C1.95354 9.18117 2.10522 9.23894 2.26224 9.23815H2.33167C2.41417 9.22949 2.49414 9.20465 2.56703 9.16506C2.63992 9.12548 2.70429 9.07191 2.75646 9.00743C2.80863 8.94294 2.84758 8.86881 2.87109 8.78926C2.89459 8.70972 2.90219 8.62632 2.89344 8.54384C2.73792 7.04761 3.1822 5.55078 4.12883 4.38168C5.07547 3.21259 6.44715 2.46669 7.94301 2.30761C8.13868 2.30761 8.32804 2.27605 8.52371 2.27605C9.42275 2.2749 10.3092 2.48715 11.1103 2.89535C11.9113 3.30354 12.604 3.89603 13.1314 4.6241C13.1902 4.70452 13.2672 4.76988 13.356 4.81486C13.4449 4.85984 13.5431 4.88315 13.6427 4.88289C13.7757 4.88521 13.9061 4.84545 14.0151 4.76928C14.0827 4.72003 14.1398 4.65784 14.1832 4.58632C14.2265 4.51481 14.2552 4.43539 14.2676 4.35269C14.2928 4.1881 14.252 4.02022 14.154 3.8856C13.5092 2.99912 12.6645 2.27711 11.6885 1.77812C10.7124 1.27914 9.63252 1.01724 8.53633 1.01366Z" fill="white"/>
<path d="M8.53635 1.17174C8.3044 1.17195 8.07263 1.18459 7.84204 1.20961C6.05334 1.39745 4.41219 2.28709 3.27859 3.68339C2.14498 5.07968 1.6115 6.86861 1.79517 8.65773C1.80793 8.78237 1.86957 8.89686 1.96658 8.97613C2.0636 9.0554 2.18808 9.09298 2.31275 9.08064C2.43792 9.06633 2.55243 9.00337 2.63155 8.90534C2.71068 8.80732 2.74807 8.6821 2.73566 8.55674C2.60529 7.27922 2.89975 5.99435 3.57342 4.90109C4.2471 3.80783 5.26242 2.96716 6.46216 2.50926C7.66191 2.05136 8.97915 2.00177 10.2099 2.36817C11.4407 2.73456 12.5164 3.49651 13.2703 4.53602C13.3457 4.63606 13.4573 4.70263 13.5811 4.72151C13.705 4.74038 13.8313 4.71005 13.9331 4.63701C14.0268 4.56435 14.0898 4.45918 14.1096 4.3423C14.1295 4.22543 14.1048 4.10535 14.0404 4.00581C13.4117 3.13256 12.5853 2.42052 11.6286 1.92793C10.672 1.43535 9.61235 1.17622 8.53635 1.17174ZM14.7473 6.69471C14.5901 6.71965 14.448 6.80311 14.3497 6.92836C14.2514 7.05361 14.204 7.2114 14.2171 7.37009C14.3726 8.86632 13.9284 10.3632 12.9817 11.5322C12.0351 12.7013 10.6634 13.4472 9.16755 13.6063H8.58685C7.68781 13.6075 6.80133 13.3952 6.00029 12.987C5.19926 12.5788 4.50655 11.9863 3.97911 11.2583C3.92035 11.1779 3.8434 11.1125 3.75454 11.0675C3.66568 11.0225 3.56744 10.9992 3.46784 10.9995C3.31655 10.9975 3.16959 11.05 3.05374 11.1473C2.93789 11.2446 2.86084 11.3803 2.83665 11.5297C2.81143 11.6943 2.85227 11.8621 2.95026 11.9968C3.58855 12.8848 4.42671 13.6103 5.39707 14.1146C6.36744 14.619 7.44281 14.8881 8.53635 14.9003C8.77251 14.9002 9.00849 14.8876 9.24329 14.8624C11.0746 14.6729 12.7556 13.7639 13.9168 12.3352C15.078 10.9066 15.6242 9.07519 15.4353 7.24385C15.4196 7.08762 15.3463 6.94284 15.2295 6.8378C15.1128 6.73276 14.9612 6.67499 14.8041 6.67578L14.7473 6.69471Z" fill="white"/>
<path d="M14.8491 6.83334H14.7986C14.6735 6.83988 14.556 6.89503 14.4711 6.98701C14.3862 7.079 14.3406 7.20053 14.3441 7.32567C14.483 8.60606 14.1946 9.89645 13.5239 10.9959C12.8532 12.0954 11.8378 12.9422 10.6357 13.4046C9.43368 13.867 8.11249 13.919 6.87785 13.5524C5.64321 13.1858 4.56442 12.4214 3.80943 11.378C3.73502 11.2865 3.62953 11.2256 3.5131 11.207C3.39667 11.1884 3.27746 11.2133 3.17823 11.277C3.08456 11.3496 3.02156 11.4548 3.00169 11.5717C2.98182 11.6885 3.00653 11.8086 3.07093 11.9082C3.94713 13.1187 5.19844 14.0061 6.63062 14.4327C8.06279 14.8592 9.59573 14.8011 10.9915 14.2672C12.3872 13.7334 13.5677 12.7537 14.3497 11.4803C15.1317 10.2069 15.4714 8.71094 15.3161 7.22468C15.2968 7.1149 15.2394 7.01545 15.1539 6.94386C15.0685 6.87228 14.9605 6.83314 14.8491 6.83334Z" fill="white"/>
<path d="M3.39204 11.0307C3.22905 11.038 3.07523 11.1081 2.96282 11.2264C2.90583 11.2871 2.86143 11.3586 2.83218 11.4366C2.80293 11.5146 2.78941 11.5976 2.7924 11.6808L2.89339 14.2056C2.89339 14.373 2.95989 14.5336 3.07826 14.652C3.19664 14.7703 3.35718 14.8368 3.52459 14.8368C3.61326 14.8383 3.70124 14.8211 3.78281 14.7863C3.86437 14.7515 3.93769 14.6999 3.99798 14.6348C4.05497 14.5741 4.09937 14.5026 4.12862 14.4246C4.15787 14.3466 4.17139 14.2636 4.16841 14.1804L4.06742 11.6556C4.06742 11.4882 4.00091 11.3276 3.88254 11.2093C3.76417 11.0909 3.60362 11.0244 3.43622 11.0244L3.39204 11.0307Z" fill="white"/>
<path d="M3.42327 11.1821C3.29881 11.187 3.18131 11.2408 3.09624 11.3318C3.01117 11.4228 2.96539 11.5436 2.96881 11.6681L3.0698 14.1929C3.07139 14.2554 3.0855 14.3169 3.11129 14.3738C3.13707 14.4307 3.17401 14.4818 3.21992 14.5242C3.26582 14.5666 3.31976 14.5993 3.37854 14.6205C3.43732 14.6416 3.49975 14.6508 3.56213 14.6474C3.68714 14.6408 3.80465 14.5857 3.88956 14.4937C3.97447 14.4017 4.02006 14.2802 4.01659 14.155L3.9156 11.6303C3.90906 11.5058 3.85369 11.3889 3.76152 11.305C3.66935 11.2211 3.5478 11.177 3.42327 11.1821Z" fill="white"/>
<path d="M14.7469 6.69447C14.5897 6.71941 14.4476 6.80286 14.3493 6.92812C14.251 7.05337 14.2036 7.21115 14.2167 7.36985C14.3723 8.86608 13.928 10.3629 12.9813 11.532C12.0347 12.7011 10.663 13.447 9.16717 13.6061H8.58646C7.68742 13.6072 6.80094 13.395 5.99991 12.9868C5.19888 12.5786 4.50617 11.9861 3.97873 11.258C3.91997 11.1776 3.84301 11.1122 3.75415 11.0673C3.6653 11.0223 3.56705 10.999 3.46746 10.9992C3.31617 10.9973 3.16921 11.0497 3.05336 11.1471C2.9375 11.2444 2.86046 11.3801 2.83626 11.5294C2.81105 11.694 2.85188 11.8619 2.94988 11.9965C3.58817 12.8845 4.42633 13.61 5.39669 14.1144C6.36705 14.6188 7.44242 14.8879 8.53597 14.9C8.77212 14.9 9.0081 14.8874 9.24291 14.8622C11.0742 14.6727 12.7552 13.7637 13.9164 12.335C15.0776 10.9063 15.6238 9.07495 15.4349 7.24361C15.4192 7.08737 15.3459 6.9426 15.2292 6.83756C15.1124 6.73251 14.9608 6.67475 14.8038 6.67553L14.7469 6.69447Z" fill="white"/>
<path d="M14.8483 6.83346H14.7978C14.6728 6.84 14.5553 6.89515 14.4704 6.98714C14.3855 7.07912 14.3399 7.20066 14.3433 7.32579C14.4822 8.60619 14.1939 9.89657 13.5232 10.996C12.8524 12.0955 11.837 12.9424 10.635 13.4047C9.43293 13.8671 8.11173 13.9191 6.87709 13.5525C5.64246 13.186 4.56366 12.4215 3.80867 11.3781C3.73426 11.2866 3.62877 11.2258 3.51235 11.2071C3.39592 11.1885 3.27671 11.2134 3.17748 11.2771C3.0838 11.3497 3.02081 11.4549 3.00094 11.5718C2.98107 11.6887 3.00578 11.8087 3.07017 11.9083C3.94638 13.1188 5.19768 14.0062 6.62986 14.4328C8.06204 14.8593 9.59497 14.8012 10.9907 14.2673C12.3865 13.7335 13.5669 12.7539 14.3489 11.4804C15.1309 10.207 15.4706 8.71107 15.3154 7.2248C15.2961 7.11502 15.2386 7.01558 15.1532 6.94399C15.0677 6.8724 14.9598 6.83326 14.8483 6.83346ZM8.53634 1.01383C8.30018 1.01386 8.0642 1.0265 7.8294 1.0517C6.92208 1.14474 6.04199 1.41563 5.23939 1.8489C4.4368 2.28216 3.72744 2.86932 3.15183 3.57681C2.57622 4.28431 2.14564 5.09828 1.8847 5.97223C1.62376 6.84618 1.53757 7.76297 1.63104 8.67024C1.64674 8.82648 1.72012 8.97125 1.83683 9.07629C1.95354 9.18134 2.10522 9.23911 2.26224 9.23832H2.33167C2.41417 9.22966 2.49414 9.20482 2.56703 9.16523C2.63992 9.12564 2.70429 9.07208 2.75646 9.00759C2.80863 8.94311 2.84758 8.86898 2.87109 8.78943C2.89459 8.70988 2.90219 8.62649 2.89344 8.544C2.73792 7.04777 3.1822 5.55094 4.12883 4.38185C5.07547 3.21276 6.44715 2.46686 7.94301 2.30778C8.13868 2.30778 8.32804 2.27622 8.52371 2.27622C9.42275 2.27507 10.3092 2.48732 11.1103 2.89551C11.9113 3.30371 12.604 3.8962 13.1314 4.62427C13.1902 4.70468 13.2672 4.77005 13.356 4.81503C13.4449 4.86001 13.5431 4.88332 13.6427 4.88306C13.794 4.88501 13.941 4.83255 14.0568 4.73523C14.1727 4.63791 14.2497 4.50222 14.2739 4.35286C14.2991 4.18827 14.2583 4.02039 14.1603 3.88577C13.5149 2.99843 12.6692 2.27589 11.692 1.77687C10.7147 1.27784 9.63359 1.01641 8.53634 1.01383Z" fill="white"/>
<path d="M8.53635 1.17157C8.3044 1.17177 8.07263 1.18441 7.84204 1.20944C6.05334 1.39727 4.41219 2.28692 3.27859 3.68321C2.14498 5.07951 1.6115 6.86843 1.79517 8.65756C1.80793 8.78219 1.86957 8.89668 1.96658 8.97595C2.0636 9.05522 2.18808 9.0928 2.31275 9.08046C2.43792 9.06615 2.55243 9.00319 2.63155 8.90517C2.71068 8.80714 2.74807 8.68193 2.73566 8.55657C2.60529 7.27904 2.89975 5.99418 3.57342 4.90091C4.2471 3.80765 5.26242 2.96699 6.46216 2.50909C7.66191 2.05118 8.97915 2.00159 10.2099 2.36799C11.4407 2.73439 12.5164 3.49633 13.2703 4.53584C13.3457 4.63588 13.4573 4.70246 13.5811 4.72133C13.705 4.7402 13.8313 4.70988 13.9331 4.63683C14.0268 4.56417 14.0898 4.459 14.1096 4.34213C14.1295 4.22525 14.1048 4.10518 14.0404 4.00564C13.4117 3.13238 12.5853 2.42034 11.6286 1.92776C10.672 1.43518 9.61235 1.17605 8.53635 1.17157Z" fill="white"/>
</svg>
