<svg width="19" height="19" viewBox="0 0 19 19" fill="none" xmlns="http://www.w3.org/2000/svg">
<path d="M9.24483 18.1004C14.1066 18.1004 18.0478 14.1592 18.0478 9.29744C18.0478 4.43571 14.1066 0.494507 9.24483 0.494507C4.38309 0.494507 0.441895 4.43571 0.441895 9.29744C0.441895 14.1592 4.38309 18.1004 9.24483 18.1004Z" fill="white"/>
<path d="M13.9798 7.10523H12.1438H10.3083L9.62682 7.74086L9.35335 7.99677L9.18475 8.15547L9.11306 8.2236L9.04359 8.28924L9.01306 8.31832L8.95553 8.37399L8.93163 8.39684L8.88694 8.43963L8.87101 8.45583L8.84225 8.48408L8.83472 8.49198L8.7241 8.60747L8.67985 14.5013L8.11564 13.9704L7.55144 13.4395V10.8002V8.16087L8.68737 7.09318L9.82329 6.02509H15.1396M12.2429 8.22942L12.3775 8.23108L12.439 8.23232L12.558 8.23482L12.6102 8.23606L12.7102 8.23939L12.7518 8.24105L12.8293 8.24437L12.8589 8.24645L12.9111 8.25019L12.9266 8.25227L12.9501 8.25642V8.25891L12.939 8.27553L12.9209 8.2963L12.9071 8.31084L12.8766 8.34325L12.8571 8.36319L12.8155 8.40556L12.7908 8.43007L12.6832 8.53601L12.6186 8.59791L12.4823 8.72795L12.408 8.79732L11.8659 9.30458L11.4455 9.31621L11.0252 9.32784L11.0136 11.3905L11.0021 13.4528L10.4658 13.9559L10.3207 14.0909L10.2543 14.1511L10.1277 14.2654L10.0755 14.3106L10.0255 14.3543L10.0043 14.3725L9.96401 14.4062L9.94808 14.4187L9.91932 14.4415L9.90958 14.4482L9.89365 14.4585H9.891L9.88701 14.4444L9.88436 14.4212L9.88303 14.4029L9.88082 14.3622L9.87949 14.3352L9.87684 14.2778L9.87595 14.2429L9.87374 14.1698L9.87241 14.1274L9.8702 14.0394L9.86931 13.9899L9.86754 13.8877L9.86622 13.8316L9.86445 13.7166L9.86356 13.6542L9.86223 13.5267L9.86135 13.459L9.85958 13.3202L9.85914 13.2471L9.85648 12.9438L9.8556 12.7789L9.85383 12.4407L9.85338 12.2609L9.8525 11.8944V8.94813L10.245 8.58753L10.6375 8.22692H11.7938M7.24434 6.01262H7.4948L7.60543 6.01304L7.81651 6.01387L7.90501 6.0147L7.98997 6.01512L8.02803 6.01553L8.10104 6.01636L8.13202 6.01678L8.19131 6.01761L8.21565 6.01802L8.26079 6.01885L8.2776 6.01968L8.30769 6.02052L8.31654 6.02135L8.33026 6.02259L8.33115 6.02301L8.32362 6.03755L8.30725 6.05749L8.29442 6.07245L8.26477 6.10444L8.2453 6.12479L8.2037 6.16758L8.17937 6.19251L8.12715 6.24444L8.09794 6.27352L8.03688 6.33334L8.00369 6.36575L7.86386 6.50035L7.78597 6.57347L7.22089 7.10523H4.60477L4.03614 6.56599L3.46707 6.02633L5.88893 6.01553L6.37614 6.01345L6.68589 6.01262H6.83104L7.11469 6.01221L7.24434 6.01262Z" fill="#42BDFF"/>
</svg>
