<svg width="390" height="329" viewBox="0 0 390 329" fill="none" xmlns="http://www.w3.org/2000/svg">
<path opacity="0.03" d="M365.771 42.3607H298.922H232.09L207.278 66.9947L197.321 76.9126L191.182 83.0631L188.572 85.7036L186.042 88.2475L184.931 89.3745L182.836 91.532L181.966 92.4175L180.339 94.0759L179.759 94.7038L178.711 95.7987L178.437 96.1046L174.41 100.581L172.798 329L152.256 308.423L131.713 287.847V185.56V83.2724L173.072 41.8938L214.432 0.499121H408M302.531 85.929L307.429 85.9934L309.669 86.0417L314.003 86.1383L315.904 86.1866L319.546 86.3154L321.06 86.3798L323.88 86.5086L324.959 86.5891L326.86 86.734L327.424 86.8145L328.278 86.9755V87.0721L327.875 87.7162L327.215 88.5212L326.715 89.0847L325.604 90.3406L324.895 91.1134L323.38 92.7557L322.478 93.7056L318.563 97.8112L316.21 100.21L311.248 105.25L308.541 107.939L288.804 127.597L273.498 128.048L258.191 128.499L257.773 208.439L257.354 288.362L237.826 307.86L232.541 313.093L230.125 315.427L225.516 319.855L223.615 321.61L221.795 323.3L221.021 324.009L219.555 325.313L218.975 325.796L217.928 326.681L217.573 326.939L216.993 327.342H216.897L216.752 326.794L216.655 325.893L216.607 325.184L216.526 323.606L216.478 322.56L216.381 320.338L216.349 318.985L216.268 316.152L216.22 314.509L216.139 311.096L216.107 309.18L216.043 305.219L215.994 303.046L215.93 298.586L215.898 296.171L215.849 291.228L215.817 288.604L215.753 283.226L215.737 280.392L215.64 268.639L215.608 262.247L215.543 249.141L215.527 242.169L215.495 227.969V113.783L229.786 99.8077L244.077 85.8324H286.178M120.531 0.0161041H129.651L133.679 0.032202L141.364 0.0644039L144.586 0.0966059L147.68 0.112704L149.065 0.128808L151.724 0.16101L152.852 0.177108L155.011 0.20931L155.897 0.225414L157.54 0.25761L158.153 0.289812L159.248 0.322014L159.57 0.354216L160.07 0.402515L160.102 0.418619L159.828 0.982139L159.232 1.75497L158.765 2.33459L157.685 3.57434L156.976 4.36327L155.462 6.02163L154.576 6.98767L152.675 9.00025L151.611 10.1273L149.388 12.4458L148.179 13.7016L143.088 18.9182L140.252 21.7519L119.677 42.3607H24.4237L3.71992 21.4621L-17 0.547421L71.1805 0.128808L88.9197 0.048306L100.198 0.0161041H105.483L115.81 0L120.531 0.0161041Z" fill="url(#paint0_linear_37_3)"/>
<defs>
<linearGradient id="paint0_linear_37_3" x1="195.5" y1="0" x2="195.5" y2="329" gradientUnits="userSpaceOnUse">
<stop stop-color="#94C8E4"/>
<stop offset="1" stop-color="#FDFEFF"/>
</linearGradient>
</defs>
</svg>
